SplineFontDB: 3.0
FontName: outlined-iconset
FullName: outlined-iconset
FamilyName: outlined-iconset
Weight: Book
Version: 1.0
ItalicAngle: 0
UnderlinePosition: 0
UnderlineWidth: 0
Ascent: 480
Descent: 32
sfntRevision: 0x00010000
LayerCount: 2
Layer: 0 1 "Back"  1
Layer: 1 1 "Fore"  0
XUID: [1021 609 902206315 11481518]
FSType: 8
OS2Version: 1
OS2_WeightWidthSlopeOnly: 0
OS2_UseTypoMetrics: 1
CreationTime: 1394560360
ModificationTime: 1442823262
PfmFamily: 17
TTFWeight: 400
TTFWidth: 5
LineGap: 46
VLineGap: 0
Panose: 2 0 5 9 0 0 0 0 0 0
OS2TypoAscent: 480
OS2TypoAOffset: 0
OS2TypoDescent: -32
OS2TypoDOffset: 0
OS2TypoLinegap: 46
OS2WinAscent: 520
OS2WinAOffset: 0
OS2WinDescent: 32
OS2WinDOffset: 0
HheadAscent: 520
HheadAOffset: 0
HheadDescent: -32
HheadDOffset: 0
OS2SubXSize: 332
OS2SubYSize: 358
OS2SubXOff: 0
OS2SubYOff: 71
OS2SupXSize: 332
OS2SupYSize: 358
OS2SupXOff: 0
OS2SupYOff: 245
OS2StrikeYSize: 25
OS2StrikeYPos: 132
OS2Vendor: 'PfEd'
OS2CodePages: 00000001.00000000
OS2UnicodeRanges: 00000000.10000000.00000000.00000000
DEI: 91125
ShortTable: maxp 16
  1
  0
  160
  160
  16
  0
  0
  2
  0
  1
  1
  0
  64
  0
  0
  0
EndShort
LangName: 1033 "" "" "" "FontForge 2.0 : outlined-iconset : 11-3-2014" "" "Version 1.0" 
GaspTable: 1 65535 2 0
Encoding: UnicodeBmp
UnicodeInterp: none
NameList: Adobe Glyph List
DisplaySize: -48
AntiAlias: 1
FitToEm: 1
WinInfo: 57202 37 14
BeginChars: 65538 164

StartChar: uniE000
Encoding: 57344 57344 3
Width: 512
Flags: W
LayerCount: 2
Fore
SplineSet
464 144 m 1,0,-1
 256 144 l 1,1,-1
 256 496 l 1,2,3
 254 511 254 511 240 512 c 1,4,5
 225 510 225 510 224 496 c 1,6,-1
 224 144 l 1,7,-1
 48 144 l 1,8,9
 40 143 40 143 35 137 c 1,10,11
 31 129 31 129 33 122 c 2,12,-1
 81 10 l 1,13,14
 87 1 87 1 96 0 c 1,15,-1
 416 0 l 1,16,17
 426 1 426 1 431 10 c 1,18,-1
 479 122 l 1,19,20
 481 130 481 130 477 137 c 1,21,22
 471 143 471 143 464 144 c 1,0,-1
405 32 m 1,23,-1
 107 32 l 1,24,-1
 72 112 l 1,25,-1
 440 112 l 1,26,-1
 405 32 l 1,23,-1
178 344 m 1,27,-1
 82 184 l 2,28,29
 78 176 78 176 82 168 c 1,30,31
 88 161 88 161 96 160 c 1,32,-1
 192 160 l 1,33,34
 207 162 207 162 208 176 c 1,35,-1
 208 336 l 1,36,37
 207 348 207 348 196 351 c 0,38,39
 185 353 185 353 178 344 c 1,27,-1
176 192 m 1,40,-1
 124 192 l 1,41,-1
 176 278 l 1,42,-1
 176 192 l 1,40,-1
272 496 m 1,43,-1
 272 176 l 1,44,45
 274 161 274 161 288 160 c 1,46,47
 331 160 331 160 370 189 c 1,48,49
 431 237 431 237 432 336 c 1,50,51
 432 465 432 465 334 502 c 0,52,53
 309 512 309 512 288 512 c 1,54,55
 273 510 273 510 272 496 c 1,43,-1
304 478 m 1,56,57
 375 464 375 464 394 389 c 0,58,59
 400 365 400 365 400 336 c 0,60,61
 400 225 400 225 319 198 c 0,62,63
 311 195 311 195 304 194 c 1,64,-1
 304 478 l 1,56,57
EndSplineSet
EndChar

StartChar: uniE001
Encoding: 57345 57345 4
Width: 512
Flags: W
LayerCount: 2
Fore
SplineSet
144 512 m 1,0,1
 129 510 129 510 128 496 c 1,2,-1
 128 16 l 1,3,4
 129 6 129 6 138 1 c 1,5,6
 149 -2 149 -2 155 5 c 2,7,-1
 256 105 l 1,8,-1
 357 5 l 2,9,10
 363 0 363 0 368 0 c 0,11,12
 372 0 372 0 374 1 c 0,13,14
 383 7 383 7 384 16 c 1,15,-1
 384 496 l 1,16,17
 382 511 382 511 368 512 c 1,18,-1
 144 512 l 1,0,1
352 55 m 1,19,-1
 267 139 l 2,20,21
 261 144 261 144 256 144 c 0,22,23
 250 143 250 143 245 139 c 2,24,-1
 160 55 l 1,25,-1
 160 480 l 1,26,-1
 352 480 l 1,27,-1
 352 55 l 1,19,-1
EndSplineSet
EndChar

StartChar: uniE002
Encoding: 57346 57346 5
Width: 512
Flags: W
LayerCount: 2
Fore
SplineSet
155 5 m 2,0,-1
 256 105 l 1,1,-1
 357 5 l 2,2,3
 363 0 363 0 368 0 c 0,4,5
 372 0 372 0 374 1 c 0,6,7
 383 7 383 7 384 16 c 1,8,-1
 384 496 l 1,9,10
 382 511 382 511 368 512 c 1,11,-1
 144 512 l 1,12,13
 129 510 129 510 128 496 c 1,14,-1
 128 16 l 1,15,16
 129 6 129 6 138 1 c 1,17,18
 149 -2 149 -2 155 5 c 2,0,-1
160 480 m 1,19,-1
 352 480 l 1,20,-1
 352 55 l 1,21,-1
 267 139 l 2,22,23
 261 144 261 144 256 144 c 0,24,25
 250 143 250 143 245 139 c 2,26,-1
 160 55 l 1,27,-1
 160 480 l 1,19,-1
272 288 m 1,28,-1
 272 320 l 1,29,-1
 304 320 l 1,30,31
 319 322 319 322 320 336 c 1,32,33
 318 351 318 351 304 352 c 1,34,-1
 272 352 l 1,35,-1
 272 384 l 1,36,37
 270 399 270 399 256 400 c 1,38,39
 241 398 241 398 240 384 c 1,40,-1
 240 352 l 1,41,-1
 208 352 l 1,42,43
 193 350 193 350 192 336 c 1,44,45
 194 321 194 321 208 320 c 1,46,-1
 240 320 l 1,47,-1
 240 288 l 1,48,49
 242 273 242 273 256 272 c 1,50,51
 271 274 271 274 272 288 c 1,28,-1
EndSplineSet
EndChar

StartChar: uniE003
Encoding: 57347 57347 6
Width: 512
Flags: W
LayerCount: 2
Fore
SplineSet
155 5 m 2,0,-1
 256 105 l 1,1,-1
 357 5 l 2,2,3
 363 0 363 0 368 0 c 0,4,5
 372 0 372 0 374 1 c 0,6,7
 383 7 383 7 384 16 c 1,8,-1
 384 496 l 1,9,10
 382 511 382 511 368 512 c 1,11,-1
 144 512 l 1,12,13
 129 510 129 510 128 496 c 1,14,-1
 128 16 l 1,15,16
 129 6 129 6 138 1 c 1,17,18
 149 -2 149 -2 155 5 c 2,0,-1
160 480 m 1,19,-1
 352 480 l 1,20,-1
 352 55 l 1,21,-1
 267 139 l 2,22,23
 261 144 261 144 256 144 c 0,24,25
 250 143 250 143 245 139 c 2,26,-1
 160 55 l 1,27,-1
 160 480 l 1,19,-1
293 277 m 2,28,29
 299 272 299 272 304 272 c 0,30,31
 310 273 310 273 315 277 c 0,32,33
 326 288 326 288 315 299 c 2,34,-1
 279 336 l 1,35,-1
 315 373 l 2,36,37
 326 384 326 384 315 395 c 128,-1,38
 304 406 304 406 293 395 c 2,39,-1
 256 359 l 1,40,-1
 219 395 l 2,41,42
 208 406 208 406 197 395 c 128,-1,43
 186 384 186 384 197 373 c 2,44,-1
 233 336 l 1,45,-1
 197 299 l 2,46,47
 186 288 186 288 197 277 c 0,48,49
 203 272 203 272 208 272 c 0,50,51
 214 273 214 273 219 277 c 2,52,-1
 256 313 l 1,53,-1
 293 277 l 2,28,29
EndSplineSet
EndChar

StartChar: uniE004
Encoding: 57348 57348 7
Width: 512
Flags: W
LayerCount: 2
Fore
SplineSet
0 96 m 1,0,1
 2 81 2 81 16 80 c 1,2,-1
 496 80 l 1,3,4
 511 82 511 82 512 96 c 1,5,-1
 512 352 l 1,6,7
 510 367 510 367 496 368 c 1,8,-1
 376 368 l 1,9,-1
 316 442 l 2,10,11
 312 448 312 448 304 448 c 2,12,-1
 208 448 l 2,13,14
 200 448 200 448 196 442 c 2,15,-1
 136 368 l 1,16,-1
 16 368 l 1,17,18
 1 366 1 366 0 352 c 1,19,-1
 0 96 l 1,0,1
144 336 m 2,20,21
 152 336 152 336 156 342 c 2,22,-1
 216 416 l 1,23,-1
 296 416 l 1,24,-1
 356 342 l 2,25,26
 360 336 360 336 368 336 c 2,27,-1
 480 336 l 1,28,-1
 480 112 l 1,29,-1
 96 112 l 1,30,-1
 96 336 l 1,31,-1
 144 336 l 2,20,21
32 336 m 1,32,-1
 64 336 l 1,33,-1
 64 112 l 1,34,-1
 32 112 l 1,35,-1
 32 336 l 1,32,-1
256 144 m 0,36,37
 301 144 301 144 325 183 c 0,38,39
 336 202 336 202 336 224 c 0,40,41
 336 269 336 269 297 293 c 1,42,43
 277 304 277 304 256 304 c 0,44,45
 211 304 211 304 187 265 c 1,46,47
 176 245 176 245 176 224 c 0,48,49
 176 179 176 179 215 155 c 1,50,51
 235 144 235 144 256 144 c 0,36,37
256 272 m 0,52,53
 286 272 286 272 300 244 c 0,54,55
 304 234 304 234 304 224 c 0,56,57
 304 194 304 194 276 180 c 0,58,59
 266 176 266 176 256 176 c 0,60,61
 226 176 226 176 212 204 c 0,62,63
 208 214 208 214 208 224 c 0,64,65
 208 254 208 254 236 268 c 0,66,67
 246 272 246 272 256 272 c 0,52,53
432 272 m 0,68,69
 438 273 438 273 443 277 c 1,70,71
 448 283 448 283 448 288 c 0,72,73
 447 294 447 294 443 299 c 1,74,75
 432 308 432 308 421 299 c 1,76,77
 416 293 416 293 416 288 c 0,78,79
 417 282 417 282 421 277 c 1,80,81
 427 272 427 272 432 272 c 0,68,69
EndSplineSet
EndChar

StartChar: uniE005
Encoding: 57349 57349 8
Width: 512
Flags: W
LayerCount: 2
Fore
SplineSet
0 96 m 1,0,1
 2 81 2 81 16 80 c 1,2,-1
 496 80 l 1,3,4
 511 82 511 82 512 96 c 1,5,-1
 512 384 l 1,6,7
 510 399 510 399 496 400 c 1,8,-1
 160 400 l 1,9,-1
 160 432 l 1,10,11
 158 447 158 447 144 448 c 1,12,-1
 64 448 l 1,13,14
 49 446 49 446 48 432 c 1,15,-1
 48 400 l 1,16,-1
 16 400 l 1,17,18
 1 398 1 398 0 384 c 1,19,-1
 0 96 l 1,0,1
80 416 m 1,20,-1
 128 416 l 1,21,-1
 128 400 l 1,22,-1
 80 400 l 1,23,-1
 80 416 l 1,20,-1
32 368 m 1,24,-1
 480 368 l 1,25,-1
 480 112 l 1,26,-1
 32 112 l 1,27,-1
 32 368 l 1,24,-1
320 336 m 0,28,29
 267 336 267 336 239 291 c 0,30,31
 224 267 224 267 224 240 c 0,32,33
 224 187 224 187 269 159 c 0,34,35
 293 144 293 144 320 144 c 0,36,37
 373 144 373 144 401 189 c 0,38,39
 416 213 416 213 416 240 c 0,40,41
 416 293 416 293 371 321 c 0,42,43
 347 336 347 336 320 336 c 0,28,29
320 176 m 0,44,45
 281 176 281 176 263 211 c 0,46,47
 256 225 256 225 256 240 c 0,48,49
 256 279 256 279 291 297 c 0,50,51
 305 304 305 304 320 304 c 0,52,53
 359 304 359 304 377 269 c 0,54,55
 384 255 384 255 384 240 c 0,56,57
 384 201 384 201 349 183 c 0,58,59
 335 176 335 176 320 176 c 0,44,45
128 328 m 1,60,-1
 80 328 l 1,61,62
 65 326 65 326 64 312 c 1,63,64
 66 297 66 297 80 296 c 1,65,-1
 128 296 l 1,66,67
 143 298 143 298 144 312 c 1,68,69
 142 327 142 327 128 328 c 1,60,-1
EndSplineSet
EndChar

StartChar: uniE006
Encoding: 57350 57350 9
Width: 512
Flags: W
LayerCount: 2
Fore
SplineSet
96 96 m 2,0,-1
 432 96 l 2,1,2
 477 96 477 96 501 135 c 1,3,4
 512 155 512 155 512 176 c 0,5,6
 512 223 512 223 471 246 c 0,7,8
 459 252 459 252 447 255 c 1,9,10
 441 336 441 336 374 384 c 1,11,12
 327 416 327 416 272 416 c 0,13,14
 186 416 186 416 133 352 c 0,15,16
 109 323 109 323 99 288 c 1,17,-1
 96 288 l 2,18,19
 43 288 43 288 15 243 c 0,20,21
 0 219 0 219 0 192 c 0,22,23
 0 139 0 139 45 111 c 0,24,25
 69 96 69 96 96 96 c 2,0,-1
96 256 m 2,26,-1
 112 256 l 1,27,28
 124 257 124 257 128 269 c 1,29,30
 140 335 140 335 202 367 c 0,31,32
 235 384 235 384 272 384 c 0,33,34
 343 384 343 384 387 327 c 1,35,36
 416 287 416 287 416 240 c 1,37,38
 418 225 418 225 432 224 c 1,39,40
 462 224 462 224 476 196 c 0,41,42
 480 186 480 186 480 176 c 0,43,44
 480 146 480 146 452 132 c 0,45,46
 442 128 442 128 432 128 c 2,47,-1
 96 128 l 2,48,49
 57 128 57 128 39 163 c 0,50,51
 32 177 32 177 32 192 c 0,52,53
 32 231 32 231 67 249 c 0,54,55
 81 256 81 256 96 256 c 2,26,-1
229 181 m 2,56,57
 235 176 235 176 240 176 c 0,58,59
 246 177 246 177 251 181 c 2,60,-1
 331 261 l 2,61,62
 342 272 342 272 331 283 c 128,-1,63
 320 294 320 294 309 283 c 2,64,-1
 240 215 l 1,65,-1
 203 251 l 2,66,67
 192 262 192 262 181 251 c 128,-1,68
 170 240 170 240 181 229 c 2,69,-1
 229 181 l 2,56,57
EndSplineSet
EndChar

StartChar: uniE007
Encoding: 57351 57351 10
Width: 512
Flags: W
LayerCount: 2
Fore
SplineSet
447 255 m 1,0,1
 441 336 441 336 374 384 c 1,2,3
 327 416 327 416 272 416 c 0,4,5
 186 416 186 416 133 352 c 0,6,7
 109 323 109 323 99 288 c 1,8,-1
 96 288 l 2,9,10
 43 288 43 288 15 243 c 0,11,12
 0 219 0 219 0 192 c 0,13,14
 0 139 0 139 45 111 c 0,15,16
 69 96 69 96 96 96 c 2,17,-1
 432 96 l 2,18,19
 477 96 477 96 501 135 c 1,20,21
 512 155 512 155 512 176 c 0,22,23
 512 223 512 223 471 246 c 0,24,25
 459 252 459 252 447 255 c 1,0,1
432 128 m 2,26,-1
 96 128 l 2,27,28
 57 128 57 128 39 163 c 0,29,30
 32 177 32 177 32 192 c 0,31,32
 32 231 32 231 67 249 c 0,33,34
 81 256 81 256 96 256 c 2,35,-1
 112 256 l 1,36,37
 124 257 124 257 128 269 c 1,38,39
 140 335 140 335 202 367 c 0,40,41
 235 384 235 384 272 384 c 0,42,43
 343 384 343 384 387 327 c 1,44,45
 416 287 416 287 416 240 c 1,46,47
 418 225 418 225 432 224 c 1,48,49
 462 224 462 224 476 196 c 0,50,51
 480 186 480 186 480 176 c 0,52,53
 480 146 480 146 452 132 c 0,54,55
 442 128 442 128 432 128 c 2,26,-1
315 283 m 128,-1,57
 304 294 304 294 293 283 c 2,58,-1
 264 255 l 1,59,-1
 235 283 l 2,60,61
 224 294 224 294 213 283 c 128,-1,62
 202 272 202 272 213 261 c 2,63,-1
 241 232 l 1,64,-1
 213 203 l 2,65,66
 202 192 202 192 213 181 c 0,67,68
 219 176 219 176 224 176 c 0,69,70
 230 177 230 177 235 181 c 2,71,-1
 264 209 l 1,72,-1
 293 181 l 2,73,74
 299 176 299 176 304 176 c 0,75,76
 310 177 310 177 315 181 c 0,77,78
 326 192 326 192 315 203 c 2,79,-1
 287 232 l 1,80,-1
 315 261 l 2,81,56
 326 272 326 272 315 283 c 128,-1,57
EndSplineSet
EndChar

StartChar: uniE008
Encoding: 57352 57352 11
Width: 512
Flags: W
LayerCount: 2
Fore
SplineSet
256 320 m 1,0,1
 241 318 241 318 240 304 c 1,2,-1
 240 87 l 1,3,-1
 203 123 l 2,4,5
 192 134 192 134 181 123 c 128,-1,6
 170 112 170 112 181 101 c 2,7,-1
 245 37 l 2,8,9
 251 32 251 32 256 32 c 0,10,11
 262 33 262 33 267 37 c 2,12,-1
 331 101 l 2,13,14
 342 112 342 112 331 123 c 128,-1,15
 320 134 320 134 309 123 c 2,16,-1
 272 87 l 1,17,-1
 272 304 l 1,18,19
 270 319 270 319 256 320 c 1,0,1
447 319 m 1,20,21
 441 400 441 400 374 448 c 1,22,23
 327 480 327 480 272 480 c 0,24,25
 186 480 186 480 133 416 c 0,26,27
 109 387 109 387 99 352 c 1,28,-1
 96 352 l 2,29,30
 43 352 43 352 15 307 c 0,31,32
 0 283 0 283 0 256 c 0,33,34
 0 203 0 203 45 175 c 0,35,36
 69 160 69 160 96 160 c 2,37,-1
 192 160 l 1,38,39
 207 162 207 162 208 176 c 1,40,41
 206 191 206 191 192 192 c 1,42,-1
 96 192 l 2,43,44
 57 192 57 192 39 227 c 0,45,46
 32 241 32 241 32 256 c 0,47,48
 32 295 32 295 67 313 c 0,49,50
 81 320 81 320 96 320 c 2,51,-1
 112 320 l 1,52,53
 124 321 124 321 128 333 c 1,54,55
 140 399 140 399 202 431 c 0,56,57
 235 448 235 448 272 448 c 0,58,59
 343 448 343 448 387 391 c 1,60,61
 416 351 416 351 416 304 c 1,62,63
 418 289 418 289 432 288 c 1,64,65
 462 288 462 288 476 260 c 0,66,67
 480 250 480 250 480 240 c 0,68,69
 480 210 480 210 452 196 c 0,70,71
 442 192 442 192 432 192 c 2,72,-1
 320 192 l 1,73,74
 305 190 305 190 304 176 c 1,75,76
 306 161 306 161 320 160 c 1,77,-1
 432 160 l 2,78,79
 477 160 477 160 501 199 c 1,80,81
 512 219 512 219 512 240 c 0,82,83
 512 287 512 287 471 310 c 0,84,85
 459 316 459 316 447 319 c 1,20,21
EndSplineSet
EndChar

StartChar: uniE009
Encoding: 57353 57353 12
Width: 512
Flags: W
LayerCount: 2
Fore
SplineSet
256 32 m 1,0,1
 271 34 271 34 272 48 c 1,2,-1
 272 265 l 1,3,-1
 309 229 l 2,4,5
 315 224 315 224 320 224 c 0,6,7
 326 225 326 225 331 229 c 0,8,9
 342 240 342 240 331 251 c 2,10,-1
 267 315 l 2,11,12
 256 326 256 326 245 315 c 2,13,-1
 181 251 l 2,14,15
 170 240 170 240 181 229 c 128,-1,16
 192 218 192 218 203 229 c 2,17,-1
 240 265 l 1,18,-1
 240 48 l 1,19,20
 242 33 242 33 256 32 c 1,0,1
447 319 m 1,21,22
 441 400 441 400 374 448 c 1,23,24
 327 480 327 480 272 480 c 0,25,26
 186 480 186 480 133 416 c 0,27,28
 109 387 109 387 99 352 c 1,29,-1
 96 352 l 2,30,31
 43 352 43 352 15 307 c 0,32,33
 0 283 0 283 0 256 c 0,34,35
 0 203 0 203 45 175 c 0,36,37
 69 160 69 160 96 160 c 2,38,-1
 192 160 l 1,39,40
 207 162 207 162 208 176 c 1,41,42
 206 191 206 191 192 192 c 1,43,-1
 96 192 l 2,44,45
 57 192 57 192 39 227 c 0,46,47
 32 241 32 241 32 256 c 0,48,49
 32 295 32 295 67 313 c 0,50,51
 81 320 81 320 96 320 c 2,52,-1
 112 320 l 1,53,54
 124 321 124 321 128 333 c 1,55,56
 140 399 140 399 202 431 c 0,57,58
 235 448 235 448 272 448 c 0,59,60
 343 448 343 448 387 391 c 1,61,62
 416 351 416 351 416 304 c 1,63,64
 418 289 418 289 432 288 c 1,65,66
 462 288 462 288 476 260 c 0,67,68
 480 250 480 250 480 240 c 0,69,70
 480 210 480 210 452 196 c 0,71,72
 442 192 442 192 432 192 c 2,73,-1
 320 192 l 1,74,75
 305 190 305 190 304 176 c 1,76,77
 306 161 306 161 320 160 c 1,78,-1
 432 160 l 2,79,80
 477 160 477 160 501 199 c 1,81,82
 512 219 512 219 512 240 c 0,83,84
 512 287 512 287 471 310 c 0,85,86
 459 316 459 316 447 319 c 1,21,22
EndSplineSet
EndChar

StartChar: uniE00A
Encoding: 57354 57354 13
Width: 512
Flags: W
LayerCount: 2
Fore
SplineSet
447 255 m 1,0,1
 441 336 441 336 374 384 c 1,2,3
 327 416 327 416 272 416 c 0,4,5
 186 416 186 416 133 352 c 0,6,7
 109 323 109 323 99 288 c 1,8,-1
 96 288 l 2,9,10
 43 288 43 288 15 243 c 0,11,12
 0 219 0 219 0 192 c 0,13,14
 0 139 0 139 45 111 c 0,15,16
 69 96 69 96 96 96 c 2,17,-1
 432 96 l 2,18,19
 477 96 477 96 501 135 c 1,20,21
 512 155 512 155 512 176 c 0,22,23
 512 223 512 223 471 246 c 0,24,25
 459 252 459 252 447 255 c 1,0,1
432 128 m 2,26,-1
 96 128 l 2,27,28
 57 128 57 128 39 163 c 0,29,30
 32 177 32 177 32 192 c 0,31,32
 32 231 32 231 67 249 c 0,33,34
 81 256 81 256 96 256 c 2,35,-1
 112 256 l 1,36,37
 124 257 124 257 128 269 c 1,38,39
 140 335 140 335 202 367 c 0,40,41
 235 384 235 384 272 384 c 0,42,43
 343 384 343 384 387 327 c 1,44,45
 416 287 416 287 416 240 c 1,46,47
 418 225 418 225 432 224 c 1,48,49
 462 224 462 224 476 196 c 0,50,51
 480 186 480 186 480 176 c 0,52,53
 480 146 480 146 452 132 c 0,54,55
 442 128 442 128 432 128 c 2,26,-1
EndSplineSet
EndChar

StartChar: uniE00B
Encoding: 57355 57355 14
Width: 512
Flags: W
LayerCount: 2
Fore
SplineSet
33 446 m 1,0,1
 31 435 31 435 38 428 c 2,2,-1
 240 257 l 1,3,-1
 240 32 l 1,4,-1
 152 32 l 1,5,6
 137 30 137 30 136 16 c 1,7,8
 138 1 138 1 152 0 c 1,9,-1
 360 0 l 1,10,11
 375 2 375 2 376 16 c 1,12,13
 374 31 374 31 360 32 c 1,14,-1
 272 32 l 1,15,-1
 272 257 l 1,16,-1
 474 428 l 2,17,18
 481 435 481 435 479 446 c 1,19,20
 475 455 475 455 464 456 c 1,21,-1
 351 456 l 1,22,-1
 379 485 l 2,23,24
 390 496 390 496 379 507 c 128,-1,25
 368 518 368 518 357 507 c 2,26,-1
 309 459 l 1,27,-1
 306 456 l 1,28,-1
 48 456 l 1,29,30
 37 455 37 455 33 446 c 1,0,1
420 424 m 1,31,-1
 256 285 l 1,32,-1
 92 424 l 1,33,-1
 420 424 l 1,31,-1
EndSplineSet
EndChar

StartChar: uniE00C
Encoding: 57356 57356 15
Width: 512
Flags: W
LayerCount: 2
Fore
SplineSet
80 304 m 1,0,-1
 80 80 l 2,1,2
 80 36 80 36 114 13 c 0,3,4
 133 0 133 0 160 0 c 2,5,-1
 288 0 l 2,6,7
 348 0 348 0 364 56 c 0,8,9
 368 68 368 68 368 80 c 2,10,-1
 368 96 l 1,11,-1
 416 96 l 1,12,13
 431 98 431 98 432 112 c 1,14,-1
 432 240 l 1,15,16
 430 255 430 255 416 256 c 1,17,-1
 368 256 l 1,18,-1
 368 304 l 1,19,20
 366 319 366 319 352 320 c 1,21,-1
 96 320 l 1,22,23
 81 318 81 318 80 304 c 1,0,-1
400 224 m 1,24,-1
 400 128 l 1,25,-1
 368 128 l 1,26,-1
 368 224 l 1,27,-1
 400 224 l 1,24,-1
112 288 m 1,28,-1
 336 288 l 1,29,-1
 336 80 l 2,30,31
 336 45 336 45 307 35 c 0,32,33
 298 32 298 32 288 32 c 2,34,-1
 160 32 l 1,35,36
 117 38 117 38 112 80 c 1,37,-1
 112 288 l 1,28,-1
136 416 m 1,38,39
 121 414 121 414 120 400 c 1,40,-1
 120 368 l 1,41,42
 122 353 122 353 136 352 c 1,43,44
 151 354 151 354 152 368 c 1,45,-1
 152 384 l 1,46,-1
 216 384 l 1,47,48
 231 386 231 386 232 400 c 1,49,-1
 232 448 l 1,50,51
 230 463 230 463 216 464 c 1,52,-1
 176 464 l 1,53,-1
 176 496 l 1,54,55
 174 511 174 511 160 512 c 1,56,57
 145 510 145 510 144 496 c 1,58,-1
 144 448 l 1,59,60
 146 433 146 433 160 432 c 1,61,-1
 200 432 l 1,62,-1
 200 416 l 1,63,-1
 136 416 l 1,38,39
264 416 m 1,64,65
 249 414 249 414 248 400 c 1,66,-1
 248 368 l 1,67,68
 250 353 250 353 264 352 c 1,69,70
 279 354 279 354 280 368 c 1,71,-1
 280 384 l 1,72,-1
 344 384 l 1,73,74
 359 386 359 386 360 400 c 1,75,-1
 360 464 l 1,76,77
 358 479 358 479 344 480 c 1,78,-1
 304 480 l 1,79,-1
 304 496 l 1,80,81
 302 511 302 511 288 512 c 1,82,83
 273 510 273 510 272 496 c 1,84,-1
 272 464 l 1,85,86
 274 449 274 449 288 448 c 1,87,-1
 328 448 l 1,88,-1
 328 416 l 1,89,-1
 264 416 l 1,64,65
EndSplineSet
EndChar

StartChar: uniE00D
Encoding: 57357 57357 16
Width: 512
Flags: W
LayerCount: 2
Fore
SplineSet
256 512 m 0,0,1
 150 511 150 511 75 437 c 1,2,3
 0 361 0 361 0 256 c 0,4,5
 1 150 1 150 75 75 c 1,6,7
 151 0 151 0 256 0 c 0,8,9
 362 1 362 1 437 75 c 1,10,11
 512 151 512 151 512 256 c 0,12,13
 511 362 511 362 437 437 c 1,14,15
 361 512 361 512 256 512 c 0,0,1
414 98 m 1,16,17
 349 32 349 32 256 32 c 0,18,19
 162 33 162 33 98 98 c 1,20,21
 32 162 32 162 32 256 c 0,22,23
 33 350 33 350 98 414 c 1,24,25
 163 480 163 480 256 480 c 0,26,27
 350 479 350 479 414 414 c 1,28,29
 480 350 480 350 480 256 c 0,30,31
 479 162 479 162 414 98 c 1,16,17
335 262 m 1,32,-1
 271 422 l 1,33,34
 265 431 265 431 256 432 c 1,35,36
 246 431 246 431 241 422 c 1,37,-1
 177 262 l 1,38,39
 176 256 176 256 177 250 c 1,40,-1
 241 90 l 1,41,42
 247 81 247 81 256 80 c 1,43,44
 266 81 266 81 271 90 c 1,45,-1
 335 250 l 1,46,47
 336 256 336 256 335 262 c 1,32,-1
256 373 m 1,48,-1
 296 272 l 1,49,-1
 216 272 l 1,50,-1
 256 373 l 1,48,-1
256 139 m 1,51,-1
 216 240 l 1,52,-1
 296 240 l 1,53,-1
 256 139 l 1,51,-1
EndSplineSet
EndChar

StartChar: uniE00E
Encoding: 57358 57358 17
Width: 512
Flags: W
LayerCount: 2
Fore
SplineSet
137 320 m 1,0,-1
 96 320 l 1,1,2
 81 318 81 318 80 304 c 1,3,4
 82 289 82 289 96 288 c 1,5,-1
 192 288 l 1,6,-1
 192 384 l 1,7,8
 190 399 190 399 176 400 c 1,9,10
 161 398 161 398 160 384 c 1,11,-1
 160 343 l 1,12,-1
 27 475 l 2,13,14
 16 486 16 486 5 475 c 128,-1,15
 -6 464 -6 464 5 453 c 2,16,-1
 137 320 l 1,0,-1
375 192 m 1,17,-1
 416 192 l 1,18,19
 431 194 431 194 432 208 c 1,20,21
 430 223 430 223 416 224 c 1,22,-1
 320 224 l 1,23,-1
 320 128 l 1,24,25
 322 113 322 113 336 112 c 1,26,27
 351 114 351 114 352 128 c 1,28,-1
 352 169 l 1,29,-1
 485 37 l 2,30,31
 491 32 491 32 496 32 c 0,32,33
 502 33 502 33 507 37 c 0,34,35
 518 48 518 48 507 59 c 2,36,-1
 375 192 l 1,17,-1
16 32 m 0,37,38
 22 33 22 33 27 37 c 2,39,-1
 160 169 l 1,40,-1
 160 128 l 1,41,42
 162 113 162 113 176 112 c 1,43,44
 191 114 191 114 192 128 c 1,45,-1
 192 224 l 1,46,-1
 96 224 l 1,47,48
 81 222 81 222 80 208 c 1,49,50
 82 193 82 193 96 192 c 1,51,-1
 137 192 l 1,52,-1
 5 59 l 2,53,54
 -6 48 -6 48 5 37 c 0,55,56
 11 32 11 32 16 32 c 0,37,38
485 475 m 2,57,-1
 352 343 l 1,58,-1
 352 384 l 1,59,60
 350 399 350 399 336 400 c 1,61,62
 321 398 321 398 320 384 c 1,63,-1
 320 288 l 1,64,-1
 416 288 l 1,65,66
 431 290 431 290 432 304 c 1,67,68
 430 319 430 319 416 320 c 1,69,-1
 375 320 l 1,70,-1
 507 453 l 2,71,72
 518 464 518 464 507 475 c 128,-1,73
 496 486 496 486 485 475 c 2,57,-1
EndSplineSet
EndChar

StartChar: uniE00F
Encoding: 57359 57359 18
Width: 512
Flags: W
LayerCount: 2
Fore
SplineSet
64 512 m 1,0,1
 49 510 49 510 48 496 c 1,2,-1
 48 368 l 1,3,4
 49 357 49 357 59 353 c 2,5,-1
 96 340 l 1,6,-1
 96 16 l 1,7,8
 98 1 98 1 112 0 c 1,9,10
 127 2 127 2 128 16 c 1,11,-1
 128 340 l 1,12,-1
 165 353 l 2,13,14
 175 357 175 357 176 368 c 1,15,-1
 176 496 l 1,16,17
 174 511 174 511 160 512 c 1,18,19
 145 510 145 510 144 496 c 1,20,-1
 144 380 l 1,21,-1
 128 374 l 1,22,-1
 128 496 l 1,23,24
 126 511 126 511 112 512 c 1,25,26
 97 510 97 510 96 496 c 1,27,-1
 96 374 l 1,28,-1
 80 380 l 1,29,-1
 80 496 l 1,30,31
 78 511 78 511 64 512 c 1,0,1
272 0 m 1,32,33
 287 2 287 2 288 16 c 1,34,-1
 288 216 l 1,35,-1
 288 496 l 1,36,37
 286 511 286 511 272 512 c 1,38,-1
 240 512 l 1,39,40
 227 511 227 511 224 498 c 1,41,-1
 192 234 l 1,42,43
 192 220 192 220 204 216 c 1,44,-1
 256 204 l 1,45,-1
 256 16 l 1,46,47
 258 1 258 1 272 0 c 1,32,33
226 244 m 1,48,-1
 254 480 l 1,49,-1
 256 480 l 1,50,-1
 256 236 l 1,51,-1
 226 244 l 1,48,-1
392 0 m 1,52,53
 407 2 407 2 408 16 c 1,54,-1
 408 322 l 1,55,56
 444 332 444 332 459 372 c 0,57,58
 464 387 464 387 464 400 c 0,59,60
 464 441 464 441 438 481 c 1,61,62
 417 511 417 511 392 512 c 1,63,64
 355 512 355 512 331 452 c 0,65,66
 320 422 320 422 320 400 c 0,67,68
 320 358 320 358 354 333 c 0,69,70
 365 325 365 325 376 322 c 1,71,-1
 376 16 l 1,72,73
 378 1 378 1 392 0 c 1,52,53
352 400 m 0,74,75
 352 436 352 436 377 468 c 0,76,77
 386 480 386 480 392 480 c 0,78,79
 405 480 405 480 421 444 c 0,80,81
 432 419 432 419 432 400 c 0,82,83
 432 373 432 373 410 358 c 0,84,85
 401 352 401 352 392 352 c 0,86,87
 368 352 368 352 356 380 c 0,88,89
 352 391 352 391 352 400 c 0,74,75
EndSplineSet
EndChar

StartChar: uniE010
Encoding: 57360 57360 19
Width: 512
Flags: W
LayerCount: 2
Fore
SplineSet
141 141 m 0,0,1
 147 136 147 136 152 136 c 0,2,3
 158 137 158 137 163 141 c 2,4,-1
 256 233 l 1,5,-1
 349 141 l 2,6,7
 355 136 355 136 360 136 c 0,8,9
 366 137 366 137 371 141 c 0,10,11
 382 152 382 152 371 163 c 2,12,-1
 279 256 l 1,13,-1
 371 349 l 2,14,15
 382 360 382 360 371 371 c 128,-1,16
 360 382 360 382 349 371 c 2,17,-1
 256 279 l 1,18,-1
 163 371 l 2,19,20
 152 382 152 382 141 371 c 128,-1,21
 130 360 130 360 141 349 c 2,22,-1
 233 256 l 1,23,-1
 141 163 l 2,24,25
 130 152 130 152 141 141 c 0,0,1
256 0 m 0,26,27
 362 1 362 1 437 75 c 1,28,29
 512 151 512 151 512 256 c 0,30,31
 511 362 511 362 437 437 c 1,32,33
 361 512 361 512 256 512 c 0,34,35
 150 511 150 511 75 437 c 1,36,37
 0 361 0 361 0 256 c 0,38,39
 1 150 1 150 75 75 c 1,40,41
 151 0 151 0 256 0 c 0,26,27
98 414 m 1,42,43
 163 480 163 480 256 480 c 0,44,45
 350 479 350 479 414 414 c 1,46,47
 480 350 480 350 480 256 c 0,48,49
 479 162 479 162 414 98 c 1,50,51
 349 32 349 32 256 32 c 0,52,53
 162 33 162 33 98 98 c 1,54,55
 32 162 32 162 32 256 c 0,56,57
 33 350 33 350 98 414 c 1,42,43
EndSplineSet
EndChar

StartChar: uniE011
Encoding: 57361 57361 20
Width: 512
Flags: W
LayerCount: 2
Fore
SplineSet
0 96 m 1,0,1
 2 81 2 81 16 80 c 1,2,-1
 496 80 l 1,3,4
 511 82 511 82 512 96 c 1,5,-1
 512 384 l 1,6,7
 510 399 510 399 496 400 c 1,8,-1
 247 400 l 1,9,-1
 187 459 l 2,10,11
 181 464 181 464 176 464 c 2,12,-1
 16 464 l 1,13,14
 1 462 1 462 0 448 c 1,15,-1
 0 96 l 1,0,1
32 432 m 1,16,-1
 169 432 l 1,17,-1
 229 373 l 2,18,19
 235 368 235 368 240 368 c 2,20,-1
 480 368 l 1,21,-1
 480 112 l 1,22,-1
 32 112 l 1,23,-1
 32 432 l 1,16,-1
331 315 m 128,-1,25
 320 326 320 326 309 315 c 2,26,-1
 256 263 l 1,27,-1
 203 315 l 2,28,29
 192 326 192 326 181 315 c 128,-1,30
 170 304 170 304 181 293 c 2,31,-1
 233 240 l 1,32,-1
 181 187 l 2,33,34
 170 176 170 176 181 165 c 0,35,36
 187 160 187 160 192 160 c 0,37,38
 198 161 198 161 203 165 c 2,39,-1
 256 217 l 1,40,-1
 309 165 l 2,41,42
 315 160 315 160 320 160 c 0,43,44
 326 161 326 161 331 165 c 0,45,46
 342 176 342 176 331 187 c 2,47,-1
 279 240 l 1,48,-1
 331 293 l 2,49,24
 342 304 342 304 331 315 c 128,-1,25
EndSplineSet
EndChar

StartChar: uniE012
Encoding: 57362 57362 21
Width: 512
Flags: W
LayerCount: 2
Fore
SplineSet
16 120 m 1,0,-1
 128 120 l 1,1,-1
 128 40 l 1,2,3
 129 31 129 31 137 25 c 1,4,5
 140 24 140 24 144 24 c 0,6,7
 150 25 150 25 154 28 c 2,8,-1
 262 120 l 1,9,-1
 496 120 l 1,10,11
 511 122 511 122 512 136 c 1,12,-1
 512 472 l 1,13,14
 510 487 510 487 496 488 c 1,15,-1
 16 488 l 1,16,17
 1 486 1 486 0 472 c 1,18,-1
 0 136 l 1,19,20
 2 121 2 121 16 120 c 1,0,-1
32 456 m 1,21,-1
 480 456 l 1,22,-1
 480 152 l 1,23,-1
 256 152 l 1,24,25
 249 151 249 151 246 148 c 2,26,-1
 160 75 l 1,27,-1
 160 136 l 1,28,29
 158 151 158 151 144 152 c 1,30,-1
 32 152 l 1,31,-1
 32 456 l 1,21,-1
184 288 m 1,32,-1
 240 288 l 1,33,-1
 240 232 l 1,34,35
 242 217 242 217 256 216 c 1,36,37
 271 218 271 218 272 232 c 1,38,-1
 272 288 l 1,39,-1
 328 288 l 1,40,41
 343 290 343 290 344 304 c 1,42,43
 342 319 342 319 328 320 c 1,44,-1
 272 320 l 1,45,-1
 272 376 l 1,46,47
 270 391 270 391 256 392 c 1,48,49
 241 390 241 390 240 376 c 1,50,-1
 240 320 l 1,51,-1
 184 320 l 1,52,53
 169 318 169 318 168 304 c 1,54,55
 170 289 170 289 184 288 c 1,32,-1
EndSplineSet
EndChar

StartChar: uniE013
Encoding: 57363 57363 22
Width: 512
Flags: W
LayerCount: 2
Fore
SplineSet
496 488 m 1,0,-1
 16 488 l 1,1,2
 1 486 1 486 0 472 c 1,3,-1
 0 136 l 1,4,5
 2 121 2 121 16 120 c 1,6,-1
 128 120 l 1,7,-1
 128 40 l 1,8,9
 129 31 129 31 137 25 c 1,10,11
 140 24 140 24 144 24 c 0,12,13
 150 25 150 25 154 28 c 2,14,-1
 262 120 l 1,15,-1
 496 120 l 1,16,17
 511 122 511 122 512 136 c 1,18,-1
 512 472 l 1,19,20
 510 487 510 487 496 488 c 1,0,-1
480 152 m 1,21,-1
 256 152 l 1,22,23
 249 151 249 151 246 148 c 2,24,-1
 160 75 l 1,25,-1
 160 136 l 1,26,27
 158 151 158 151 144 152 c 1,28,-1
 32 152 l 1,29,-1
 32 456 l 1,30,-1
 480 456 l 1,31,-1
 480 152 l 1,21,-1
189 237 m 0,32,33
 195 232 195 232 200 232 c 0,34,35
 206 233 206 233 211 237 c 2,36,-1
 256 281 l 1,37,-1
 301 237 l 2,38,39
 307 232 307 232 312 232 c 0,40,41
 318 233 318 233 323 237 c 0,42,43
 334 248 334 248 323 259 c 2,44,-1
 279 304 l 1,45,-1
 323 349 l 2,46,47
 334 360 334 360 323 371 c 128,-1,48
 312 382 312 382 301 371 c 2,49,-1
 256 327 l 1,50,-1
 211 371 l 2,51,52
 200 382 200 382 189 371 c 128,-1,53
 178 360 178 360 189 349 c 2,54,-1
 233 304 l 1,55,-1
 189 259 l 2,56,57
 178 248 178 248 189 237 c 0,32,33
EndSplineSet
EndChar

StartChar: uniE014
Encoding: 57364 57364 23
Width: 512
Flags: W
LayerCount: 2
Fore
SplineSet
256 208 m 0,0,1
 291 208 291 208 311 241 c 0,2,3
 320 257 320 257 320 272 c 1,4,5
 318 287 318 287 304 288 c 1,6,7
 289 286 289 286 288 272 c 1,8,9
 288 254 288 254 269 244 c 0,10,11
 262 240 262 240 256 240 c 0,12,13
 238 240 238 240 228 259 c 0,14,15
 224 266 224 266 224 272 c 0,16,17
 222 287 222 287 208 288 c 1,18,19
 193 286 193 286 192 272 c 1,20,21
 192 237 192 237 225 217 c 0,22,23
 241 208 241 208 256 208 c 0,0,1
176 336 m 0,24,25
 182 337 182 337 187 341 c 1,26,27
 192 347 192 347 192 352 c 0,28,29
 191 358 191 358 187 363 c 1,30,31
 176 372 176 372 165 363 c 1,32,33
 160 357 160 357 160 352 c 0,34,35
 161 346 161 346 165 341 c 1,36,37
 171 336 171 336 176 336 c 0,24,25
336 336 m 0,38,39
 342 337 342 337 347 341 c 1,40,41
 352 347 352 347 352 352 c 0,42,43
 351 358 351 358 347 363 c 1,44,45
 336 372 336 372 325 363 c 1,46,47
 320 357 320 357 320 352 c 0,48,49
 321 346 321 346 325 341 c 1,50,51
 331 336 331 336 336 336 c 0,38,39
0 136 m 1,52,53
 2 121 2 121 16 120 c 1,54,-1
 128 120 l 1,55,-1
 128 40 l 1,56,57
 129 31 129 31 137 25 c 1,58,59
 140 24 140 24 144 24 c 0,60,61
 150 25 150 25 154 28 c 2,62,-1
 262 120 l 1,63,-1
 496 120 l 1,64,65
 511 122 511 122 512 136 c 1,66,-1
 512 472 l 1,67,68
 510 487 510 487 496 488 c 1,69,-1
 16 488 l 1,70,71
 1 486 1 486 0 472 c 1,72,-1
 0 136 l 1,52,53
32 456 m 1,73,-1
 480 456 l 1,74,-1
 480 152 l 1,75,-1
 256 152 l 1,76,77
 249 151 249 151 246 148 c 2,78,-1
 160 75 l 1,79,-1
 160 136 l 1,80,81
 158 151 158 151 144 152 c 1,82,-1
 32 152 l 1,83,-1
 32 456 l 1,73,-1
EndSplineSet
EndChar

StartChar: uniE015
Encoding: 57365 57365 24
Width: 512
Flags: W
LayerCount: 2
Fore
SplineSet
208 208 m 1,0,1
 223 210 223 210 224 224 c 1,2,3
 224 242 224 242 243 252 c 0,4,5
 250 256 250 256 256 256 c 0,6,7
 274 256 274 256 284 237 c 0,8,9
 288 230 288 230 288 224 c 0,10,11
 290 209 290 209 304 208 c 1,12,13
 319 210 319 210 320 224 c 1,14,15
 320 259 320 259 287 279 c 0,16,17
 271 288 271 288 256 288 c 0,18,19
 221 288 221 288 201 255 c 0,20,21
 192 239 192 239 192 224 c 1,22,23
 194 209 194 209 208 208 c 1,0,1
176 336 m 0,24,25
 182 337 182 337 187 341 c 1,26,27
 192 347 192 347 192 352 c 0,28,29
 191 358 191 358 187 363 c 1,30,31
 176 372 176 372 165 363 c 1,32,33
 160 357 160 357 160 352 c 0,34,35
 161 346 161 346 165 341 c 1,36,37
 171 336 171 336 176 336 c 0,24,25
336 336 m 0,38,39
 342 337 342 337 347 341 c 1,40,41
 352 347 352 347 352 352 c 0,42,43
 351 358 351 358 347 363 c 1,44,45
 336 372 336 372 325 363 c 1,46,47
 320 357 320 357 320 352 c 0,48,49
 321 346 321 346 325 341 c 1,50,51
 331 336 331 336 336 336 c 0,38,39
0 136 m 1,52,53
 2 121 2 121 16 120 c 1,54,-1
 128 120 l 1,55,-1
 128 40 l 1,56,57
 129 31 129 31 137 25 c 1,58,59
 140 24 140 24 144 24 c 0,60,61
 150 25 150 25 154 28 c 2,62,-1
 262 120 l 1,63,-1
 496 120 l 1,64,65
 511 122 511 122 512 136 c 1,66,-1
 512 472 l 1,67,68
 510 487 510 487 496 488 c 1,69,-1
 16 488 l 1,70,71
 1 486 1 486 0 472 c 1,72,-1
 0 136 l 1,52,53
32 456 m 1,73,-1
 480 456 l 1,74,-1
 480 152 l 1,75,-1
 256 152 l 1,76,77
 249 151 249 151 246 148 c 2,78,-1
 160 75 l 1,79,-1
 160 136 l 1,80,81
 158 151 158 151 144 152 c 1,82,-1
 32 152 l 1,83,-1
 32 456 l 1,73,-1
EndSplineSet
EndChar

StartChar: uniE016
Encoding: 57366 57366 25
Width: 512
Flags: W
LayerCount: 2
Fore
SplineSet
80 368 m 1,0,-1
 432 368 l 1,1,2
 447 370 447 370 448 384 c 1,3,4
 446 399 446 399 432 400 c 1,5,-1
 80 400 l 1,6,7
 65 398 65 398 64 384 c 1,8,9
 66 369 66 369 80 368 c 1,0,-1
80 288 m 1,10,-1
 432 288 l 1,11,12
 447 290 447 290 448 304 c 1,13,14
 446 319 446 319 432 320 c 1,15,-1
 80 320 l 1,16,17
 65 318 65 318 64 304 c 1,18,19
 66 289 66 289 80 288 c 1,10,-1
448 224 m 1,20,21
 446 239 446 239 432 240 c 1,22,-1
 80 240 l 1,23,24
 65 238 65 238 64 224 c 1,25,26
 66 209 66 209 80 208 c 1,27,-1
 432 208 l 1,28,29
 447 210 447 210 448 224 c 1,20,21
0 136 m 1,30,31
 2 121 2 121 16 120 c 1,32,-1
 128 120 l 1,33,-1
 128 40 l 1,34,35
 129 31 129 31 137 25 c 1,36,37
 140 24 140 24 144 24 c 0,38,39
 150 25 150 25 154 28 c 2,40,-1
 262 120 l 1,41,-1
 496 120 l 1,42,43
 511 122 511 122 512 136 c 1,44,-1
 512 472 l 1,45,46
 510 487 510 487 496 488 c 1,47,-1
 16 488 l 1,48,49
 1 486 1 486 0 472 c 1,50,-1
 0 136 l 1,30,31
32 456 m 1,51,-1
 480 456 l 1,52,-1
 480 152 l 1,53,-1
 256 152 l 1,54,55
 249 151 249 151 246 148 c 2,56,-1
 160 75 l 1,57,-1
 160 136 l 1,58,59
 158 151 158 151 144 152 c 1,60,-1
 32 152 l 1,61,-1
 32 456 l 1,51,-1
EndSplineSet
EndChar

StartChar: uniE017
Encoding: 57367 57367 26
Width: 512
Flags: W
LayerCount: 2
Fore
SplineSet
256 256 m 0,0,1
 286 256 286 256 300 284 c 0,2,3
 304 294 304 294 304 304 c 0,4,5
 304 334 304 334 276 348 c 0,6,7
 266 352 266 352 256 352 c 0,8,9
 226 352 226 352 212 324 c 0,10,11
 208 314 208 314 208 304 c 0,12,13
 208 274 208 274 236 260 c 0,14,15
 246 256 246 256 256 256 c 0,0,1
256 320 m 1,16,17
 271 318 271 318 272 304 c 1,18,19
 270 289 270 289 256 288 c 1,20,21
 241 290 241 290 240 304 c 1,22,23
 242 319 242 319 256 320 c 1,16,17
128 256 m 0,24,25
 158 256 158 256 172 284 c 0,26,27
 176 294 176 294 176 304 c 0,28,29
 176 334 176 334 148 348 c 0,30,31
 138 352 138 352 128 352 c 0,32,33
 98 352 98 352 84 324 c 0,34,35
 80 314 80 314 80 304 c 0,36,37
 80 274 80 274 108 260 c 0,38,39
 118 256 118 256 128 256 c 0,24,25
128 320 m 1,40,41
 143 318 143 318 144 304 c 1,42,43
 142 289 142 289 128 288 c 1,44,45
 113 290 113 290 112 304 c 1,46,47
 114 319 114 319 128 320 c 1,40,41
384 256 m 0,48,49
 414 256 414 256 428 284 c 0,50,51
 432 294 432 294 432 304 c 0,52,53
 432 334 432 334 404 348 c 0,54,55
 394 352 394 352 384 352 c 0,56,57
 354 352 354 352 340 324 c 0,58,59
 336 314 336 314 336 304 c 0,60,61
 336 274 336 274 364 260 c 0,62,63
 374 256 374 256 384 256 c 0,48,49
384 320 m 1,64,65
 399 318 399 318 400 304 c 1,66,67
 398 289 398 289 384 288 c 1,68,69
 369 290 369 290 368 304 c 1,70,71
 370 319 370 319 384 320 c 1,64,65
496 488 m 1,72,-1
 16 488 l 1,73,74
 1 486 1 486 0 472 c 1,75,-1
 0 136 l 1,76,77
 2 121 2 121 16 120 c 1,78,-1
 128 120 l 1,79,-1
 128 40 l 1,80,81
 129 31 129 31 137 25 c 1,82,83
 140 24 140 24 144 24 c 0,84,85
 150 25 150 25 154 28 c 2,86,-1
 262 120 l 1,87,-1
 496 120 l 1,88,89
 511 122 511 122 512 136 c 1,90,-1
 512 472 l 1,91,92
 510 487 510 487 496 488 c 1,72,-1
480 152 m 1,93,-1
 256 152 l 1,94,95
 249 151 249 151 246 148 c 2,96,-1
 160 75 l 1,97,-1
 160 136 l 1,98,99
 158 151 158 151 144 152 c 1,100,-1
 32 152 l 1,101,-1
 32 456 l 1,102,-1
 480 456 l 1,103,-1
 480 152 l 1,93,-1
EndSplineSet
EndChar

StartChar: uniE018
Encoding: 57368 57368 27
Width: 512
Flags: W
LayerCount: 2
Fore
SplineSet
380 458 m 2,0,1
 376 464 376 464 368 464 c 2,2,-1
 144 464 l 2,3,4
 136 464 136 464 132 458 c 2,5,-1
 4 298 l 2,6,7
 -5 287 -5 287 5 277 c 2,8,-1
 245 37 l 2,9,10
 251 32 251 32 256 32 c 0,11,12
 262 33 262 33 267 37 c 2,13,-1
 507 277 l 2,14,15
 517 287 517 287 508 298 c 2,16,-1
 380 458 l 2,0,1
463 304 m 1,17,-1
 380 304 l 1,18,-1
 342 432 l 1,19,-1
 360 432 l 1,20,-1
 463 304 l 1,17,-1
134 272 m 1,21,-1
 220 107 l 1,22,-1
 55 272 l 1,23,-1
 134 272 l 1,21,-1
170 272 m 1,24,-1
 240 272 l 1,25,-1
 240 138 l 1,26,-1
 170 272 l 1,24,-1
272 272 m 1,27,-1
 342 272 l 1,28,-1
 272 138 l 1,29,-1
 272 272 l 1,27,-1
378 272 m 1,30,-1
 457 272 l 1,31,-1
 292 107 l 1,32,-1
 378 272 l 1,30,-1
308 432 m 1,33,-1
 346 304 l 1,34,-1
 272 304 l 1,35,-1
 272 432 l 1,36,-1
 308 432 l 1,33,-1
240 304 m 1,37,-1
 166 304 l 1,38,-1
 204 432 l 1,39,-1
 240 432 l 1,40,-1
 240 304 l 1,37,-1
152 432 m 1,41,-1
 170 432 l 1,42,-1
 132 304 l 1,43,-1
 49 304 l 1,44,-1
 152 432 l 1,41,-1
EndSplineSet
EndChar

StartChar: uniE019
Encoding: 57369 57369 28
Width: 512
Flags: W
LayerCount: 2
Fore
SplineSet
496 512 m 1,0,1
 481 510 481 510 480 496 c 1,2,-1
 480 380 l 1,3,-1
 464 374 l 1,4,-1
 464 496 l 1,5,6
 462 511 462 511 448 512 c 1,7,8
 433 510 433 510 432 496 c 1,9,-1
 432 374 l 1,10,-1
 416 380 l 1,11,-1
 416 496 l 1,12,13
 414 511 414 511 400 512 c 1,14,15
 385 510 385 510 384 496 c 1,16,-1
 384 368 l 1,17,18
 385 357 385 357 395 353 c 2,19,-1
 432 340 l 1,20,-1
 432 16 l 1,21,22
 434 1 434 1 448 0 c 1,23,24
 463 2 463 2 464 16 c 1,25,-1
 464 340 l 1,26,-1
 501 353 l 2,27,28
 511 357 511 357 512 368 c 1,29,-1
 512 496 l 1,30,31
 510 511 510 511 496 512 c 1,0,1
400 232 m 0,32,33
 400 324 400 324 330 384 c 0,34,35
 273 432 273 432 200 432 c 0,36,37
 108 432 108 432 48 362 c 0,38,39
 0 305 0 305 0 232 c 0,40,41
 0 140 0 140 70 80 c 0,42,43
 127 32 127 32 200 32 c 0,44,45
 292 32 292 32 352 102 c 0,46,47
 400 159 400 159 400 232 c 0,32,33
32 232 m 0,48,49
 32 314 32 314 96 364 c 0,50,51
 142 400 142 400 200 400 c 0,52,53
 282 400 282 400 332 336 c 0,54,55
 368 290 368 290 368 232 c 0,56,57
 368 150 368 150 304 100 c 0,58,59
 258 64 258 64 200 64 c 0,60,61
 118 64 118 64 68 128 c 0,62,63
 32 174 32 174 32 232 c 0,48,49
336 232 m 0,64,65
 336 301 336 301 280 342 c 0,66,67
 243 368 243 368 200 368 c 0,68,69
 131 368 131 368 90 312 c 0,70,71
 64 275 64 275 64 232 c 0,72,73
 64 163 64 163 120 122 c 0,74,75
 157 96 157 96 200 96 c 0,76,77
 269 96 269 96 310 152 c 0,78,79
 336 189 336 189 336 232 c 0,64,65
96 232 m 0,80,81
 96 288 96 288 143 319 c 0,82,83
 170 336 170 336 200 336 c 0,84,85
 256 336 256 336 287 289 c 0,86,87
 304 262 304 262 304 232 c 0,88,89
 304 176 304 176 257 145 c 0,90,91
 230 128 230 128 200 128 c 0,92,93
 144 128 144 128 113 175 c 0,94,95
 96 202 96 202 96 232 c 0,80,81
EndSplineSet
EndChar

StartChar: uniE01A
Encoding: 57370 57370 29
Width: 512
Flags: W
LayerCount: 2
Fore
SplineSet
200 32 m 0,0,1
 292 32 292 32 352 102 c 0,2,3
 400 159 400 159 400 232 c 0,4,5
 400 324 400 324 330 384 c 0,6,7
 273 432 273 432 200 432 c 0,8,9
 108 432 108 432 48 362 c 0,10,11
 0 305 0 305 0 232 c 0,12,13
 0 140 0 140 70 80 c 0,14,15
 127 32 127 32 200 32 c 0,0,1
200 400 m 0,16,17
 282 400 282 400 332 336 c 0,18,19
 368 290 368 290 368 232 c 0,20,21
 368 150 368 150 304 100 c 0,22,23
 258 64 258 64 200 64 c 0,24,25
 118 64 118 64 68 128 c 0,26,27
 32 174 32 174 32 232 c 0,28,29
 32 314 32 314 96 364 c 0,30,31
 142 400 142 400 200 400 c 0,16,17
200 96 m 0,32,33
 269 96 269 96 310 152 c 0,34,35
 336 189 336 189 336 232 c 0,36,37
 336 301 336 301 280 342 c 0,38,39
 243 368 243 368 200 368 c 0,40,41
 131 368 131 368 90 312 c 0,42,43
 64 275 64 275 64 232 c 0,44,45
 64 163 64 163 120 122 c 0,46,47
 157 96 157 96 200 96 c 0,32,33
200 336 m 0,48,49
 256 336 256 336 287 289 c 0,50,51
 304 262 304 262 304 232 c 0,52,53
 304 176 304 176 257 145 c 0,54,55
 230 128 230 128 200 128 c 0,56,57
 144 128 144 128 113 175 c 0,58,59
 96 202 96 202 96 232 c 0,60,61
 96 288 96 288 143 319 c 0,62,63
 170 336 170 336 200 336 c 0,48,49
440 0 m 1,64,65
 455 2 455 2 456 16 c 1,66,-1
 456 322 l 1,67,68
 492 332 492 332 507 372 c 0,69,70
 512 387 512 387 512 400 c 0,71,72
 512 441 512 441 486 481 c 1,73,74
 465 511 465 511 440 512 c 1,75,76
 403 512 403 512 379 452 c 0,77,78
 368 422 368 422 368 400 c 0,79,80
 368 358 368 358 402 333 c 0,81,82
 413 325 413 325 424 322 c 1,83,-1
 424 16 l 1,84,85
 426 1 426 1 440 0 c 1,64,65
400 400 m 0,86,87
 400 436 400 436 425 468 c 0,88,89
 434 480 434 480 440 480 c 0,90,91
 453 480 453 480 469 444 c 0,92,93
 480 419 480 419 480 400 c 0,94,95
 480 373 480 373 458 358 c 0,96,97
 449 352 449 352 440 352 c 0,98,99
 416 352 416 352 404 380 c 0,100,101
 400 391 400 391 400 400 c 0,86,87
EndSplineSet
EndChar

StartChar: uniE01B
Encoding: 57371 57371 30
Width: 512
Flags: W
LayerCount: 2
Fore
SplineSet
256 320 m 1,0,1
 241 318 241 318 240 304 c 1,2,-1
 240 87 l 1,3,-1
 203 123 l 2,4,5
 192 134 192 134 181 123 c 128,-1,6
 170 112 170 112 181 101 c 2,7,-1
 245 37 l 2,8,9
 251 32 251 32 256 32 c 0,10,11
 262 33 262 33 267 37 c 2,12,-1
 331 101 l 2,13,14
 342 112 342 112 331 123 c 128,-1,15
 320 134 320 134 309 123 c 2,16,-1
 272 87 l 1,17,-1
 272 304 l 1,18,19
 269 317 269 317 256 320 c 1,0,1
496 480 m 1,20,-1
 16 480 l 1,21,22
 1 478 1 478 0 464 c 1,23,-1
 0 176 l 1,24,25
 2 161 2 161 16 160 c 1,26,-1
 192 160 l 1,27,28
 207 162 207 162 208 176 c 1,29,30
 206 191 206 191 192 192 c 1,31,-1
 32 192 l 1,32,-1
 32 448 l 1,33,-1
 480 448 l 1,34,-1
 480 192 l 1,35,-1
 320 192 l 1,36,37
 305 190 305 190 304 176 c 1,38,39
 306 161 306 161 320 160 c 1,40,-1
 496 160 l 1,41,42
 511 162 511 162 512 176 c 1,43,-1
 512 464 l 1,44,45
 510 479 510 479 496 480 c 1,20,-1
EndSplineSet
EndChar

StartChar: uniE01C
Encoding: 57372 57372 31
Width: 512
Flags: W
LayerCount: 2
Fore
SplineSet
0 144 m 1,0,1
 2 129 2 129 16 128 c 1,2,-1
 192 128 l 1,3,4
 207 130 207 130 208 144 c 1,5,6
 206 159 206 159 192 160 c 1,7,-1
 32 160 l 1,8,-1
 32 480 l 1,9,-1
 169 480 l 1,10,-1
 229 421 l 2,11,12
 235 416 235 416 240 416 c 2,13,-1
 480 416 l 1,14,-1
 480 160 l 1,15,-1
 320 160 l 1,16,17
 305 158 305 158 304 144 c 1,18,19
 306 129 306 129 320 128 c 1,20,-1
 496 128 l 1,21,22
 511 130 511 130 512 144 c 1,23,-1
 512 432 l 1,24,25
 510 447 510 447 496 448 c 1,26,-1
 247 448 l 1,27,-1
 187 507 l 2,28,29
 181 512 181 512 176 512 c 2,30,-1
 16 512 l 1,31,32
 1 510 1 510 0 496 c 1,33,-1
 0 144 l 1,0,1
256 288 m 1,34,35
 241 286 241 286 240 272 c 1,36,-1
 240 55 l 1,37,-1
 203 91 l 2,38,39
 192 102 192 102 181 91 c 128,-1,40
 170 80 170 80 181 69 c 2,41,-1
 245 5 l 2,42,43
 251 0 251 0 256 0 c 0,44,45
 262 1 262 1 267 5 c 2,46,-1
 331 69 l 2,47,48
 342 80 342 80 331 91 c 128,-1,49
 320 102 320 102 309 91 c 2,50,-1
 272 55 l 1,51,-1
 272 272 l 1,52,53
 270 287 270 287 256 288 c 1,34,35
EndSplineSet
EndChar

StartChar: uniE01D
Encoding: 57373 57373 32
Width: 512
Flags: W
LayerCount: 2
Fore
SplineSet
16 320 m 1,0,1
 31 322 31 322 32 336 c 1,2,-1
 32 425 l 1,3,-1
 173 285 l 2,4,5
 179 280 179 280 184 280 c 0,6,7
 190 281 190 281 195 285 c 0,8,9
 206 296 206 296 195 307 c 2,10,-1
 55 448 l 1,11,-1
 144 448 l 1,12,13
 159 450 159 450 160 464 c 1,14,15
 158 479 158 479 144 480 c 1,16,-1
 16 480 l 1,17,18
 1 478 1 478 0 464 c 1,19,-1
 0 336 l 1,20,21
 2 321 2 321 16 320 c 1,0,1
16 32 m 1,22,-1
 144 32 l 1,23,24
 159 34 159 34 160 48 c 1,25,26
 158 63 158 63 144 64 c 1,27,-1
 55 64 l 1,28,-1
 195 205 l 2,29,30
 206 216 206 216 195 227 c 128,-1,31
 184 238 184 238 173 227 c 2,32,-1
 32 87 l 1,33,-1
 32 176 l 1,34,35
 30 191 30 191 16 192 c 1,36,37
 1 190 1 190 0 176 c 1,38,-1
 0 48 l 1,39,40
 2 33 2 33 16 32 c 1,22,-1
496 192 m 1,41,42
 481 190 481 190 480 176 c 1,43,-1
 480 87 l 1,44,-1
 339 227 l 2,45,46
 328 238 328 238 317 227 c 128,-1,47
 306 216 306 216 317 205 c 2,48,-1
 457 64 l 1,49,-1
 368 64 l 1,50,51
 353 62 353 62 352 48 c 1,52,53
 354 33 354 33 368 32 c 1,54,-1
 496 32 l 1,55,56
 511 34 511 34 512 48 c 1,57,-1
 512 176 l 1,58,59
 510 191 510 191 496 192 c 1,41,42
496 480 m 1,60,-1
 368 480 l 1,61,62
 353 478 353 478 352 464 c 1,63,64
 354 449 354 449 368 448 c 1,65,-1
 457 448 l 1,66,-1
 317 307 l 2,67,68
 306 296 306 296 317 285 c 0,69,70
 323 280 323 280 328 280 c 0,71,72
 334 281 334 281 339 285 c 2,73,-1
 480 425 l 1,74,-1
 480 336 l 1,75,76
 482 321 482 321 496 320 c 1,77,78
 511 322 511 322 512 336 c 1,79,-1
 512 464 l 1,80,81
 510 479 510 479 496 480 c 1,60,-1
EndSplineSet
EndChar

StartChar: uniE01E
Encoding: 57374 57374 33
Width: 512
Flags: W
LayerCount: 2
Fore
SplineSet
256 392 m 0,0,1
 120 392 120 392 26 293 c 0,2,3
 10 276 10 276 3 265 c 1,4,5
 -2 255 -2 255 3 247 c 0,6,7
 21 217 21 217 66 183 c 0,8,9
 150 120 150 120 256 120 c 0,10,11
 392 120 392 120 486 219 c 0,12,13
 502 236 502 236 509 247 c 1,14,15
 514 257 514 257 509 265 c 0,16,17
 491 295 491 295 446 329 c 0,18,19
 363 392 363 392 256 392 c 0,0,1
256 152 m 0,20,21
 133 152 133 152 47 243 c 0,22,23
 41 250 41 250 36 256 c 1,24,25
 102 336 102 336 203 355 c 0,26,27
 230 360 230 360 256 360 c 0,28,29
 379 360 379 360 465 269 c 0,30,31
 471 262 471 262 476 256 c 1,32,33
 410 176 410 176 309 157 c 0,34,35
 282 152 282 152 256 152 c 0,20,21
256 328 m 0,36,37
 212 328 212 328 192 290 c 0,38,39
 184 273 184 273 184 256 c 0,40,41
 184 212 184 212 222 192 c 0,42,43
 239 184 239 184 256 184 c 0,44,45
 300 184 300 184 320 222 c 0,46,47
 328 239 328 239 328 256 c 0,48,49
 328 300 328 300 290 320 c 0,50,51
 273 328 273 328 256 328 c 0,36,37
256 216 m 0,52,53
 228 216 228 216 219 242 c 0,54,55
 216 249 216 249 216 256 c 0,56,57
 216 284 216 284 242 293 c 0,58,59
 249 296 249 296 256 296 c 0,60,61
 284 296 284 296 293 270 c 0,62,63
 296 263 296 263 296 256 c 0,64,65
 296 228 296 228 270 219 c 0,66,67
 263 216 263 216 256 216 c 0,52,53
EndSplineSet
EndChar

StartChar: uniE01F
Encoding: 57375 57375 34
Width: 512
Flags: W
LayerCount: 2
Fore
SplineSet
336 72 m 1,0,-1
 336 136 l 1,1,2
 334 151 334 151 320 152 c 1,3,-1
 16 152 l 1,4,5
 1 150 1 150 0 136 c 1,6,-1
 0 72 l 1,7,8
 2 57 2 57 16 56 c 1,9,-1
 320 56 l 1,10,11
 335 58 335 58 336 72 c 1,0,-1
304 88 m 1,12,-1
 32 88 l 1,13,-1
 32 120 l 1,14,-1
 304 120 l 1,15,-1
 304 88 l 1,12,-1
48 200 m 1,16,17
 33 198 33 198 32 184 c 1,18,19
 34 169 34 169 48 168 c 1,20,-1
 288 168 l 1,21,22
 303 170 303 170 304 184 c 1,23,24
 302 199 302 199 288 200 c 1,25,-1
 48 200 l 1,16,17
16 216 m 1,26,-1
 320 216 l 1,27,28
 335 218 335 218 336 232 c 1,29,30
 336 266 336 266 307 297 c 0,31,32
 261 344 261 344 168 344 c 0,33,34
 40 344 40 344 7 262 c 0,35,36
 0 245 0 245 0 232 c 1,37,38
 2 217 2 217 16 216 c 1,26,-1
168 312 m 0,39,40
 278 310 278 310 301 248 c 1,41,-1
 35 248 l 1,42,43
 56 309 56 309 157 312 c 0,44,45
 163 312 163 312 168 312 c 0,39,40
496 376 m 1,46,-1
 414 376 l 1,47,-1
 400 459 l 1,48,49
 395 472 395 472 381 472 c 1,50,51
 368 467 368 467 368 453 c 1,52,-1
 381 376 l 1,53,-1
 368 376 l 1,54,55
 361 375 361 375 356 371 c 1,56,57
 352 366 352 366 352 359 c 2,58,-1
 368 71 l 1,59,60
 371 59 371 59 384 56 c 1,61,-1
 480 56 l 1,62,63
 493 59 493 59 496 71 c 1,64,-1
 512 359 l 1,65,66
 511 367 511 367 508 371 c 1,67,68
 503 375 503 375 496 376 c 1,46,-1
465 88 m 1,69,-1
 399 88 l 1,70,-1
 385 344 l 1,71,-1
 400 344 l 1,72,-1
 400 344 l 1,73,-1
 479 344 l 1,74,-1
 465 88 l 1,69,-1
EndSplineSet
EndChar

StartChar: uniE020
Encoding: 57376 57376 35
Width: 512
Flags: W
LayerCount: 2
Fore
SplineSet
96 512 m 1,0,1
 81 510 81 510 80 496 c 1,2,-1
 80 16 l 1,3,4
 82 1 82 1 96 0 c 1,5,6
 111 2 111 2 112 16 c 1,7,-1
 112 256 l 1,8,-1
 416 256 l 1,9,10
 425 257 425 257 430 264 c 0,11,12
 434 271 434 271 430 279 c 2,13,-1
 386 368 l 1,14,-1
 430 457 l 2,15,16
 434 465 434 465 430 472 c 1,17,18
 424 479 424 479 416 480 c 1,19,-1
 112 480 l 1,20,-1
 112 496 l 1,21,22
 110 511 110 511 96 512 c 1,0,1
390 448 m 1,23,-1
 354 375 l 2,24,25
 350 368 350 368 354 361 c 2,26,-1
 390 288 l 1,27,-1
 112 288 l 1,28,-1
 112 448 l 1,29,-1
 390 448 l 1,23,-1
EndSplineSet
EndChar

StartChar: uniE021
Encoding: 57377 57377 36
Width: 512
Flags: W
LayerCount: 2
Fore
SplineSet
0 448 m 1,0,-1
 0 96 l 1,1,2
 2 81 2 81 16 80 c 1,3,-1
 496 80 l 1,4,5
 511 82 511 82 512 96 c 1,6,-1
 512 384 l 1,7,8
 510 399 510 399 496 400 c 1,9,-1
 247 400 l 1,10,-1
 187 459 l 2,11,12
 181 464 181 464 176 464 c 2,13,-1
 16 464 l 1,14,15
 1 462 1 462 0 448 c 1,0,-1
32 432 m 1,16,-1
 169 432 l 1,17,-1
 229 373 l 2,18,19
 235 368 235 368 240 368 c 2,20,-1
 480 368 l 1,21,-1
 480 112 l 1,22,-1
 32 112 l 1,23,-1
 32 432 l 1,16,-1
EndSplineSet
EndChar

StartChar: uniE022
Encoding: 57378 57378 37
Width: 512
Flags: W
LayerCount: 2
Fore
SplineSet
320 328 m 0,0,1
 320 367 320 367 285 385 c 0,2,3
 271 392 271 392 256 392 c 0,4,5
 217 392 217 392 199 357 c 0,6,7
 192 343 192 343 192 328 c 0,8,9
 192 289 192 289 227 271 c 0,10,11
 241 264 241 264 256 264 c 0,12,13
 295 264 295 264 313 299 c 0,14,15
 320 313 320 313 320 328 c 0,0,1
224 328 m 0,16,17
 224 352 224 352 246 359 c 0,18,19
 252 360 252 360 256 360 c 0,20,21
 280 360 280 360 287 338 c 0,22,23
 288 332 288 332 288 328 c 0,24,25
 288 304 288 304 266 297 c 0,26,27
 260 296 260 296 256 296 c 0,28,29
 232 296 232 296 225 318 c 0,30,31
 224 324 224 324 224 328 c 0,16,17
256 0 m 0,32,33
 263 1 263 1 268 5 c 1,34,35
 361 112 361 112 410 215 c 1,36,37
 440 281 440 281 440 328 c 0,38,39
 440 414 440 414 373 469 c 0,40,41
 321 512 321 512 256 512 c 0,42,43
 170 512 170 512 115 445 c 0,44,45
 72 393 72 393 72 328 c 0,46,47
 72 222 72 222 215 41 c 1,48,49
 231 19 231 19 244 5 c 0,50,51
 250 0 250 0 256 0 c 0,32,33
256 480 m 0,52,53
 330 480 330 480 376 420 c 0,54,55
 408 379 408 379 408 328 c 0,56,57
 408 232 408 232 270 58 c 0,58,59
 262 49 262 49 256 41 c 1,60,61
 130 193 130 193 108 295 c 0,62,63
 104 313 104 313 104 328 c 0,64,65
 104 403 104 403 164 449 c 0,66,67
 205 480 205 480 256 480 c 0,52,53
EndSplineSet
EndChar

StartChar: uniE023
Encoding: 57379 57379 38
Width: 512
Flags: W
LayerCount: 2
Fore
SplineSet
288 480 m 1,0,1
 378 480 378 480 435 411 c 0,2,3
 480 357 480 357 480 288 c 0,4,5
 480 198 480 198 411 141 c 0,6,7
 357 96 357 96 288 96 c 0,8,9
 227 96 227 96 199 110 c 1,10,11
 188 117 188 117 179 105 c 0,12,13
 178 104 178 104 178 103 c 0,14,15
 171 92 171 92 183 83 c 0,16,17
 184 82 184 82 185 82 c 0,18,19
 214 67 214 67 256 65 c 1,20,-1
 256 32 l 1,21,-1
 208 32 l 1,22,23
 193 30 193 30 192 16 c 1,24,25
 194 1 194 1 208 0 c 1,26,-1
 336 0 l 1,27,28
 351 2 351 2 352 16 c 1,29,30
 350 31 350 31 336 32 c 1,31,-1
 288 32 l 1,32,-1
 288 64 l 1,33,34
 389 64 389 64 456 140 c 0,35,36
 512 204 512 204 512 288 c 0,37,38
 512 389 512 389 436 456 c 0,39,40
 372 512 372 512 288 512 c 1,41,42
 273 510 273 510 272 496 c 1,43,44
 274 481 274 481 288 480 c 1,0,1
288 120 m 0,45,46
 370 120 370 120 420 184 c 0,47,48
 456 230 456 230 456 288 c 0,49,50
 456 370 456 370 392 420 c 0,51,52
 346 456 346 456 288 456 c 0,53,54
 206 456 206 456 156 392 c 0,55,56
 120 346 120 346 120 288 c 0,57,58
 120 206 120 206 184 156 c 0,59,60
 230 120 230 120 288 120 c 0,45,46
288 424 m 0,61,62
 357 424 357 424 398 368 c 0,63,64
 424 331 424 331 424 288 c 0,65,66
 424 219 424 219 368 178 c 0,67,68
 332 152 332 152 288 152 c 0,69,70
 219 152 219 152 178 208 c 0,71,72
 152 245 152 245 152 288 c 0,73,74
 152 357 152 357 208 398 c 0,75,76
 245 424 245 424 288 424 c 0,61,62
EndSplineSet
EndChar

StartChar: uniE024
Encoding: 57380 57380 39
Width: 512
Flags: W
LayerCount: 2
Fore
SplineSet
496 32 m 1,0,-1
 480 32 l 1,1,-1
 480 256 l 2,2,3
 480 280 480 280 458 287 c 0,4,5
 452 288 452 288 448 288 c 2,6,-1
 400 288 l 2,7,8
 376 288 376 288 369 266 c 0,9,10
 368 260 368 260 368 256 c 2,11,-1
 368 32 l 1,12,-1
 352 32 l 1,13,-1
 352 416 l 2,14,15
 352 440 352 440 330 447 c 0,16,17
 324 448 324 448 320 448 c 2,18,-1
 272 448 l 2,19,20
 248 448 248 448 241 426 c 0,21,22
 240 420 240 420 240 416 c 2,23,-1
 240 32 l 1,24,-1
 224 32 l 1,25,-1
 224 176 l 2,26,27
 224 200 224 200 202 207 c 0,28,29
 196 208 196 208 192 208 c 2,30,-1
 144 208 l 2,31,32
 120 208 120 208 113 186 c 0,33,34
 112 180 112 180 112 176 c 2,35,-1
 112 32 l 1,36,-1
 32 32 l 1,37,-1
 32 96 l 1,38,-1
 64 96 l 1,39,40
 79 98 79 98 80 112 c 1,41,42
 78 127 78 127 64 128 c 1,43,-1
 32 128 l 1,44,-1
 32 176 l 1,45,46
 47 178 47 178 48 192 c 1,47,48
 46 207 46 207 32 208 c 1,49,-1
 32 256 l 1,50,-1
 64 256 l 1,51,52
 79 258 79 258 80 272 c 1,53,54
 78 287 78 287 64 288 c 1,55,-1
 32 288 l 1,56,-1
 32 336 l 1,57,58
 47 338 47 338 48 352 c 1,59,60
 46 367 46 367 32 368 c 1,61,-1
 32 416 l 1,62,-1
 64 416 l 1,63,64
 79 418 79 418 80 432 c 1,65,66
 78 447 78 447 64 448 c 1,67,-1
 32 448 l 1,68,-1
 32 496 l 1,69,70
 30 511 30 511 16 512 c 1,71,72
 1 510 1 510 0 496 c 1,73,-1
 0 32 l 2,74,75
 0 8 0 8 22 1 c 0,76,77
 28 0 28 0 32 0 c 2,78,-1
 496 0 l 1,79,80
 511 2 511 2 512 16 c 1,81,82
 510 31 510 31 496 32 c 1,0,-1
400 256 m 1,83,-1
 448 256 l 1,84,-1
 448 32 l 1,85,-1
 400 32 l 1,86,-1
 400 256 l 1,83,-1
272 416 m 1,87,-1
 320 416 l 1,88,-1
 320 32 l 1,89,-1
 272 32 l 1,90,-1
 272 416 l 1,87,-1
144 176 m 1,91,-1
 192 176 l 1,92,-1
 192 32 l 1,93,-1
 144 32 l 1,94,-1
 144 176 l 1,91,-1
EndSplineSet
EndChar

StartChar: uniE025
Encoding: 57381 57381 40
Width: 512
Flags: W
LayerCount: 2
Fore
SplineSet
496 32 m 1,0,-1
 32 32 l 1,1,-1
 32 96 l 1,2,-1
 64 96 l 1,3,4
 79 98 79 98 80 112 c 1,5,6
 78 127 78 127 64 128 c 1,7,-1
 32 128 l 1,8,-1
 32 176 l 1,9,10
 47 178 47 178 48 192 c 1,11,12
 46 207 46 207 32 208 c 1,13,-1
 32 256 l 1,14,-1
 64 256 l 1,15,16
 79 258 79 258 80 272 c 1,17,18
 78 287 78 287 64 288 c 1,19,-1
 32 288 l 1,20,-1
 32 336 l 1,21,22
 47 338 47 338 48 352 c 1,23,24
 46 367 46 367 32 368 c 1,25,-1
 32 416 l 1,26,-1
 64 416 l 1,27,28
 79 418 79 418 80 432 c 1,29,30
 78 447 78 447 64 448 c 1,31,-1
 32 448 l 1,32,-1
 32 496 l 1,33,34
 30 511 30 511 16 512 c 1,35,36
 1 510 1 510 0 496 c 1,37,-1
 0 32 l 2,38,39
 0 8 0 8 22 1 c 0,40,41
 28 0 28 0 32 0 c 2,42,-1
 496 0 l 1,43,44
 511 2 511 2 512 16 c 1,45,46
 510 31 510 31 496 32 c 1,0,-1
251 363 m 2,47,-1
 171 443 l 2,48,49
 160 454 160 454 149 443 c 128,-1,50
 138 432 138 432 149 421 c 2,51,-1
 217 352 l 1,52,-1
 181 315 l 2,53,54
 170 304 170 304 181 293 c 2,55,-1
 345 128 l 1,56,-1
 304 128 l 1,57,58
 289 126 289 126 288 112 c 1,59,60
 290 97 290 97 304 96 c 1,61,-1
 384 96 l 1,62,-1
 387 96 l 2,63,64
 388 96 388 96 388 96.5 c 128,-1,65
 388 97 388 97 388 97 c 1,66,-1
 389 97 l 1,67,-1
 390 97 l 1,68,-1
 391 98 l 1,69,-1
 392 98 l 1,70,-1
 393 99 l 2,71,72
 396 101 396 101 397 103 c 2,73,-1
 398 104 l 1,74,-1
 398 105 l 1,75,-1
 399 106 l 1,76,-1
 399 107 l 2,77,78
 399 108 399 108 400 108 c 1,79,-1
 400 109 l 1,80,-1
 400 112 l 1,81,-1
 400 192 l 1,82,83
 398 207 398 207 384 208 c 1,84,85
 369 206 369 206 368 192 c 1,86,-1
 368 151 l 1,87,-1
 215 304 l 1,88,-1
 251 341 l 2,89,90
 262 352 262 352 251 363 c 2,47,-1
EndSplineSet
EndChar

StartChar: uniE026
Encoding: 57382 57382 41
Width: 512
Flags: W
LayerCount: 2
Fore
SplineSet
496 32 m 1,0,-1
 32 32 l 1,1,-1
 32 96 l 1,2,-1
 64 96 l 1,3,4
 79 98 79 98 80 112 c 1,5,6
 78 127 78 127 64 128 c 1,7,-1
 32 128 l 1,8,-1
 32 176 l 1,9,10
 47 178 47 178 48 192 c 1,11,12
 46 207 46 207 32 208 c 1,13,-1
 32 256 l 1,14,-1
 64 256 l 1,15,16
 79 258 79 258 80 272 c 1,17,18
 78 287 78 287 64 288 c 1,19,-1
 32 288 l 1,20,-1
 32 336 l 1,21,22
 47 338 47 338 48 352 c 1,23,24
 46 367 46 367 32 368 c 1,25,-1
 32 416 l 1,26,-1
 64 416 l 1,27,28
 79 418 79 418 80 432 c 1,29,30
 78 447 78 447 64 448 c 1,31,-1
 32 448 l 1,32,-1
 32 496 l 1,33,34
 30 511 30 511 16 512 c 1,35,36
 1 510 1 510 0 496 c 1,37,-1
 0 32 l 2,38,39
 0 8 0 8 22 1 c 0,40,41
 28 0 28 0 32 0 c 2,42,-1
 496 0 l 1,43,44
 511 2 511 2 512 16 c 1,45,46
 510 31 510 31 496 32 c 1,0,-1
448 240 m 1,47,48
 463 242 463 242 464 256 c 1,49,-1
 464 336 l 1,50,-1
 464 339 l 2,51,52
 464 340 464 340 463.5 340 c 128,-1,53
 463 340 463 340 463 340 c 1,54,-1
 463 341 l 1,55,-1
 463 342 l 1,56,-1
 462 343 l 1,57,-1
 462 344 l 1,58,-1
 461 345 l 2,59,60
 459 348 459 348 457 349 c 2,61,-1
 456 350 l 1,62,-1
 455 350 l 1,63,-1
 454 351 l 1,64,-1
 453 351 l 2,65,66
 452 351 452 351 452 352 c 1,67,-1
 451 352 l 1,68,-1
 448 352 l 1,69,-1
 368 352 l 1,70,71
 353 350 353 350 352 336 c 1,72,73
 354 321 354 321 368 320 c 1,74,-1
 409 320 l 1,75,-1
 256 167 l 1,76,-1
 219 203 l 2,77,78
 208 214 208 214 197 203 c 2,79,-1
 117 123 l 2,80,81
 106 112 106 112 117 101 c 0,82,83
 123 96 123 96 128 96 c 0,84,85
 134 97 134 97 139 101 c 2,86,-1
 208 169 l 1,87,-1
 245 133 l 2,88,89
 256 122 256 122 267 133 c 2,90,-1
 432 297 l 1,91,-1
 432 256 l 1,92,93
 434 241 434 241 448 240 c 1,47,48
EndSplineSet
EndChar

StartChar: uniE027
Encoding: 57383 57383 42
Width: 512
Flags: W
LayerCount: 2
Fore
SplineSet
363 235 m 2,0,1
 352 246 352 246 341 235 c 2,2,-1
 328 223 l 1,3,-1
 199 352 l 1,4,-1
 283 437 l 2,5,6
 294 448 294 448 283 459 c 2,7,-1
 251 491 l 2,8,9
 240 502 240 502 229 491 c 1,10,11
 229 491 229 491 211 480 c 1,12,13
 199 475 199 475 190 475 c 0,14,15
 172 476 172 476 155 491 c 0,16,17
 144 502 144 502 133 491 c 2,18,-1
 5 363 l 2,19,20
 -6 352 -6 352 5 341 c 2,21,-1
 85 261 l 2,22,23
 91 256 91 256 96 256 c 0,24,25
 102 257 102 257 107 261 c 2,26,-1
 176 329 l 1,27,-1
 305 200 l 1,28,-1
 293 187 l 2,29,30
 282 176 282 176 293 165 c 2,31,-1
 437 21 l 2,32,33
 443 16 443 16 448 16 c 0,34,35
 454 17 454 17 459 21 c 2,36,-1
 507 69 l 2,37,38
 518 80 518 80 507 91 c 2,39,-1
 363 235 l 2,0,1
96 295 m 1,40,-1
 39 352 l 1,41,-1
 145 458 l 1,42,43
 166 443 166 443 190 443 c 0,44,45
 217 443 217 443 239 459 c 1,46,-1
 249 448 l 1,47,-1
 96 295 l 1,40,-1
448 55 m 1,48,-1
 327 176 l 1,49,-1
 352 201 l 1,50,-1
 473 80 l 1,51,-1
 448 55 l 1,48,-1
EndSplineSet
EndChar

StartChar: uniE028
Encoding: 57384 57384 43
Width: 512
Flags: W
LayerCount: 2
Fore
SplineSet
224 160 m 0,0,1
 222 175 222 175 208 176 c 1,2,3
 193 174 193 174 192 160 c 1,4,5
 192 125 192 125 225 105 c 0,6,7
 241 96 241 96 256 96 c 0,8,9
 291 96 291 96 311 129 c 0,10,11
 320 145 320 145 320 160 c 1,12,13
 318 175 318 175 304 176 c 1,14,15
 289 174 289 174 288 160 c 1,16,17
 288 142 288 142 269 132 c 0,18,19
 262 128 262 128 256 128 c 0,20,21
 238 128 238 128 228 147 c 0,22,23
 224 154 224 154 224 160 c 0,0,1
187 235 m 1,24,25
 176 244 176 244 165 235 c 1,26,27
 160 229 160 229 160 224 c 0,28,29
 161 218 161 218 165 213 c 1,30,31
 171 208 171 208 176 208 c 0,32,33
 182 209 182 209 187 213 c 1,34,35
 192 219 192 219 192 224 c 0,36,37
 191 230 191 230 187 235 c 1,24,25
336 208 m 0,38,39
 342 209 342 209 347 213 c 1,40,41
 352 219 352 219 352 224 c 0,42,43
 351 230 351 230 347 235 c 1,44,45
 336 244 336 244 325 235 c 1,46,47
 320 229 320 229 320 224 c 0,48,49
 321 218 321 218 325 213 c 1,50,51
 331 208 331 208 336 208 c 0,38,39
256 520 m 256,52,53
 248 520 248 520 244 514 c 0,54,55
 72 292 72 292 72 176 c 0,56,57
 72 89 72 89 141 37 c 0,58,59
 191 0 191 0 256 0 c 0,60,61
 350 0 350 0 403 68 c 0,62,63
 440 115 440 115 440 176 c 0,64,65
 440 218 440 218 417 274.5 c 128,-1,66
 394 331 394 331 359.5 384.5 c 128,-1,67
 325 438 325 438 304.5 467 c 128,-1,68
 284 496 284 496 270 513 c 1,69,-1
 269 514 l 2,70,71
 264 520 264 520 256 520 c 256,52,53
256 32 m 0,72,73
 175 32 175 32 131 92 c 0,74,75
 104 130 104 130 104 176 c 0,76,77
 104 274 104 274 248 467 c 0,78,79
 252 473 252 473 256 478 c 1,80,81
 394 297 394 297 407 194 c 0,82,83
 408 184 408 184 408 176 c 0,84,85
 408 100 408 100 346 58 c 0,86,87
 306 32 306 32 256 32 c 0,72,73
EndSplineSet
EndChar

StartChar: uniE029
Encoding: 57385 57385 44
Width: 512
Flags: W
LayerCount: 2
Fore
SplineSet
96 72 m 2,0,-1
 112 72 l 1,1,2
 127 74 127 74 128 88 c 1,3,-1
 128 296 l 2,4,5
 128 345 128 345 163 377 c 0,6,7
 198 408 198 408 256 408 c 0,8,9
 355 408 355 408 379 326 c 0,10,11
 384 310 384 310 384 296 c 2,12,-1
 384 88 l 1,13,14
 386 73 386 73 400 72 c 1,15,-1
 416 72 l 2,16,17
 469 72 469 72 497 117 c 0,18,19
 512 141 512 141 512 168 c 0,20,21
 512 221 512 221 467 249 c 0,22,23
 443 264 443 264 416 264 c 1,24,-1
 416 296 l 2,25,26
 416 340 416 340 388 380 c 1,27,28
 344 439 344 439 256 440 c 1,29,30
 139 440 139 440 105 342 c 0,31,32
 96 316 96 316 96 296 c 2,33,-1
 96 264 l 1,34,35
 43 264 43 264 15 219 c 0,36,37
 0 195 0 195 0 168 c 0,38,39
 0 115 0 115 45 87 c 0,40,41
 69 72 69 72 96 72 c 2,0,-1
480 168 m 0,42,43
 480 129 480 129 445 111 c 0,44,45
 431 104 431 104 416 104 c 1,46,-1
 416 232 l 1,47,48
 455 232 455 232 473 197 c 0,49,50
 480 183 480 183 480 168 c 0,42,43
96 232 m 1,51,-1
 96 104 l 1,52,53
 57 104 57 104 39 139 c 0,54,55
 32 153 32 153 32 168 c 0,56,57
 32 207 32 207 67 225 c 0,58,59
 81 232 81 232 96 232 c 1,51,-1
EndSplineSet
EndChar

StartChar: uniE02A
Encoding: 57386 57386 45
Width: 512
Flags: W
LayerCount: 2
Fore
SplineSet
384 488 m 0,0,1
 309 488 309 488 266 434 c 0,2,3
 260 426 260 426 256 419 c 1,4,5
 223 476 223 476 152 486 c 0,6,7
 140 488 140 488 128 488 c 0,8,9
 51 488 51 488 16 417 c 0,10,11
 0 383 0 383 0 344 c 0,12,13
 0 216 0 216 172 80 c 0,14,15
 213 47 213 47 248 26 c 0,16,17
 252 24 252 24 256 24 c 256,18,19
 260 24 260 24 264 26 c 0,20,21
 351 78 351 78 421 155 c 0,22,23
 511 254 511 254 512 344 c 0,24,25
 512 420 512 420 461 461 c 0,26,27
 429 488 429 488 384 488 c 0,0,1
256 59 m 1,28,29
 111 154 111 154 57 254 c 0,30,31
 32 301 32 301 32 344 c 0,32,33
 32 409 32 409 75 440 c 0,34,35
 98 456 98 456 128 456 c 0,36,37
 185 456 185 456 219 416 c 0,38,39
 240 391 240 391 240 360 c 1,40,41
 242 345 242 345 256 344 c 1,42,43
 271 346 271 346 272 360 c 1,44,45
 272 415 272 415 327 443 c 1,46,47
 355 456 355 456 384 456 c 0,48,49
 448 456 448 456 472 393 c 1,50,51
 480 369 480 369 480 344 c 0,52,53
 480 229 480 229 310 98 c 0,54,55
 283 77 283 77 256 59 c 1,28,29
EndSplineSet
EndChar

StartChar: uniE02B
Encoding: 57387 57387 46
Width: 512
Flags: W
LayerCount: 2
Fore
SplineSet
248 26 m 2,0,-1
 256 21 l 1,1,-1
 264 26 l 1,2,3
 351 78 351 78 421 155 c 0,4,5
 511 254 511 254 512 344 c 0,6,7
 512 420 512 420 461 461 c 0,8,9
 429 488 429 488 384 488 c 0,10,11
 309 488 309 488 266 434 c 0,12,13
 260 426 260 426 256 419 c 1,14,15
 223 476 223 476 152 486 c 0,16,17
 140 488 140 488 128 488 c 0,18,19
 51 488 51 488 16 417 c 0,20,21
 0 383 0 383 0 344 c 0,22,23
 0 216 0 216 172 80 c 0,24,25
 213 47 213 47 248 26 c 2,0,-1
384 456 m 0,26,27
 448 456 448 456 472 393 c 1,28,29
 480 369 480 369 480 344 c 0,30,31
 480 230 480 230 315 101 c 0,32,33
 287 80 287 80 260 62 c 1,34,-1
 299 101 l 2,35,36
 310 112 310 112 299 123 c 2,37,-1
 263 160 l 1,38,-1
 299 197 l 2,39,40
 310 208 310 208 299 219 c 2,41,-1
 263 256 l 1,42,-1
 315 309 l 2,43,44
 326 320 326 320 315 331 c 2,45,-1
 273 373 l 1,46,47
 281 424 281 424 336 447 c 0,48,49
 360 456 360 456 384 456 c 0,26,27
128 456 m 0,50,51
 185 456 185 456 219 416 c 0,52,53
 240 391 240 391 240 360 c 1,54,-1
 242 360 l 1,55,-1
 245 357 l 1,56,-1
 281 320 l 1,57,-1
 229 267 l 2,58,59
 218 256 218 256 229 245 c 2,60,-1
 265 208 l 1,61,-1
 229 171 l 2,62,63
 218 160 218 160 229 149 c 2,64,-1
 265 112 l 1,65,-1
 230 77 l 1,66,67
 99 167 99 167 53 263 c 0,68,69
 32 305 32 305 32 344 c 0,70,71
 32 409 32 409 75 440 c 0,72,73
 98 456 98 456 128 456 c 0,50,51
EndSplineSet
EndChar

StartChar: uniE02C
Encoding: 57388 57388 47
Width: 512
Flags: W
LayerCount: 2
Fore
SplineSet
320 0 m 1,0,-1
 416 0 l 1,1,2
 431 2 431 2 432 16 c 1,3,-1
 432 240 l 1,4,-1
 496 240 l 1,5,6
 506 241 506 241 511 250 c 1,7,8
 514 261 514 261 507 267 c 2,9,-1
 267 507 l 2,10,11
 256 518 256 518 245 507 c 2,12,-1
 5 267 l 2,13,14
 -2 260 -2 260 1 250 c 1,15,16
 7 241 7 241 16 240 c 1,17,-1
 80 240 l 1,18,-1
 80 16 l 1,19,20
 82 1 82 1 96 0 c 1,21,-1
 192 0 l 1,22,23
 207 2 207 2 208 16 c 1,24,-1
 208 128 l 1,25,-1
 304 128 l 1,26,-1
 304 16 l 1,27,28
 306 1 306 1 320 0 c 1,0,-1
192 160 m 1,29,30
 177 158 177 158 176 144 c 1,31,-1
 176 32 l 1,32,-1
 112 32 l 1,33,-1
 112 256 l 1,34,35
 110 271 110 271 96 272 c 1,36,-1
 55 272 l 1,37,-1
 256 473 l 1,38,-1
 457 272 l 1,39,-1
 416 272 l 1,40,41
 401 270 401 270 400 256 c 1,42,-1
 400 32 l 1,43,-1
 336 32 l 1,44,-1
 336 144 l 1,45,46
 334 159 334 159 320 160 c 1,47,-1
 192 160 l 1,29,30
EndSplineSet
EndChar

StartChar: uniE02D
Encoding: 57389 57389 48
Width: 512
Flags: W
LayerCount: 2
Fore
SplineSet
400 384 m 2,0,-1
 400 432 l 1,1,-1
 432 432 l 1,2,3
 447 434 447 434 448 448 c 1,4,-1
 448 496 l 1,5,6
 446 511 446 511 432 512 c 1,7,-1
 80 512 l 1,8,9
 65 510 65 510 64 496 c 1,10,-1
 64 448 l 1,11,12
 66 433 66 433 80 432 c 1,13,-1
 112 432 l 1,14,-1
 112 384 l 2,15,16
 112 312 112 312 170 268 c 0,17,18
 180 261 180 261 190 256 c 1,19,20
 129 224 129 224 115 157 c 0,21,22
 112 142 112 142 112 128 c 2,23,-1
 112 80 l 1,24,-1
 80 80 l 1,25,26
 65 78 65 78 64 64 c 1,27,-1
 64 16 l 1,28,29
 66 1 66 1 80 0 c 1,30,-1
 432 0 l 1,31,32
 447 2 447 2 448 16 c 1,33,-1
 448 64 l 1,34,35
 446 79 446 79 432 80 c 1,36,-1
 400 80 l 1,37,-1
 400 128 l 2,38,39
 400 200 400 200 342 244 c 0,40,41
 332 251 332 251 322 256 c 1,42,43
 383 288 383 288 397 355 c 0,44,45
 400 370 400 370 400 384 c 2,0,-1
96 480 m 1,46,-1
 416 480 l 1,47,-1
 416 464 l 1,48,-1
 96 464 l 1,49,-1
 96 480 l 1,46,-1
416 32 m 1,50,-1
 96 32 l 1,51,-1
 96 48 l 1,52,-1
 416 48 l 1,53,-1
 416 32 l 1,50,-1
368 128 m 2,54,-1
 368 80 l 1,55,-1
 144 80 l 1,56,-1
 144 128 l 2,57,58
 144 188 144 188 193 221 c 0,59,60
 222 240 222 240 256 240 c 0,61,62
 316 240 316 240 349 191 c 0,63,64
 368 162 368 162 368 128 c 2,54,-1
256 272 m 0,65,66
 196 272 196 272 163 321 c 0,67,68
 144 350 144 350 144 384 c 2,69,-1
 144 432 l 1,70,-1
 368 432 l 1,71,-1
 368 384 l 2,72,73
 368 324 368 324 319 291 c 0,74,75
 290 272 290 272 256 272 c 0,65,66
EndSplineSet
EndChar

StartChar: uniE02E
Encoding: 57390 57390 49
Width: 512
Flags: W
LayerCount: 2
Fore
SplineSet
16 72 m 1,0,-1
 496 72 l 1,1,2
 511 74 511 74 512 88 c 1,3,-1
 512 424 l 1,4,5
 510 439 510 439 496 440 c 1,6,-1
 16 440 l 1,7,8
 1 438 1 438 0 424 c 1,9,-1
 0 88 l 1,10,11
 2 73 2 73 16 72 c 1,0,-1
32 104 m 1,12,-1
 32 129 l 1,13,-1
 191 274 l 1,14,-1
 277 189 l 2,15,16
 282 184 282 184 289 184 c 1,17,18
 295 185 295 185 301 190 c 1,19,-1
 338 240 l 1,20,-1
 480 113 l 1,21,-1
 480 104 l 1,22,-1
 32 104 l 1,12,-1
480 408 m 1,23,-1
 480 156 l 1,24,-1
 347 276 l 1,25,26
 341 280 341 280 334 280 c 1,27,28
 327 278 327 278 323 274 c 2,29,-1
 286 224 l 1,30,-1
 203 307 l 2,31,32
 192 318 192 318 181 308 c 2,33,-1
 32 172 l 1,34,-1
 32 408 l 1,35,-1
 480 408 l 1,23,-1
408 280 m 0,36,37
 443 280 443 280 458 311 c 0,38,39
 464 324 464 324 464 336 c 0,40,41
 464 371 464 371 433 386 c 0,42,43
 420 392 420 392 408 392 c 0,44,45
 373 392 373 392 358 361 c 0,46,47
 352 348 352 348 352 336 c 0,48,49
 352 301 352 301 383 286 c 0,50,51
 396 280 396 280 408 280 c 0,36,37
408 360 m 0,52,53
 426 360 426 360 431 342 c 0,54,55
 432 339 432 339 432 336 c 0,56,57
 432 318 432 318 414 313 c 0,58,59
 411 312 411 312 408 312 c 0,60,61
 390 312 390 312 385 330 c 0,62,63
 384 333 384 333 384 336 c 0,64,65
 384 354 384 354 402 359 c 0,66,67
 405 360 405 360 408 360 c 0,52,53
EndSplineSet
EndChar

StartChar: uniE02F
Encoding: 57391 57391 50
Width: 512
Flags: W
LayerCount: 2
Fore
SplineSet
400 368 m 0,0,1
 341 368 341 368 307 319 c 1,2,3
 293 297 293 297 289 272 c 1,4,-1
 16 272 l 1,5,6
 1 270 1 270 0 256 c 1,7,8
 2 241 2 241 16 240 c 1,9,-1
 32 240 l 1,10,-1
 32 192 l 1,11,12
 34 177 34 177 48 176 c 1,13,14
 63 178 63 178 64 192 c 1,15,-1
 64 240 l 1,16,-1
 96 240 l 1,17,-1
 96 224 l 1,18,19
 98 209 98 209 112 208 c 1,20,21
 127 210 127 210 128 224 c 1,22,-1
 128 240 l 1,23,-1
 289 240 l 1,24,25
 297 184 297 184 348 157 c 0,26,27
 373 144 373 144 400 144 c 0,28,29
 460 144 460 144 493 193 c 0,30,31
 512 222 512 222 512 256 c 0,32,33
 512 316 512 316 463 349 c 0,34,35
 434 368 434 368 400 368 c 0,0,1
400 176 m 0,36,37
 355 176 355 176 331 215 c 0,38,39
 320 234 320 234 320 256 c 0,40,41
 320 301 320 301 359 325 c 1,42,43
 379 336 379 336 400 336 c 0,44,45
 445 336 445 336 469 297 c 0,46,47
 480 278 480 278 480 256 c 0,48,49
 480 211 480 211 441 187 c 1,50,51
 421 176 421 176 400 176 c 0,36,37
EndSplineSet
EndChar

StartChar: uniE030
Encoding: 57392 57392 51
Width: 512
Flags: W
LayerCount: 2
Fore
SplineSet
256 512 m 0,0,1
 145 512 145 512 69 430 c 0,2,3
 0 356 0 356 0 256 c 0,4,5
 0 145 0 145 82 69 c 0,6,7
 156 0 156 0 256 0 c 0,8,9
 367 0 367 0 443 82 c 0,10,11
 512 156 512 156 512 256 c 0,12,13
 512 367 512 367 430 443 c 0,14,15
 356 512 356 512 256 512 c 0,0,1
471 320 m 1,16,-1
 384 320 l 2,17,18
 380 320 380 320 377 318 c 1,19,20
 356 357 356 357 318 377 c 1,21,22
 320 382 320 382 320 384 c 2,23,-1
 320 471 l 1,24,25
 409 444 409 444 454 361 c 0,26,27
 465 341 465 341 471 320 c 1,16,-1
388 288 m 1,28,-1
 478 288 l 1,29,30
 480 268 480 268 480 256 c 0,31,32
 480 243 480 243 478 224 c 1,33,-1
 388 224 l 1,34,35
 392 238 392 238 392 256 c 0,36,37
 392 275 392 275 388 288 c 1,28,-1
256 152 m 0,38,39
 200 152 200 152 169 199 c 0,40,41
 152 226 152 226 152 256 c 0,42,43
 152 312 152 312 199 343 c 0,44,45
 226 360 226 360 256 360 c 0,46,47
 312 360 312 360 343 313 c 0,48,49
 360 286 360 286 360 256 c 0,50,51
 360 200 360 200 313 169 c 0,52,53
 286 152 286 152 256 152 c 0,38,39
288 478 m 1,54,-1
 288 388 l 1,55,56
 274 392 274 392 256 392 c 0,57,58
 237 392 237 392 224 388 c 1,59,-1
 224 478 l 1,60,61
 244 480 244 480 256 480 c 0,62,63
 269 480 269 480 288 478 c 1,54,-1
192 471 m 1,64,-1
 192 384 l 2,65,66
 192 380 192 380 194 377 c 1,67,68
 155 356 155 356 135 318 c 1,69,70
 130 320 130 320 128 320 c 2,71,-1
 41 320 l 1,72,73
 68 409 68 409 151 454 c 0,74,75
 171 465 171 465 192 471 c 1,64,-1
32 256 m 0,76,77
 32 269 32 269 34 288 c 1,78,-1
 124 288 l 1,79,80
 120 274 120 274 120 256 c 0,81,82
 120 237 120 237 124 224 c 1,83,-1
 34 224 l 1,84,85
 32 244 32 244 32 256 c 0,76,77
41 192 m 1,86,-1
 128 192 l 2,87,88
 132 192 132 192 135 194 c 1,89,90
 156 155 156 155 194 135 c 1,91,92
 192 130 192 130 192 128 c 2,93,-1
 192 41 l 1,94,95
 103 68 103 68 58 151 c 0,96,97
 47 171 47 171 41 192 c 1,86,-1
224 34 m 1,98,-1
 224 124 l 1,99,100
 238 120 238 120 256 120 c 0,101,102
 275 120 275 120 288 124 c 1,103,-1
 288 34 l 1,104,105
 268 32 268 32 256 32 c 0,106,107
 243 32 243 32 224 34 c 1,98,-1
320 41 m 1,108,-1
 320 128 l 2,109,110
 320 132 320 132 318 135 c 1,111,112
 357 156 357 156 377 194 c 1,113,114
 382 192 382 192 384 192 c 2,115,-1
 471 192 l 1,116,117
 444 103 444 103 361 58 c 0,118,119
 341 47 341 47 320 41 c 1,108,-1
EndSplineSet
EndChar

StartChar: uniE031
Encoding: 57393 57393 52
Width: 512
Flags: W
LayerCount: 2
Fore
SplineSet
16 336 m 1,0,-1
 64 336 l 1,1,2
 79 338 79 338 80 352 c 1,3,4
 78 367 78 367 64 368 c 1,5,-1
 16 368 l 1,6,7
 1 366 1 366 0 352 c 1,8,9
 2 337 2 337 16 336 c 1,0,-1
496 368 m 1,10,-1
 176 368 l 1,11,12
 161 366 161 366 160 352 c 1,13,14
 162 337 162 337 176 336 c 1,15,-1
 496 336 l 1,16,17
 511 338 511 338 512 352 c 1,18,19
 510 367 510 367 496 368 c 1,10,-1
16 240 m 1,20,-1
 64 240 l 1,21,22
 79 242 79 242 80 256 c 1,23,24
 78 271 78 271 64 272 c 1,25,-1
 16 272 l 1,26,27
 1 270 1 270 0 256 c 1,28,29
 2 241 2 241 16 240 c 1,20,-1
496 272 m 1,30,-1
 176 272 l 1,31,32
 161 270 161 270 160 256 c 1,33,34
 162 241 162 241 176 240 c 1,35,-1
 496 240 l 1,36,37
 511 242 511 242 512 256 c 1,38,39
 510 271 510 271 496 272 c 1,30,-1
16 144 m 1,40,-1
 64 144 l 1,41,42
 79 146 79 146 80 160 c 1,43,44
 78 175 78 175 64 176 c 1,45,-1
 16 176 l 1,46,47
 1 174 1 174 0 160 c 1,48,49
 2 145 2 145 16 144 c 1,40,-1
496 176 m 1,50,-1
 176 176 l 1,51,52
 161 174 161 174 160 160 c 1,53,54
 162 145 162 145 176 144 c 1,55,-1
 496 144 l 1,56,57
 511 146 511 146 512 160 c 1,58,59
 510 175 510 175 496 176 c 1,50,-1
EndSplineSet
EndChar

StartChar: uniE032
Encoding: 57394 57394 53
Width: 512
Flags: W
LayerCount: 2
Fore
SplineSet
112 368 m 2,0,-1
 112 256 l 1,1,-1
 64 256 l 1,2,3
 49 254 49 254 48 240 c 1,4,-1
 48 16 l 1,5,6
 50 1 50 1 64 0 c 1,7,-1
 448 0 l 1,8,9
 463 2 463 2 464 16 c 1,10,-1
 464 240 l 1,11,12
 462 255 462 255 448 256 c 1,13,-1
 400 256 l 1,14,-1
 400 368 l 2,15,16
 400 439 400 439 343 483 c 1,17,18
 303 512 303 512 256 512 c 0,19,20
 185 512 185 512 141 455 c 1,21,22
 112 415 112 415 112 368 c 2,0,-1
432 32 m 1,23,-1
 80 32 l 1,24,-1
 80 224 l 1,25,-1
 432 224 l 1,26,-1
 432 32 l 1,23,-1
256 480 m 0,27,28
 316 480 316 480 349 431 c 0,29,30
 368 402 368 402 368 368 c 2,31,-1
 368 256 l 1,32,-1
 144 256 l 1,33,-1
 144 368 l 2,34,35
 144 428 144 428 193 461 c 0,36,37
 222 480 222 480 256 480 c 0,27,28
256 192 m 0,38,39
 226 192 226 192 212 164 c 0,40,41
 208 154 208 154 208 144 c 0,42,43
 208 112 208 112 236 100 c 0,44,45
 239 99 239 99 240 99 c 1,46,-1
 240 80 l 1,47,48
 242 65 242 65 256 64 c 1,49,50
 271 66 271 66 272 80 c 1,51,-1
 272 99 l 1,52,53
 301 113 301 113 304 144 c 1,54,55
 304 174 304 174 276 188 c 0,56,57
 266 192 266 192 256 192 c 0,38,39
256 128 m 1,58,59
 241 130 241 130 240 144 c 1,60,61
 242 159 242 159 256 160 c 1,62,63
 271 158 271 158 272 144 c 1,64,65
 270 129 270 129 256 128 c 1,58,59
EndSplineSet
EndChar

StartChar: uniE033
Encoding: 57395 57395 54
Width: 512
Flags: W
LayerCount: 2
Fore
SplineSet
48 240 m 1,0,-1
 48 16 l 1,1,2
 50 1 50 1 64 0 c 1,3,-1
 448 0 l 1,4,5
 463 2 463 2 464 16 c 1,6,-1
 464 240 l 1,7,8
 462 255 462 255 448 256 c 1,9,-1
 144 256 l 1,10,-1
 144 368 l 2,11,12
 144 428 144 428 193 461 c 0,13,14
 222 480 222 480 256 480 c 0,15,16
 316 480 316 480 349 431 c 0,17,18
 368 402 368 402 368 368 c 2,19,-1
 368 336 l 1,20,21
 370 321 370 321 384 320 c 1,22,23
 399 322 399 322 400 336 c 1,24,-1
 400 368 l 2,25,26
 400 439 400 439 343 483 c 1,27,28
 303 512 303 512 256 512 c 0,29,30
 185 512 185 512 141 455 c 1,31,32
 112 415 112 415 112 368 c 2,33,-1
 112 256 l 1,34,-1
 64 256 l 1,35,36
 49 254 49 254 48 240 c 1,0,-1
80 224 m 1,37,-1
 432 224 l 1,38,-1
 432 32 l 1,39,-1
 80 32 l 1,40,-1
 80 224 l 1,37,-1
256 192 m 0,41,42
 226 192 226 192 212 164 c 0,43,44
 208 154 208 154 208 144 c 0,45,46
 208 112 208 112 236 100 c 0,47,48
 239 99 239 99 240 99 c 1,49,-1
 240 80 l 1,50,51
 242 65 242 65 256 64 c 1,52,53
 271 66 271 66 272 80 c 1,54,-1
 272 99 l 1,55,56
 301 113 301 113 304 144 c 1,57,58
 304 174 304 174 276 188 c 0,59,60
 266 192 266 192 256 192 c 0,41,42
256 128 m 1,61,62
 241 130 241 130 240 144 c 1,63,64
 242 159 242 159 256 160 c 1,65,66
 271 158 271 158 272 144 c 1,67,68
 270 129 270 129 256 128 c 1,61,62
EndSplineSet
EndChar

StartChar: uniE034
Encoding: 57396 57396 55
Width: 512
Flags: W
LayerCount: 2
Fore
SplineSet
96 0 m 1,0,-1
 416 0 l 1,1,2
 431 2 431 2 432 16 c 1,3,-1
 432 496 l 1,4,5
 430 511 430 511 416 512 c 1,6,-1
 96 512 l 1,7,8
 81 510 81 510 80 496 c 1,9,-1
 80 16 l 1,10,11
 82 1 82 1 96 0 c 1,0,-1
112 480 m 1,12,-1
 400 480 l 1,13,-1
 400 32 l 1,14,-1
 112 32 l 1,15,-1
 112 480 l 1,12,-1
256 288 m 0,16,17
 196 288 196 288 163 239 c 0,18,19
 144 210 144 210 144 176 c 0,20,21
 144 116 144 116 193 83 c 0,22,23
 222 64 222 64 256 64 c 0,24,25
 316 64 316 64 349 113 c 0,26,27
 368 142 368 142 368 176 c 0,28,29
 368 236 368 236 319 269 c 0,30,31
 290 288 290 288 256 288 c 0,16,17
256 96 m 0,32,33
 211 96 211 96 187 135 c 1,34,35
 176 155 176 155 176 176 c 0,36,37
 176 221 176 221 215 245 c 1,38,39
 235 256 235 256 256 256 c 0,40,41
 301 256 301 256 325 217 c 1,42,43
 336 197 336 197 336 176 c 0,44,45
 336 131 336 131 297 107 c 0,46,47
 278 96 278 96 256 96 c 0,32,33
256 320 m 0,48,49
 295 320 295 320 313 355 c 0,50,51
 320 369 320 369 320 384 c 0,52,53
 320 423 320 423 285 441 c 0,54,55
 271 448 271 448 256 448 c 0,56,57
 217 448 217 448 199 413 c 0,58,59
 192 399 192 399 192 384 c 0,60,61
 192 345 192 345 227 327 c 0,62,63
 241 320 241 320 256 320 c 0,48,49
256 416 m 0,64,65
 280 416 280 416 287 394 c 0,66,67
 288 388 288 388 288 384 c 0,68,69
 288 360 288 360 266 353 c 0,70,71
 260 352 260 352 256 352 c 0,72,73
 232 352 232 352 225 374 c 0,74,75
 224 380 224 380 224 384 c 0,76,77
 224 408 224 408 246 415 c 0,78,79
 252 416 252 416 256 416 c 0,64,65
256 200 m 0,80,81
 238 200 238 200 233 182 c 0,82,83
 232 179 232 179 232 176 c 0,84,85
 232 158 232 158 250 153 c 0,86,87
 253 152 253 152 256 152 c 0,88,89
 274 152 274 152 279 170 c 0,90,91
 280 173 280 173 280 176 c 0,92,93
 280 194 280 194 262 199 c 0,94,95
 259 200 259 200 256 200 c 0,80,81
256 168 m 1,96,97
 250 169 250 169 248 176 c 1,98,99
 249 182 249 182 256 184 c 1,100,101
 262 183 262 183 264 176 c 1,102,103
 263 170 263 170 256 168 c 1,96,97
EndSplineSet
EndChar

StartChar: uniE035
Encoding: 57397 57397 56
Width: 512
Flags: W
LayerCount: 2
Fore
SplineSet
363 219 m 2,0,1
 352 230 352 230 341 219 c 2,2,-1
 328 207 l 1,3,-1
 298 237 l 1,4,5
 336 284 336 284 336 344 c 0,6,7
 336 426 336 426 272 476 c 0,8,9
 226 512 226 512 168 512 c 0,10,11
 86 512 86 512 36 448 c 0,12,13
 0 402 0 402 0 344 c 0,14,15
 0 262 0 262 64 212 c 0,16,17
 110 176 110 176 168 176 c 0,18,19
 229 177 229 177 275 214 c 1,20,-1
 305 184 l 1,21,-1
 293 171 l 2,22,23
 282 160 282 160 293 149 c 2,24,-1
 437 5 l 2,25,26
 443 0 443 0 448 0 c 0,27,28
 454 1 454 1 459 5 c 2,29,-1
 507 53 l 2,30,31
 518 64 518 64 507 75 c 2,32,-1
 363 219 l 2,0,1
32 344 m 0,33,34
 32 413 32 413 88 454 c 0,35,36
 125 480 125 480 168 480 c 0,37,38
 237 480 237 480 278 424 c 0,39,40
 304 387 304 387 304 344 c 0,41,42
 304 275 304 275 248 234 c 0,43,44
 212 208 212 208 168 208 c 0,45,46
 99 208 99 208 58 264 c 0,47,48
 32 301 32 301 32 344 c 0,33,34
448 39 m 1,49,-1
 327 160 l 1,50,-1
 352 185 l 1,51,-1
 473 64 l 1,52,-1
 448 39 l 1,49,-1
EndSplineSet
EndChar

StartChar: uniE036
Encoding: 57398 57398 57
Width: 512
Flags: W
LayerCount: 2
Fore
SplineSet
363 219 m 2,0,1
 352 230 352 230 341 219 c 2,2,-1
 328 207 l 1,3,-1
 298 237 l 1,4,5
 336 284 336 284 336 344 c 0,6,7
 336 426 336 426 272 476 c 0,8,9
 226 512 226 512 168 512 c 0,10,11
 86 512 86 512 36 448 c 0,12,13
 0 402 0 402 0 344 c 0,14,15
 0 262 0 262 64 212 c 0,16,17
 110 176 110 176 168 176 c 0,18,19
 229 177 229 177 275 214 c 1,20,-1
 305 184 l 1,21,-1
 293 171 l 2,22,23
 282 160 282 160 293 149 c 2,24,-1
 437 5 l 2,25,26
 443 0 443 0 448 0 c 0,27,28
 454 1 454 1 459 5 c 2,29,-1
 507 53 l 2,30,31
 518 64 518 64 507 75 c 2,32,-1
 363 219 l 2,0,1
32 344 m 0,33,34
 32 413 32 413 88 454 c 0,35,36
 125 480 125 480 168 480 c 0,37,38
 237 480 237 480 278 424 c 0,39,40
 304 387 304 387 304 344 c 0,41,42
 304 275 304 275 248 234 c 0,43,44
 212 208 212 208 168 208 c 0,45,46
 99 208 99 208 58 264 c 0,47,48
 32 301 32 301 32 344 c 0,33,34
448 39 m 1,49,-1
 327 160 l 1,50,-1
 352 185 l 1,51,-1
 473 64 l 1,52,-1
 448 39 l 1,49,-1
240 360 m 1,53,-1
 96 360 l 1,54,55
 81 358 81 358 80 344 c 1,56,57
 82 329 82 329 96 328 c 1,58,-1
 240 328 l 1,59,60
 255 330 255 330 256 344 c 1,61,62
 254 359 254 359 240 360 c 1,53,-1
EndSplineSet
EndChar

StartChar: uniE037
Encoding: 57399 57399 58
Width: 512
Flags: W
LayerCount: 2
Fore
SplineSet
168 176 m 0,0,1
 229 177 229 177 275 214 c 1,2,-1
 305 184 l 1,3,-1
 293 171 l 2,4,5
 282 160 282 160 293 149 c 2,6,-1
 437 5 l 2,7,8
 443 0 443 0 448 0 c 0,9,10
 454 1 454 1 459 5 c 2,11,-1
 507 53 l 2,12,13
 518 64 518 64 507 75 c 2,14,-1
 363 219 l 2,15,16
 352 230 352 230 341 219 c 2,17,-1
 328 207 l 1,18,-1
 298 237 l 1,19,20
 336 284 336 284 336 344 c 0,21,22
 336 426 336 426 272 476 c 0,23,24
 226 512 226 512 168 512 c 0,25,26
 86 512 86 512 36 448 c 0,27,28
 0 402 0 402 0 344 c 0,29,30
 0 262 0 262 64 212 c 0,31,32
 110 176 110 176 168 176 c 0,0,1
473 64 m 1,33,-1
 448 39 l 1,34,-1
 327 160 l 1,35,-1
 352 185 l 1,36,-1
 473 64 l 1,33,-1
168 480 m 0,37,38
 237 480 237 480 278 424 c 0,39,40
 304 387 304 387 304 344 c 0,41,42
 304 275 304 275 248 234 c 0,43,44
 212 208 212 208 168 208 c 0,45,46
 99 208 99 208 58 264 c 0,47,48
 32 301 32 301 32 344 c 0,49,50
 32 413 32 413 88 454 c 0,51,52
 125 480 125 480 168 480 c 0,37,38
96 328 m 1,53,-1
 152 328 l 1,54,-1
 152 272 l 1,55,56
 154 257 154 257 168 256 c 1,57,58
 183 258 183 258 184 272 c 1,59,-1
 184 328 l 1,60,-1
 240 328 l 1,61,62
 255 330 255 330 256 344 c 1,63,64
 254 359 254 359 240 360 c 1,65,-1
 184 360 l 1,66,-1
 184 416 l 1,67,68
 182 431 182 431 168 432 c 1,69,70
 153 430 153 430 152 416 c 1,71,-1
 152 360 l 1,72,-1
 96 360 l 1,73,74
 81 358 81 358 80 344 c 1,75,76
 82 329 82 329 96 328 c 1,53,-1
EndSplineSet
EndChar

StartChar: uniE038
Encoding: 57400 57400 59
Width: 512
Flags: W
LayerCount: 2
Fore
SplineSet
496 416 m 1,0,-1
 16 416 l 1,1,2
 1 414 1 414 0 400 c 1,3,-1
 0 112 l 1,4,5
 2 97 2 97 16 96 c 1,6,-1
 496 96 l 1,7,8
 511 98 511 98 512 112 c 1,9,-1
 512 400 l 1,10,11
 510 415 510 415 496 416 c 1,0,-1
445 384 m 1,12,-1
 256 267 l 1,13,-1
 67 384 l 1,14,-1
 445 384 l 1,12,-1
32 128 m 1,15,-1
 32 368 l 1,16,-1
 256 229 l 1,17,-1
 480 368 l 1,18,-1
 480 128 l 1,19,-1
 32 128 l 1,15,-1
EndSplineSet
EndChar

StartChar: uniE039
Encoding: 57401 57401 60
Width: 512
Flags: W
LayerCount: 2
Fore
SplineSet
502 319 m 1,0,-1
 432 347 l 1,1,-1
 432 496 l 1,2,3
 430 511 430 511 416 512 c 1,4,-1
 96 512 l 1,5,6
 81 510 81 510 80 496 c 1,7,-1
 80 347 l 1,8,-1
 10 319 l 1,9,10
 1 313 1 313 0 304 c 1,11,-1
 0 16 l 1,12,13
 2 1 2 1 16 0 c 1,14,-1
 496 0 l 1,15,16
 511 2 511 2 512 16 c 1,17,-1
 512 304 l 1,18,19
 511 314 511 314 502 319 c 1,0,-1
464 300 m 1,20,-1
 432 280 l 1,21,-1
 432 312 l 1,22,-1
 464 300 l 1,20,-1
400 480 m 1,23,-1
 400 336 l 1,24,-1
 400 260 l 1,25,-1
 256 171 l 1,26,-1
 112 260 l 1,27,-1
 112 336 l 1,28,-1
 112 480 l 1,29,-1
 400 480 l 1,23,-1
80 280 m 1,30,-1
 48 300 l 1,31,-1
 80 312 l 1,32,-1
 80 280 l 1,30,-1
32 32 m 1,33,-1
 32 272 l 1,34,-1
 248 138 l 2,35,36
 252 136 252 136 256 136 c 256,37,38
 260 136 260 136 264 138 c 2,39,-1
 480 272 l 1,40,-1
 480 32 l 1,41,-1
 32 32 l 1,33,-1
288 416 m 1,42,-1
 352 416 l 1,43,44
 367 418 367 418 368 432 c 1,45,46
 366 447 366 447 352 448 c 1,47,-1
 288 448 l 1,48,49
 273 446 273 446 272 432 c 1,50,51
 274 417 274 417 288 416 c 1,42,-1
160 352 m 1,52,-1
 352 352 l 1,53,54
 367 354 367 354 368 368 c 1,55,56
 366 383 366 383 352 384 c 1,57,-1
 160 384 l 1,58,59
 145 382 145 382 144 368 c 1,60,61
 146 353 146 353 160 352 c 1,52,-1
160 288 m 1,62,-1
 352 288 l 1,63,64
 367 290 367 290 368 304 c 1,65,66
 366 319 366 319 352 320 c 1,67,-1
 160 320 l 1,68,69
 145 318 145 318 144 304 c 1,70,71
 146 289 146 289 160 288 c 1,62,-1
EndSplineSet
EndChar

StartChar: uniE03A
Encoding: 57402 57402 61
Width: 512
Flags: W
LayerCount: 2
Fore
SplineSet
505 485 m 1,0,1
 498 489 498 489 490 487 c 1,2,-1
 336 425 l 1,3,-1
 182 487 l 1,4,5
 176 488 176 488 170 487 c 1,6,-1
 10 423 l 1,7,8
 1 417 1 417 0 408 c 1,9,-1
 0 40 l 1,10,11
 1 32 1 32 7 27 c 0,12,13
 12 24 12 24 16 24 c 256,14,15
 20 24 20 24 22 25 c 2,16,-1
 176 87 l 1,17,-1
 330 25 l 1,18,19
 336 24 336 24 342 25 c 1,20,-1
 502 89 l 1,21,22
 511 95 511 95 512 104 c 1,23,-1
 512 472 l 1,24,25
 511 480 511 480 505 485 c 1,0,1
192 448 m 1,26,-1
 320 397 l 1,27,-1
 320 64 l 1,28,-1
 192 115 l 1,29,-1
 192 448 l 1,26,-1
32 397 m 1,30,-1
 160 448 l 1,31,-1
 160 115 l 1,32,-1
 32 64 l 1,33,-1
 32 397 l 1,30,-1
480 115 m 1,34,-1
 352 64 l 1,35,-1
 352 397 l 1,36,-1
 480 448 l 1,37,-1
 480 115 l 1,34,-1
EndSplineSet
EndChar

StartChar: uniE03B
Encoding: 57403 57403 62
Width: 512
Flags: W
LayerCount: 2
Fore
SplineSet
496 384 m 1,0,-1
 360 384 l 1,1,-1
 360 432 l 1,2,3
 358 447 358 447 344 448 c 1,4,-1
 168 448 l 1,5,6
 153 446 153 446 152 432 c 1,7,-1
 152 384 l 1,8,-1
 16 384 l 1,9,10
 1 382 1 382 0 368 c 1,11,-1
 0 80 l 1,12,13
 2 65 2 65 16 64 c 1,14,-1
 496 64 l 1,15,16
 511 66 511 66 512 80 c 1,17,-1
 512 368 l 1,18,19
 510 383 510 383 496 384 c 1,0,-1
184 416 m 1,20,-1
 328 416 l 1,21,-1
 328 384 l 1,22,-1
 184 384 l 1,23,-1
 184 416 l 1,20,-1
480 96 m 1,24,-1
 32 96 l 1,25,-1
 32 352 l 1,26,-1
 480 352 l 1,27,-1
 480 96 l 1,24,-1
272 240 m 1,28,-1
 272 304 l 1,29,30
 270 319 270 319 256 320 c 1,31,32
 241 318 241 318 240 304 c 1,33,-1
 240 240 l 1,34,-1
 176 240 l 1,35,36
 161 238 161 238 160 224 c 1,37,38
 162 209 162 209 176 208 c 1,39,-1
 240 208 l 1,40,-1
 240 144 l 1,41,42
 242 129 242 129 256 128 c 1,43,44
 271 130 271 130 272 144 c 1,45,-1
 272 208 l 1,46,-1
 336 208 l 1,47,48
 351 210 351 210 352 224 c 1,49,50
 350 239 350 239 336 240 c 1,51,-1
 272 240 l 1,28,-1
EndSplineSet
EndChar

StartChar: uniE03C
Encoding: 57404 57404 63
Width: 512
Flags: W
LayerCount: 2
Fore
SplineSet
240 161 m 1,0,-1
 240 32 l 1,1,-1
 136 32 l 1,2,3
 121 30 121 30 120 16 c 1,4,5
 122 1 122 1 136 0 c 1,6,-1
 376 0 l 1,7,8
 391 2 391 2 392 16 c 1,9,10
 390 31 390 31 376 32 c 1,11,-1
 272 32 l 1,12,-1
 272 161 l 1,13,14
 334 170 334 170 374 227 c 0,15,16
 400 265 400 265 400 304 c 1,17,18
 398 319 398 319 384 320 c 1,19,20
 369 318 369 318 368 304 c 1,21,22
 368 255 368 255 322 218 c 0,23,24
 290 192 290 192 256 192 c 0,25,26
 207 192 207 192 170 238 c 0,27,28
 144 270 144 270 144 304 c 1,29,30
 142 319 142 319 128 320 c 1,31,32
 113 318 113 318 112 304 c 1,33,34
 112 243 112 243 166 196 c 1,35,36
 201 167 201 167 240 161 c 1,0,-1
256 224 m 0,37,38
 301 224 301 224 325 263 c 1,39,40
 336 283 336 283 336 304 c 2,41,-1
 336 432 l 2,42,43
 336 477 336 477 297 501 c 1,44,45
 277 512 277 512 256 512 c 0,46,47
 211 512 211 512 187 473 c 1,48,49
 176 453 176 453 176 432 c 2,50,-1
 176 304 l 2,51,52
 176 259 176 259 215 235 c 1,53,54
 235 224 235 224 256 224 c 0,37,38
256 480 m 0,55,56
 286 480 286 480 300 452 c 0,57,58
 304 442 304 442 304 432 c 2,59,-1
 304 424 l 1,60,-1
 288 424 l 1,61,62
 273 422 273 422 272 408 c 1,63,64
 274 393 274 393 288 392 c 1,65,-1
 304 392 l 1,66,-1
 304 360 l 1,67,-1
 288 360 l 1,68,69
 273 358 273 358 272 344 c 1,70,71
 274 329 274 329 288 328 c 1,72,-1
 304 328 l 1,73,-1
 304 304 l 2,74,75
 304 274 304 274 276 260 c 0,76,77
 266 256 266 256 256 256 c 0,78,79
 226 256 226 256 212 284 c 0,80,81
 208 294 208 294 208 304 c 2,82,-1
 208 328 l 1,83,-1
 224 328 l 1,84,85
 239 330 239 330 240 344 c 1,86,87
 238 359 238 359 224 360 c 1,88,-1
 208 360 l 1,89,-1
 208 392 l 1,90,-1
 224 392 l 1,91,92
 239 394 239 394 240 408 c 1,93,94
 238 423 238 423 224 424 c 1,95,-1
 208 424 l 1,96,-1
 208 432 l 2,97,98
 208 462 208 462 236 476 c 0,99,100
 246 480 246 480 256 480 c 0,55,56
EndSplineSet
EndChar

StartChar: uniE03D
Encoding: 57405 57405 64
Width: 512
Flags: W
LayerCount: 2
Fore
SplineSet
37 69 m 2,0,-1
 101 5 l 2,1,2
 107 0 107 0 112 0 c 2,3,-1
 160 0 l 1,4,5
 166 1 166 1 171 5 c 2,6,-1
 336 169 l 1,7,-1
 361 144 l 1,8,-1
 309 91 l 2,9,10
 298 80 298 80 309 69 c 128,-1,11
 320 58 320 58 331 69 c 2,12,-1
 395 133 l 2,13,14
 406 144 406 144 395 155 c 2,15,-1
 347 203 l 2,16,17
 336 214 336 214 325 203 c 2,18,-1
 153 32 l 1,19,-1
 119 32 l 1,20,-1
 71 80 l 1,21,-1
 80 89 l 1,22,-1
 101 69 l 2,23,24
 107 64 107 64 112 64 c 0,25,26
 118 65 118 65 123 69 c 2,27,-1
 330 276 l 1,28,29
 344 272 344 272 360 272 c 0,30,31
 423 272 423 272 459 324 c 0,32,33
 480 355 480 355 480 392 c 0,34,35
 480 455 480 455 428 491 c 0,36,37
 397 512 397 512 360 512 c 0,38,39
 297 512 297 512 261 460 c 0,40,41
 240 429 240 429 240 392 c 0,42,43
 240 375 240 375 244 362 c 1,44,-1
 37 155 l 2,45,46
 26 144 26 144 37 133 c 2,47,-1
 57 112 l 1,48,-1
 37 91 l 2,49,50
 26 80 26 80 37 69 c 2,0,-1
360 480 m 0,51,52
 410 480 410 480 436 437 c 0,53,54
 448 416 448 416 448 392 c 0,55,56
 448 342 448 342 405 316 c 0,57,58
 384 304 384 304 360 304 c 0,59,60
 310 304 310 304 284 347 c 0,61,62
 272 368 272 368 272 392 c 0,63,64
 272 442 272 442 315 468 c 0,65,66
 336 480 336 480 360 480 c 0,51,52
299 289 m 1,67,-1
 256 247 l 1,68,-1
 215 288 l 1,69,-1
 257 331 l 1,70,71
 273 305 273 305 299 289 c 1,67,-1
192 265 m 1,72,-1
 233 224 l 1,73,-1
 112 103 l 1,74,-1
 71 144 l 1,75,-1
 192 265 l 1,72,-1
EndSplineSet
EndChar

StartChar: uniE03E
Encoding: 57406 57406 65
Width: 512
Flags: W
LayerCount: 2
Fore
SplineSet
256 512 m 0,0,1
 150 511 150 511 75 437 c 1,2,3
 0 361 0 361 0 256 c 0,4,5
 1 150 1 150 75 75 c 1,6,7
 151 0 151 0 256 0 c 0,8,9
 362 1 362 1 437 75 c 1,10,11
 512 151 512 151 512 256 c 0,12,13
 511 362 511 362 437 437 c 1,14,15
 361 512 361 512 256 512 c 0,0,1
414 98 m 1,16,17
 349 32 349 32 256 32 c 0,18,19
 162 33 162 33 98 98 c 1,20,21
 32 162 32 162 32 256 c 0,22,23
 33 350 33 350 98 414 c 1,24,25
 163 480 163 480 256 480 c 0,26,27
 350 479 350 479 414 414 c 1,28,29
 480 350 480 350 480 256 c 0,30,31
 479 162 479 162 414 98 c 1,16,17
400 272 m 1,32,-1
 112 272 l 1,33,34
 97 270 97 270 96 256 c 1,35,36
 98 241 98 241 112 240 c 1,37,-1
 400 240 l 1,38,39
 415 242 415 242 416 256 c 1,40,41
 414 271 414 271 400 272 c 1,32,-1
EndSplineSet
EndChar

StartChar: uniE03F
Encoding: 57407 57407 66
Width: 512
Flags: W
LayerCount: 2
Fore
SplineSet
496 464 m 1,0,-1
 80 464 l 1,1,2
 65 462 65 462 64 448 c 1,3,-1
 64 400 l 1,4,-1
 16 400 l 1,5,6
 1 398 1 398 0 384 c 1,7,-1
 0 64 l 1,8,9
 2 49 2 49 16 48 c 1,10,-1
 432 48 l 1,11,12
 447 50 447 50 448 64 c 1,13,-1
 448 112 l 1,14,-1
 496 112 l 1,15,16
 511 114 511 114 512 128 c 1,17,-1
 512 448 l 1,18,19
 510 463 510 463 496 464 c 1,0,-1
416 368 m 1,20,-1
 416 115 l 1,21,-1
 330 188 l 2,22,23
 322 194 322 194 312 190 c 1,24,-1
 243 149 l 1,25,-1
 140 267 l 1,26,27
 134 272 134 272 129 272 c 0,28,29
 122 271 122 271 117 267 c 2,30,-1
 32 183 l 1,31,-1
 32 368 l 1,32,-1
 416 368 l 1,20,-1
32 137 m 1,33,-1
 127 233 l 1,34,-1
 228 117 l 1,35,36
 238 109 238 109 248 114 c 2,37,-1
 318 156 l 1,38,-1
 407 80 l 1,39,-1
 32 80 l 1,40,-1
 32 137 l 1,33,-1
480 144 m 1,41,-1
 448 144 l 1,42,-1
 448 384 l 1,43,44
 446 399 446 399 432 400 c 1,45,-1
 96 400 l 1,46,-1
 96 432 l 1,47,-1
 480 432 l 1,48,-1
 480 144 l 1,41,-1
328 224 m 0,49,50
 363 224 363 224 378 255 c 0,51,52
 384 268 384 268 384 280 c 0,53,54
 384 315 384 315 353 330 c 0,55,56
 340 336 340 336 328 336 c 0,57,58
 293 336 293 336 278 305 c 0,59,60
 272 292 272 292 272 280 c 0,61,62
 272 245 272 245 303 230 c 0,63,64
 316 224 316 224 328 224 c 0,49,50
328 304 m 0,65,66
 346 304 346 304 351 286 c 0,67,68
 352 283 352 283 352 280 c 0,69,70
 352 262 352 262 334 257 c 0,71,72
 331 256 331 256 328 256 c 0,73,74
 310 256 310 256 305 274 c 0,75,76
 304 277 304 277 304 280 c 0,77,78
 304 298 304 298 322 303 c 0,79,80
 325 304 325 304 328 304 c 0,65,66
EndSplineSet
EndChar

StartChar: uniE040
Encoding: 57408 57408 67
Width: 512
Flags: W
LayerCount: 2
Fore
SplineSet
256 512 m 0,0,1
 150 511 150 511 75 437 c 1,2,3
 0 361 0 361 0 256 c 0,4,5
 1 150 1 150 75 75 c 1,6,7
 151 0 151 0 256 0 c 0,8,9
 362 1 362 1 437 75 c 1,10,11
 512 151 512 151 512 256 c 0,12,13
 511 362 511 362 437 437 c 1,14,15
 361 512 361 512 256 512 c 0,0,1
414 98 m 1,16,17
 349 32 349 32 256 32 c 0,18,19
 162 33 162 33 98 98 c 1,20,21
 32 162 32 162 32 256 c 0,22,23
 33 350 33 350 98 414 c 1,24,25
 163 480 163 480 256 480 c 0,26,27
 350 479 350 479 414 414 c 1,28,29
 480 350 480 350 480 256 c 0,30,31
 479 162 479 162 414 98 c 1,16,17
231 358 m 1,32,33
 222 361 222 361 214 357 c 1,34,-1
 102 269 l 2,35,36
 96 264 96 264 96 256 c 0,37,38
 97 248 97 248 102 243 c 2,39,-1
 214 155 l 2,40,41
 219 152 219 152 224 152 c 0,42,43
 227 152 227 152 231 154 c 0,44,45
 239 158 239 158 240 168 c 1,46,-1
 240 344 l 1,47,48
 239 354 239 354 231 358 c 1,32,33
208 201 m 1,49,-1
 138 256 l 1,50,-1
 208 311 l 1,51,-1
 208 201 l 1,49,-1
391 358 m 1,52,53
 382 361 382 361 374 357 c 1,54,-1
 262 269 l 2,55,56
 256 264 256 264 256 256 c 0,57,58
 257 248 257 248 262 243 c 2,59,-1
 374 155 l 2,60,61
 379 152 379 152 384 152 c 0,62,63
 387 152 387 152 391 154 c 0,64,65
 399 158 399 158 400 168 c 1,66,-1
 400 344 l 1,67,68
 399 354 399 354 391 358 c 1,52,53
368 201 m 1,69,-1
 298 256 l 1,70,-1
 368 311 l 1,71,-1
 368 201 l 1,69,-1
EndSplineSet
EndChar

StartChar: uniE041
Encoding: 57409 57409 68
Width: 512
Flags: W
LayerCount: 2
Fore
SplineSet
256 512 m 0,0,1
 150 511 150 511 75 437 c 1,2,3
 0 361 0 361 0 256 c 0,4,5
 1 150 1 150 75 75 c 1,6,7
 151 0 151 0 256 0 c 0,8,9
 362 1 362 1 437 75 c 1,10,11
 512 151 512 151 512 256 c 0,12,13
 511 362 511 362 437 437 c 1,14,15
 361 512 361 512 256 512 c 0,0,1
414 98 m 1,16,17
 349 32 349 32 256 32 c 0,18,19
 162 33 162 33 98 98 c 1,20,21
 32 162 32 162 32 256 c 0,22,23
 33 350 33 350 98 414 c 1,24,25
 163 480 163 480 256 480 c 0,26,27
 350 479 350 479 414 414 c 1,28,29
 480 350 480 350 480 256 c 0,30,31
 479 162 479 162 414 98 c 1,16,17
263 358 m 1,32,33
 254 361 254 361 246 357 c 1,34,-1
 134 269 l 2,35,36
 128 264 128 264 128 256 c 0,37,38
 129 248 129 248 134 243 c 2,39,-1
 246 155 l 2,40,41
 251 152 251 152 256 152 c 0,42,43
 259 152 259 152 263 154 c 0,44,45
 271 158 271 158 272 168 c 1,46,-1
 272 344 l 1,47,48
 271 354 271 354 263 358 c 1,32,33
240 201 m 1,49,-1
 170 256 l 1,50,-1
 240 311 l 1,51,-1
 240 201 l 1,49,-1
406 357 m 1,52,-1
 294 269 l 2,53,54
 288 264 288 264 288 256 c 0,55,56
 289 248 289 248 294 243 c 2,57,-1
 406 155 l 2,58,59
 411 152 411 152 416 152 c 0,60,61
 419 152 419 152 423 154 c 0,62,63
 431 158 431 158 432 168 c 1,64,-1
 432 344 l 1,65,66
 431 354 431 354 423 358 c 1,67,68
 414 361 414 361 406 357 c 1,52,-1
400 201 m 1,69,-1
 330 256 l 1,70,-1
 400 311 l 1,71,-1
 400 201 l 1,69,-1
96 344 m 1,72,73
 81 342 81 342 80 328 c 1,74,-1
 80 184 l 1,75,76
 82 169 82 169 96 168 c 1,77,78
 111 170 111 170 112 184 c 1,79,-1
 112 328 l 1,80,81
 110 343 110 343 96 344 c 1,72,73
EndSplineSet
EndChar

StartChar: uniE042
Encoding: 57410 57410 69
Width: 512
Flags: W
LayerCount: 2
Fore
SplineSet
256 512 m 0,0,1
 150 511 150 511 75 437 c 1,2,3
 0 361 0 361 0 256 c 0,4,5
 1 150 1 150 75 75 c 1,6,7
 151 0 151 0 256 0 c 0,8,9
 362 1 362 1 437 75 c 1,10,11
 512 151 512 151 512 256 c 0,12,13
 511 362 511 362 437 437 c 1,14,15
 361 512 361 512 256 512 c 0,0,1
414 98 m 1,16,17
 349 32 349 32 256 32 c 0,18,19
 162 33 162 33 98 98 c 1,20,21
 32 162 32 162 32 256 c 0,22,23
 33 350 33 350 98 414 c 1,24,25
 163 480 163 480 256 480 c 0,26,27
 350 479 350 479 414 414 c 1,28,29
 480 350 480 350 480 256 c 0,30,31
 479 162 479 162 414 98 c 1,16,17
269 362 m 2,32,33
 260 373 260 373 247 366 c 0,34,35
 244 364 244 364 243 362 c 2,36,-1
 155 250 l 1,37,38
 151 241 151 241 154 233 c 1,39,40
 159 225 159 225 168 224 c 1,41,-1
 344 224 l 1,42,43
 354 225 354 225 358 233 c 1,44,45
 361 242 361 242 357 250 c 1,46,-1
 269 362 l 2,32,33
201 256 m 1,47,-1
 256 326 l 1,48,-1
 311 256 l 1,49,-1
 201 256 l 1,47,-1
336 208 m 1,50,-1
 176 208 l 1,51,52
 161 206 161 206 160 192 c 1,53,54
 162 177 162 177 176 176 c 1,55,-1
 336 176 l 1,56,57
 351 178 351 178 352 192 c 1,58,59
 350 207 350 207 336 208 c 1,50,-1
EndSplineSet
EndChar

StartChar: uniE043
Encoding: 57411 57411 70
Width: 512
Flags: W
LayerCount: 2
Fore
SplineSet
256 512 m 0,0,1
 150 511 150 511 75 437 c 1,2,3
 0 361 0 361 0 256 c 0,4,5
 1 150 1 150 75 75 c 1,6,7
 151 0 151 0 256 0 c 0,8,9
 362 1 362 1 437 75 c 1,10,11
 512 151 512 151 512 256 c 0,12,13
 511 362 511 362 437 437 c 1,14,15
 361 512 361 512 256 512 c 0,0,1
414 98 m 1,16,17
 349 32 349 32 256 32 c 0,18,19
 162 33 162 33 98 98 c 1,20,21
 32 162 32 162 32 256 c 0,22,23
 33 350 33 350 98 414 c 1,24,25
 163 480 163 480 256 480 c 0,26,27
 350 479 350 479 414 414 c 1,28,29
 480 350 480 350 480 256 c 0,30,31
 479 162 479 162 414 98 c 1,16,17
410 269 m 2,32,-1
 298 357 l 1,33,34
 289 362 289 362 281 358 c 0,35,36
 273 353 273 353 272 344 c 1,37,-1
 272 168 l 1,38,39
 273 158 273 158 281 154 c 0,40,41
 285 152 285 152 288 152 c 0,42,43
 294 153 294 153 298 155 c 2,44,-1
 410 243 l 2,45,46
 416 248 416 248 416 256 c 0,47,48
 415 264 415 264 410 269 c 2,32,-1
304 201 m 1,49,-1
 304 311 l 1,50,-1
 374 256 l 1,51,-1
 304 201 l 1,49,-1
250 269 m 2,52,-1
 138 357 l 1,53,54
 129 362 129 362 121 358 c 0,55,56
 113 353 113 353 112 344 c 1,57,-1
 112 168 l 1,58,59
 113 158 113 158 121 154 c 0,60,61
 125 152 125 152 128 152 c 0,62,63
 134 153 134 153 138 155 c 2,64,-1
 250 243 l 2,65,66
 256 248 256 248 256 256 c 0,67,68
 255 264 255 264 250 269 c 2,52,-1
144 201 m 1,69,-1
 144 311 l 1,70,-1
 214 256 l 1,71,-1
 144 201 l 1,69,-1
EndSplineSet
EndChar

StartChar: uniE044
Encoding: 57412 57412 71
Width: 512
Flags: W
LayerCount: 2
Fore
SplineSet
256 512 m 0,0,1
 150 511 150 511 75 437 c 1,2,3
 0 361 0 361 0 256 c 0,4,5
 1 150 1 150 75 75 c 1,6,7
 151 0 151 0 256 0 c 0,8,9
 362 1 362 1 437 75 c 1,10,11
 512 151 512 151 512 256 c 0,12,13
 511 362 511 362 437 437 c 1,14,15
 361 512 361 512 256 512 c 0,0,1
414 98 m 1,16,17
 349 32 349 32 256 32 c 0,18,19
 162 33 162 33 98 98 c 1,20,21
 32 162 32 162 32 256 c 0,22,23
 33 350 33 350 98 414 c 1,24,25
 163 480 163 480 256 480 c 0,26,27
 350 479 350 479 414 414 c 1,28,29
 480 350 480 350 480 256 c 0,30,31
 479 162 479 162 414 98 c 1,16,17
378 269 m 2,32,-1
 266 357 l 1,33,34
 257 361 257 361 249 358 c 1,35,36
 241 353 241 353 240 344 c 1,37,-1
 240 168 l 1,38,39
 241 158 241 158 249 154 c 0,40,41
 253 152 253 152 256 152 c 0,42,43
 262 153 262 153 266 155 c 2,44,-1
 378 243 l 2,45,46
 384 248 384 248 384 256 c 0,47,48
 383 264 383 264 378 269 c 2,32,-1
272 201 m 1,49,-1
 272 311 l 1,50,-1
 342 256 l 1,51,-1
 272 201 l 1,49,-1
218 269 m 2,52,-1
 106 357 l 1,53,54
 97 362 97 362 89 358 c 0,55,56
 81 353 81 353 80 344 c 1,57,-1
 80 168 l 1,58,59
 81 158 81 158 89 154 c 0,60,61
 93 152 93 152 96 152 c 0,62,63
 102 153 102 153 106 155 c 2,64,-1
 218 243 l 2,65,66
 224 248 224 248 224 256 c 0,67,68
 223 264 223 264 218 269 c 2,52,-1
112 201 m 1,69,-1
 112 311 l 1,70,-1
 182 256 l 1,71,-1
 112 201 l 1,69,-1
400 328 m 1,72,-1
 400 184 l 1,73,74
 402 169 402 169 416 168 c 1,75,76
 431 170 431 170 432 184 c 1,77,-1
 432 328 l 1,78,79
 430 343 430 343 416 344 c 1,80,81
 401 342 401 342 400 328 c 1,72,-1
EndSplineSet
EndChar

StartChar: uniE045
Encoding: 57413 57413 72
Width: 512
Flags: W
LayerCount: 2
Fore
SplineSet
192 344 m 1,0,1
 177 342 177 342 176 328 c 1,2,-1
 176 184 l 1,3,4
 178 169 178 169 192 168 c 1,5,6
 207 170 207 170 208 184 c 1,7,-1
 208 328 l 1,8,9
 206 343 206 343 192 344 c 1,0,1
320 344 m 1,10,11
 305 342 305 342 304 328 c 1,12,-1
 304 184 l 1,13,14
 306 169 306 169 320 168 c 1,15,16
 335 170 335 170 336 184 c 1,17,-1
 336 328 l 1,18,19
 334 343 334 343 320 344 c 1,10,11
256 512 m 0,20,21
 150 511 150 511 75 437 c 1,22,23
 0 361 0 361 0 256 c 0,24,25
 1 150 1 150 75 75 c 1,26,27
 151 0 151 0 256 0 c 0,28,29
 362 1 362 1 437 75 c 1,30,31
 512 151 512 151 512 256 c 0,32,33
 511 362 511 362 437 437 c 1,34,35
 361 512 361 512 256 512 c 0,20,21
414 98 m 1,36,37
 349 32 349 32 256 32 c 0,38,39
 162 33 162 33 98 98 c 1,40,41
 32 162 32 162 32 256 c 0,42,43
 33 350 33 350 98 414 c 1,44,45
 163 480 163 480 256 480 c 0,46,47
 350 479 350 479 414 414 c 1,48,49
 480 350 480 350 480 256 c 0,50,51
 479 162 479 162 414 98 c 1,36,37
EndSplineSet
EndChar

StartChar: uniE046
Encoding: 57414 57414 73
Width: 512
Flags: W
LayerCount: 2
Fore
SplineSet
256 512 m 0,0,1
 150 511 150 511 75 437 c 1,2,3
 0 361 0 361 0 256 c 0,4,5
 1 150 1 150 75 75 c 1,6,7
 151 0 151 0 256 0 c 0,8,9
 362 1 362 1 437 75 c 1,10,11
 512 151 512 151 512 256 c 0,12,13
 511 362 511 362 437 437 c 1,14,15
 361 512 361 512 256 512 c 0,0,1
414 98 m 1,16,17
 349 32 349 32 256 32 c 0,18,19
 162 33 162 33 98 98 c 1,20,21
 32 162 32 162 32 256 c 0,22,23
 33 350 33 350 98 414 c 1,24,25
 163 480 163 480 256 480 c 0,26,27
 350 479 350 479 414 414 c 1,28,29
 480 350 480 350 480 256 c 0,30,31
 479 162 479 162 414 98 c 1,16,17
338 269 m 2,32,-1
 226 357 l 1,33,34
 217 361 217 361 209 358 c 0,35,36
 201 354 201 354 200 344 c 1,37,-1
 200 168 l 1,38,39
 201 158 201 158 209 154 c 0,40,41
 213 152 213 152 216 152 c 0,42,43
 222 153 222 153 226 155 c 2,44,-1
 338 243 l 2,45,46
 344 248 344 248 344 256 c 0,47,48
 343 264 343 264 338 269 c 2,32,-1
232 201 m 1,49,-1
 232 311 l 1,50,-1
 302 256 l 1,51,-1
 232 201 l 1,49,-1
EndSplineSet
EndChar

StartChar: uniE047
Encoding: 57415 57415 74
Width: 512
Flags: W
LayerCount: 2
Fore
SplineSet
511 389 m 1,0,-1
 511 390 l 1,1,-1
 510 391 l 1,2,-1
 510 392 l 1,3,-1
 509 393 l 2,4,5
 508 394 508 394 507 395 c 2,6,-1
 443 459 l 2,7,8
 432 470 432 470 421 459 c 128,-1,9
 410 448 410 448 421 437 c 2,10,-1
 457 400 l 1,11,-1
 377 400 l 1,12,-1
 121 144 l 1,13,-1
 16 144 l 1,14,15
 1 142 1 142 0 128 c 1,16,17
 2 113 2 113 16 112 c 1,18,-1
 135 112 l 1,19,-1
 391 368 l 1,20,-1
 457 368 l 1,21,-1
 421 331 l 2,22,23
 410 320 410 320 421 309 c 0,24,25
 427 304 427 304 432 304 c 0,26,27
 438 305 438 305 443 309 c 2,28,-1
 507 373 l 2,29,30
 508 374 508 374 509 375 c 2,31,-1
 510 376 l 1,32,-1
 510 377 l 1,33,-1
 511 378 l 1,34,-1
 511 379 l 2,35,36
 511 380 511 380 512 380 c 1,37,-1
 512 381 l 1,38,-1
 512 387 l 2,39,40
 512 388 512 388 511.5 388 c 128,-1,41
 511 388 511 388 511 388 c 1,42,-1
 511 389 l 1,0,-1
511 122 m 1,43,-1
 511 123 l 2,44,45
 511 124 511 124 512 124 c 1,46,-1
 512 125 l 1,47,-1
 512 131 l 2,48,49
 512 132 512 132 511.5 132 c 128,-1,50
 511 132 511 132 511 132 c 1,51,-1
 511 133 l 1,52,-1
 511 134 l 1,53,-1
 510 135 l 1,54,-1
 510 136 l 1,55,-1
 509 137 l 2,56,57
 508 138 508 138 507 139 c 2,58,-1
 443 203 l 2,59,60
 432 214 432 214 421 203 c 128,-1,61
 410 192 410 192 421 181 c 2,62,-1
 457 144 l 1,63,-1
 391 144 l 1,64,-1
 315 219 l 2,65,66
 304 230 304 230 293 219 c 128,-1,67
 282 208 282 208 293 197 c 2,68,-1
 377 112 l 1,69,-1
 457 112 l 1,70,-1
 421 75 l 2,71,72
 410 64 410 64 421 53 c 0,73,74
 427 48 427 48 432 48 c 0,75,76
 438 49 438 49 443 53 c 2,77,-1
 507 117 l 2,78,79
 508 118 508 118 509 119 c 2,80,-1
 510 120 l 1,81,-1
 510 121 l 1,82,-1
 511 122 l 1,43,-1
16 368 m 1,83,-1
 121 368 l 1,84,-1
 197 293 l 2,85,86
 203 288 203 288 208 288 c 0,87,88
 214 289 214 289 219 293 c 0,89,90
 230 304 230 304 219 315 c 2,91,-1
 135 400 l 1,92,-1
 16 400 l 1,93,94
 1 398 1 398 0 384 c 1,95,96
 2 369 2 369 16 368 c 1,83,-1
EndSplineSet
EndChar

StartChar: uniE048
Encoding: 57416 57416 75
Width: 512
Flags: W
LayerCount: 2
Fore
SplineSet
432 144 m 1,0,-1
 96 144 l 1,1,-1
 96 281 l 1,2,-1
 133 245 l 2,3,4
 139 240 139 240 144 240 c 0,5,6
 150 241 150 241 155 245 c 0,7,8
 166 256 166 256 155 267 c 2,9,-1
 91 331 l 2,10,11
 90 332 90 332 89 333 c 2,12,-1
 88 334 l 1,13,-1
 87 334 l 1,14,-1
 86 335 l 1,15,-1
 85 335 l 2,16,17
 84 335 84 335 84 336 c 1,18,-1
 83 336 l 1,19,-1
 77 336 l 2,20,21
 76 336 76 336 76 335.5 c 128,-1,22
 76 335 76 335 76 335 c 1,23,-1
 75 335 l 1,24,-1
 74 335 l 1,25,-1
 73 334 l 1,26,-1
 72 334 l 1,27,-1
 71 333 l 2,28,29
 70 332 70 332 69 331 c 2,30,-1
 5 267 l 2,31,32
 -6 256 -6 256 5 245 c 128,-1,33
 16 234 16 234 27 245 c 2,34,-1
 64 281 l 1,35,-1
 64 128 l 1,36,37
 66 113 66 113 80 112 c 1,38,-1
 432 112 l 1,39,40
 447 114 447 114 448 128 c 1,41,42
 446 143 446 143 432 144 c 1,0,-1
485 267 m 2,43,-1
 448 231 l 1,44,-1
 448 384 l 1,45,46
 446 399 446 399 432 400 c 1,47,-1
 80 400 l 1,48,49
 65 398 65 398 64 384 c 1,50,51
 66 369 66 369 80 368 c 1,52,-1
 416 368 l 1,53,-1
 416 231 l 1,54,-1
 379 267 l 2,55,56
 368 278 368 278 357 267 c 128,-1,57
 346 256 346 256 357 245 c 2,58,-1
 421 181 l 2,59,60
 422 180 422 180 423 179 c 2,61,-1
 424 178 l 1,62,-1
 425 178 l 1,63,-1
 426 177 l 1,64,-1
 427 177 l 2,65,66
 428 177 428 177 428 176 c 1,67,-1
 429 176 l 1,68,-1
 432 176 l 1,69,-1
 435 176 l 2,70,71
 436 176 436 176 436 176.5 c 128,-1,72
 436 177 436 177 436 177 c 1,73,-1
 437 177 l 1,74,-1
 438 177 l 1,75,-1
 439 178 l 1,76,-1
 440 178 l 1,77,-1
 441 179 l 2,78,79
 442 180 442 180 443 181 c 2,80,-1
 507 245 l 2,81,82
 518 256 518 256 507 267 c 128,-1,83
 496 278 496 278 485 267 c 2,43,-1
EndSplineSet
EndChar

StartChar: uniE049
Encoding: 57417 57417 76
Width: 512
Flags: W
LayerCount: 2
Fore
SplineSet
256 512 m 0,0,1
 150 511 150 511 75 437 c 1,2,3
 0 361 0 361 0 256 c 0,4,5
 1 150 1 150 75 75 c 1,6,7
 151 0 151 0 256 0 c 0,8,9
 362 1 362 1 437 75 c 1,10,11
 512 151 512 151 512 256 c 0,12,13
 511 362 511 362 437 437 c 1,14,15
 361 512 361 512 256 512 c 0,0,1
414 98 m 1,16,17
 349 32 349 32 256 32 c 0,18,19
 162 33 162 33 98 98 c 1,20,21
 32 162 32 162 32 256 c 0,22,23
 33 350 33 350 98 414 c 1,24,25
 163 480 163 480 256 480 c 0,26,27
 350 479 350 479 414 414 c 1,28,29
 480 350 480 350 480 256 c 0,30,31
 479 162 479 162 414 98 c 1,16,17
336 352 m 1,32,-1
 176 352 l 1,33,34
 161 350 161 350 160 336 c 1,35,-1
 160 176 l 1,36,37
 162 161 162 161 176 160 c 1,38,-1
 336 160 l 1,39,40
 351 162 351 162 352 176 c 1,41,-1
 352 336 l 1,42,43
 350 351 350 351 336 352 c 1,32,-1
320 192 m 1,44,-1
 192 192 l 1,45,-1
 192 320 l 1,46,-1
 320 320 l 1,47,-1
 320 192 l 1,44,-1
EndSplineSet
EndChar

StartChar: uniE04A
Encoding: 57418 57418 77
Width: 512
Flags: W
LayerCount: 2
Fore
SplineSet
144 0 m 0,0,1
 189 0 189 0 213 39 c 1,2,3
 224 59 224 59 224 80 c 2,4,-1
 224 307 l 1,5,-1
 416 348 l 1,6,-1
 416 192 l 1,7,8
 395 208 395 208 368 208 c 0,9,10
 323 208 323 208 299 169 c 1,11,12
 288 149 288 149 288 128 c 0,13,14
 288 83 288 83 327 59 c 1,15,16
 347 48 347 48 368 48 c 0,17,18
 413 48 413 48 437 87 c 1,19,20
 448 107 448 107 448 128 c 2,21,-1
 448 368 l 1,22,-1
 448 496 l 2,23,24
 448 504 448 504 442 508 c 0,25,26
 435 513 435 513 429 512 c 2,27,-1
 205 464 l 1,28,29
 193 460 193 460 192 448 c 1,30,-1
 192 320 l 1,31,-1
 192 144 l 1,32,33
 171 160 171 160 144 160 c 0,34,35
 99 160 99 160 75 121 c 1,36,37
 64 101 64 101 64 80 c 0,38,39
 64 35 64 35 103 11 c 1,40,41
 123 0 123 0 144 0 c 0,0,1
368 80 m 0,42,43
 338 80 338 80 324 108 c 0,44,45
 320 118 320 118 320 128 c 0,46,47
 320 158 320 158 348 172 c 0,48,49
 358 176 358 176 368 176 c 0,50,51
 398 176 398 176 412 148 c 0,52,53
 416 138 416 138 416 128 c 0,54,55
 416 98 416 98 388 84 c 0,56,57
 378 80 378 80 368 80 c 0,42,43
416 476 m 1,58,-1
 416 381 l 1,59,-1
 224 340 l 1,60,-1
 224 435 l 1,61,-1
 416 476 l 1,58,-1
144 128 m 0,62,63
 174 128 174 128 188 100 c 0,64,65
 192 90 192 90 192 80 c 0,66,67
 192 50 192 50 164 36 c 0,68,69
 154 32 154 32 144 32 c 0,70,71
 114 32 114 32 100 60 c 0,72,73
 96 70 96 70 96 80 c 0,74,75
 96 110 96 110 124 124 c 0,76,77
 134 128 134 128 144 128 c 0,62,63
EndSplineSet
EndChar

StartChar: uniE04B
Encoding: 57419 57419 78
Width: 512
Flags: W
LayerCount: 2
Fore
SplineSet
176 0 m 0,0,1
 221 0 221 0 245 39 c 1,2,3
 256 59 256 59 256 80 c 2,4,-1
 256 308 l 1,5,-1
 405 353 l 1,6,7
 415 358 415 358 416 368 c 1,8,-1
 416 496 l 1,9,10
 415 504 415 504 410 509 c 1,11,12
 402 513 402 513 395 511 c 2,13,-1
 235 463 l 1,14,15
 225 458 225 458 224 448 c 1,16,-1
 224 320 l 1,17,-1
 224 144 l 1,18,19
 203 160 203 160 176 160 c 0,20,21
 131 160 131 160 107 121 c 1,22,23
 96 101 96 101 96 80 c 0,24,25
 96 35 96 35 135 11 c 1,26,27
 155 0 155 0 176 0 c 0,0,1
256 436 m 1,28,-1
 384 474 l 1,29,-1
 384 380 l 1,30,-1
 256 342 l 1,31,-1
 256 436 l 1,28,-1
176 128 m 0,32,33
 206 128 206 128 220 100 c 0,34,35
 224 90 224 90 224 80 c 0,36,37
 224 50 224 50 196 36 c 0,38,39
 186 32 186 32 176 32 c 0,40,41
 146 32 146 32 132 60 c 0,42,43
 128 70 128 70 128 80 c 0,44,45
 128 110 128 110 156 124 c 0,46,47
 166 128 166 128 176 128 c 0,32,33
EndSplineSet
EndChar

StartChar: uniE04C
Encoding: 57420 57420 79
Width: 512
Flags: W
LayerCount: 2
Fore
SplineSet
504 334 m 1,0,1
 496 338 496 338 488 334 c 2,2,-1
 376 268 l 1,3,-1
 376 320 l 1,4,5
 374 335 374 335 360 336 c 1,6,-1
 319 336 l 1,7,8
 344 363 344 363 344 400 c 0,9,10
 344 453 344 453 299 481 c 0,11,12
 275 496 275 496 248 496 c 0,13,14
 197 496 197 496 168 453 c 0,15,16
 159 438 159 438 155 422 c 1,17,18
 138 432 138 432 120 432 c 0,19,20
 81 432 81 432 63 397 c 0,21,22
 56 383 56 383 56 368 c 0,23,24
 57 349 57 349 65 336 c 1,25,-1
 16 336 l 1,26,27
 1 334 1 334 0 320 c 1,28,-1
 0 128 l 1,29,30
 1 116 1 116 12 112 c 1,31,-1
 356 32 l 1,32,-1
 360 32 l 1,33,34
 366 33 366 33 370 35 c 1,35,36
 376 42 376 42 376 48 c 2,37,-1
 376 100 l 1,38,-1
 488 34 l 2,39,40
 496 30 496 30 504 34 c 1,41,42
 511 40 511 40 512 48 c 1,43,-1
 512 320 l 1,44,45
 511 329 511 329 504 334 c 1,0,1
248 464 m 0,46,47
 287 464 287 464 305 429 c 0,48,49
 312 415 312 415 312 400 c 0,50,51
 312 361 312 361 277 343 c 0,52,53
 263 336 263 336 248 336 c 0,54,55
 209 336 209 336 191 371 c 0,56,57
 184 385 184 385 184 400 c 0,58,59
 184 439 184 439 219 457 c 0,60,61
 233 464 233 464 248 464 c 0,46,47
177 336 m 1,62,-1
 175 336 l 1,63,-1
 176 337 l 1,64,-1
 177 336 l 1,62,-1
88 368 m 0,65,66
 88 392 88 392 110 399 c 0,67,68
 116 400 116 400 120 400 c 0,69,70
 144 400 144 400 151 378 c 0,71,72
 152 372 152 372 152 368 c 0,73,74
 152 344 152 344 130 337 c 0,75,76
 124 336 124 336 120 336 c 0,77,78
 96 336 96 336 89 358 c 0,79,80
 88 364 88 364 88 368 c 0,65,66
480 76 m 1,81,-1
 368 142 l 2,82,83
 360 146 360 146 352 142 c 1,84,85
 345 136 345 136 344 128 c 1,86,-1
 344 68 l 1,87,-1
 32 141 l 1,88,-1
 32 304 l 1,89,-1
 344 304 l 1,90,-1
 344 240 l 1,91,92
 345 231 345 231 352 226 c 1,93,94
 360 222 360 222 368 226 c 2,95,-1
 480 292 l 1,96,-1
 480 76 l 1,81,-1
EndSplineSet
EndChar

StartChar: uniE04D
Encoding: 57421 57421 80
Width: 512
Flags: W
LayerCount: 2
Fore
SplineSet
425 59 m 2,0,-1
 443 23 l 2,1,2
 451 9 451 9 464 8 c 1,3,4
 478 9 478 9 485 23 c 2,5,-1
 503 59 l 2,6,7
 512 77 512 77 512 96 c 2,8,-1
 512 464 l 2,9,10
 512 488 512 488 490 495 c 0,11,12
 484 496 484 496 480 496 c 2,13,-1
 448 496 l 2,14,15
 424 496 424 496 417 474 c 0,16,17
 416 468 416 468 416 464 c 1,18,-1
 400 464 l 2,19,20
 376 464 376 464 369 442 c 0,21,22
 368 436 368 436 368 432 c 2,23,-1
 368 368 l 1,24,25
 370 353 370 353 384 352 c 1,26,27
 399 354 399 354 400 368 c 1,28,-1
 400 432 l 1,29,-1
 416 432 l 1,30,-1
 416 96 l 2,31,32
 416 77 416 77 425 59 c 2,0,-1
448 464 m 1,33,-1
 480 464 l 1,34,-1
 480 96 l 2,35,36
 480 86 480 86 475 73 c 1,37,-1
 464 52 l 1,38,-1
 453 73 l 1,39,40
 448 85 448 85 448 96 c 2,41,-1
 448 464 l 1,33,-1
32 16 m 2,42,-1
 320 16 l 2,43,44
 344 16 344 16 351 38 c 0,45,46
 352 44 352 44 352 48 c 2,47,-1
 352 368 l 1,48,49
 351 389 351 389 336 407 c 1,50,-1
 263 480 l 1,51,52
 245 495 245 495 224 496 c 1,53,-1
 32 496 l 2,54,55
 8 496 8 496 1 474 c 0,56,57
 0 468 0 468 0 464 c 2,58,-1
 0 48 l 2,59,60
 0 24 0 24 22 17 c 0,61,62
 28 16 28 16 32 16 c 2,42,-1
297 400 m 1,63,-1
 256 400 l 1,64,-1
 256 441 l 1,65,-1
 297 400 l 1,63,-1
32 464 m 1,66,-1
 224 464 l 1,67,-1
 224 400 l 2,68,69
 224 376 224 376 246 369 c 0,70,71
 252 368 252 368 256 368 c 2,72,-1
 320 368 l 1,73,-1
 320 48 l 1,74,-1
 32 48 l 1,75,-1
 32 464 l 1,66,-1
80 384 m 1,76,-1
 168 384 l 1,77,78
 183 386 183 386 184 400 c 1,79,80
 182 415 182 415 168 416 c 1,81,-1
 80 416 l 1,82,83
 65 414 65 414 64 400 c 1,84,85
 66 385 66 385 80 384 c 1,76,-1
272 336 m 1,86,-1
 80 336 l 1,87,88
 65 334 65 334 64 320 c 1,89,90
 66 305 66 305 80 304 c 1,91,-1
 272 304 l 1,92,93
 287 306 287 306 288 320 c 1,94,95
 286 335 286 335 272 336 c 1,86,-1
272 272 m 1,96,-1
 80 272 l 1,97,98
 65 270 65 270 64 256 c 1,99,100
 66 241 66 241 80 240 c 1,101,-1
 272 240 l 1,102,103
 287 242 287 242 288 256 c 1,104,105
 286 271 286 271 272 272 c 1,96,-1
272 208 m 1,106,-1
 80 208 l 1,107,108
 65 206 65 206 64 192 c 1,109,110
 66 177 66 177 80 176 c 1,111,-1
 272 176 l 1,112,113
 287 178 287 178 288 192 c 1,114,115
 286 207 286 207 272 208 c 1,106,-1
272 144 m 1,116,-1
 80 144 l 1,117,118
 65 142 65 142 64 128 c 1,119,120
 66 113 66 113 80 112 c 1,121,-1
 272 112 l 1,122,123
 287 114 287 114 288 128 c 1,124,125
 286 143 286 143 272 144 c 1,116,-1
EndSplineSet
EndChar

StartChar: uniE04E
Encoding: 57422 57422 81
Width: 512
Flags: W
LayerCount: 2
Fore
SplineSet
0 48 m 2,0,1
 0 24 0 24 22 17 c 0,2,3
 28 16 28 16 32 16 c 2,4,-1
 320 16 l 2,5,6
 344 16 344 16 351 38 c 0,7,8
 352 44 352 44 352 48 c 2,9,-1
 352 368 l 1,10,11
 351 389 351 389 336 407 c 1,12,-1
 263 480 l 1,13,14
 245 495 245 495 224 496 c 1,15,-1
 32 496 l 2,16,17
 8 496 8 496 1 474 c 0,18,19
 0 468 0 468 0 464 c 2,20,-1
 0 48 l 2,0,1
297 400 m 1,21,-1
 256 400 l 1,22,-1
 256 441 l 1,23,-1
 297 400 l 1,21,-1
32 464 m 1,24,-1
 224 464 l 1,25,-1
 224 400 l 2,26,27
 224 376 224 376 246 369 c 0,28,29
 252 368 252 368 256 368 c 2,30,-1
 320 368 l 1,31,-1
 320 48 l 1,32,-1
 32 48 l 1,33,-1
 32 464 l 1,24,-1
480 496 m 2,34,-1
 448 496 l 2,35,36
 424 496 424 496 417 474 c 0,37,38
 416 468 416 468 416 464 c 2,39,-1
 416 96 l 2,40,41
 416 77 416 77 425 59 c 2,42,-1
 443 23 l 2,43,44
 451 9 451 9 464 8 c 1,45,46
 478 9 478 9 485 23 c 2,47,-1
 503 59 l 2,48,49
 512 77 512 77 512 96 c 2,50,-1
 512 464 l 2,51,52
 512 488 512 488 490 495 c 0,53,54
 484 496 484 496 480 496 c 2,34,-1
480 464 m 1,55,-1
 480 416 l 1,56,-1
 448 416 l 1,57,-1
 448 464 l 1,58,-1
 480 464 l 1,55,-1
475 73 m 1,59,-1
 464 52 l 1,60,-1
 453 73 l 1,61,62
 448 85 448 85 448 96 c 2,63,-1
 448 384 l 1,64,-1
 480 384 l 1,65,-1
 480 96 l 2,66,67
 480 86 480 86 475 73 c 1,59,-1
80 384 m 1,68,-1
 168 384 l 1,69,70
 183 386 183 386 184 400 c 1,71,72
 182 415 182 415 168 416 c 1,73,-1
 80 416 l 1,74,75
 65 414 65 414 64 400 c 1,76,77
 66 385 66 385 80 384 c 1,68,-1
272 336 m 1,78,-1
 80 336 l 1,79,80
 65 334 65 334 64 320 c 1,81,82
 66 305 66 305 80 304 c 1,83,-1
 272 304 l 1,84,85
 287 306 287 306 288 320 c 1,86,87
 286 335 286 335 272 336 c 1,78,-1
272 272 m 1,88,-1
 80 272 l 1,89,90
 65 270 65 270 64 256 c 1,91,92
 66 241 66 241 80 240 c 1,93,-1
 272 240 l 1,94,95
 287 242 287 242 288 256 c 1,96,97
 286 271 286 271 272 272 c 1,88,-1
272 208 m 1,98,-1
 80 208 l 1,99,100
 65 206 65 206 64 192 c 1,101,102
 66 177 66 177 80 176 c 1,103,-1
 272 176 l 1,104,105
 287 178 287 178 288 192 c 1,106,107
 286 207 286 207 272 208 c 1,98,-1
272 144 m 1,108,-1
 80 144 l 1,109,110
 65 142 65 142 64 128 c 1,111,112
 66 113 66 113 80 112 c 1,113,-1
 272 112 l 1,114,115
 287 114 287 114 288 128 c 1,116,117
 286 143 286 143 272 144 c 1,108,-1
EndSplineSet
EndChar

StartChar: uniE04F
Encoding: 57423 57423 82
Width: 512
Flags: W
LayerCount: 2
Fore
SplineSet
416 0 m 2,0,1
 440 0 440 0 447 22 c 0,2,3
 448 28 448 28 448 32 c 2,4,-1
 448 480 l 2,5,6
 448 504 448 504 426 511 c 0,7,8
 420 512 420 512 416 512 c 2,9,-1
 208 512 l 1,10,11
 187 511 187 511 169 496 c 1,12,-1
 80 407 l 1,13,14
 65 389 65 389 64 368 c 1,15,-1
 64 32 l 2,16,17
 64 8 64 8 86 1 c 0,18,19
 92 0 92 0 96 0 c 2,20,-1
 416 0 l 2,0,1
416 480 m 1,21,-1
 416 32 l 1,22,-1
 96 32 l 1,23,-1
 96 368 l 1,24,-1
 176 368 l 2,25,26
 200 368 200 368 207 390 c 0,27,28
 208 396 208 396 208 400 c 2,29,-1
 208 480 l 1,30,-1
 416 480 l 1,21,-1
176 457 m 1,31,-1
 176 400 l 1,32,-1
 119 400 l 1,33,-1
 176 457 l 1,31,-1
256 384 m 1,34,-1
 352 384 l 1,35,36
 367 386 367 386 368 400 c 1,37,38
 366 415 366 415 352 416 c 1,39,-1
 256 416 l 1,40,41
 241 414 241 414 240 400 c 1,42,43
 242 385 242 385 256 384 c 1,34,-1
352 336 m 1,44,-1
 160 336 l 1,45,46
 145 334 145 334 144 320 c 1,47,48
 146 305 146 305 160 304 c 1,49,-1
 352 304 l 1,50,51
 367 306 367 306 368 320 c 1,52,53
 366 335 366 335 352 336 c 1,44,-1
352 256 m 1,54,-1
 160 256 l 1,55,56
 145 254 145 254 144 240 c 1,57,58
 146 225 146 225 160 224 c 1,59,-1
 352 224 l 1,60,61
 367 226 367 226 368 240 c 1,62,63
 366 255 366 255 352 256 c 1,54,-1
352 176 m 1,64,-1
 160 176 l 1,65,66
 145 174 145 174 144 160 c 1,67,68
 146 145 146 145 160 144 c 1,69,-1
 352 144 l 1,70,71
 367 146 367 146 368 160 c 1,72,73
 366 175 366 175 352 176 c 1,64,-1
352 96 m 1,74,-1
 160 96 l 1,75,76
 145 94 145 94 144 80 c 1,77,78
 146 65 146 65 160 64 c 1,79,-1
 352 64 l 1,80,81
 367 66 367 66 368 80 c 1,82,83
 366 95 366 95 352 96 c 1,74,-1
EndSplineSet
EndChar

StartChar: uniE050
Encoding: 57424 57424 83
Width: 512
Flags: W
LayerCount: 2
Fore
SplineSet
280 0 m 2,0,1
 304 0 304 0 311 22 c 0,2,3
 312 28 312 28 312 32 c 2,4,-1
 312 480 l 2,5,6
 312 504 312 504 290 511 c 0,7,8
 284 512 284 512 280 512 c 2,9,-1
 184 512 l 2,10,11
 160 512 160 512 153 490 c 0,12,13
 152 484 152 484 152 480 c 2,14,-1
 152 32 l 2,15,16
 152 8 152 8 174 1 c 0,17,18
 180 0 180 0 184 0 c 2,19,-1
 280 0 l 2,0,1
184 480 m 1,20,-1
 280 480 l 1,21,-1
 280 432 l 1,22,-1
 232 432 l 1,23,24
 217 430 217 430 216 416 c 1,25,26
 218 401 218 401 232 400 c 1,27,-1
 280 400 l 1,28,-1
 280 352 l 1,29,-1
 272 352 l 1,30,31
 257 350 257 350 256 336 c 1,32,33
 258 321 258 321 272 320 c 1,34,-1
 280 320 l 1,35,-1
 280 272 l 1,36,-1
 232 272 l 1,37,38
 217 270 217 270 216 256 c 1,39,40
 218 241 218 241 232 240 c 1,41,-1
 280 240 l 1,42,-1
 280 192 l 1,43,-1
 272 192 l 1,44,45
 257 190 257 190 256 176 c 1,46,47
 258 161 258 161 272 160 c 1,48,-1
 280 160 l 1,49,-1
 280 112 l 1,50,-1
 232 112 l 1,51,52
 217 110 217 110 216 96 c 1,53,54
 218 81 218 81 232 80 c 1,55,-1
 280 80 l 1,56,-1
 280 32 l 1,57,-1
 184 32 l 1,58,-1
 184 480 l 1,20,-1
72 8 m 1,59,60
 86 9 86 9 93 23 c 2,61,-1
 111 59 l 2,62,63
 120 77 120 77 120 96 c 2,64,-1
 120 464 l 2,65,66
 120 488 120 488 98 495 c 0,67,68
 92 496 92 496 88 496 c 2,69,-1
 56 496 l 2,70,71
 32 496 32 496 25 474 c 0,72,73
 24 468 24 468 24 464 c 2,74,-1
 24 96 l 2,75,76
 24 77 24 77 33 59 c 2,77,-1
 51 23 l 2,78,79
 59 9 59 9 72 8 c 1,59,60
83 73 m 1,80,-1
 72 52 l 1,81,-1
 61 73 l 1,82,83
 56 85 56 85 56 96 c 2,84,-1
 56 384 l 1,85,-1
 88 384 l 1,86,-1
 88 96 l 2,87,88
 88 86 88 86 83 73 c 1,80,-1
88 464 m 1,89,-1
 88 416 l 1,90,-1
 56 416 l 1,91,-1
 56 464 l 1,92,-1
 88 464 l 1,89,-1
431 453 m 2,93,-1
 413 489 l 2,94,95
 405 503 405 503 392 504 c 1,96,97
 378 503 378 503 371 489 c 2,98,-1
 353 453 l 2,99,100
 344 435 344 435 344 416 c 2,101,-1
 344 48 l 2,102,103
 344 24 344 24 366 17 c 0,104,105
 372 16 372 16 376 16 c 2,106,-1
 408 16 l 2,107,108
 432 16 432 16 439 38 c 0,109,110
 440 44 440 44 440 48 c 1,111,-1
 456 48 l 2,112,113
 480 48 480 48 487 70 c 0,114,115
 488 76 488 76 488 80 c 2,116,-1
 488 144 l 1,117,118
 486 159 486 159 472 160 c 1,119,120
 457 158 457 158 456 144 c 1,121,-1
 456 80 l 1,122,-1
 440 80 l 1,123,-1
 440 416 l 2,124,125
 440 435 440 435 431 453 c 2,93,-1
408 48 m 1,126,-1
 376 48 l 1,127,-1
 376 416 l 2,128,129
 376 426 376 426 381 439 c 1,130,-1
 392 460 l 1,131,-1
 403 439 l 1,132,133
 408 427 408 427 408 416 c 2,134,-1
 408 48 l 1,126,-1
EndSplineSet
EndChar

StartChar: uniE051
Encoding: 57425 57425 84
Width: 512
Flags: W
LayerCount: 2
Fore
SplineSet
25 5 m 0,0,1
 31 5 31 5 37 8 c 2,2,-1
 152 59 l 2,3,4
 169 66 169 66 183 80 c 2,5,-1
 496 393 l 2,6,7
 505 403 505 403 505 416 c 0,8,9
 504 430 504 430 496 439 c 2,10,-1
 439 496 l 2,11,12
 429 505 429 505 416 505 c 0,13,14
 402 504 402 504 393 496 c 2,15,-1
 72 175 l 2,16,17
 59 161 59 161 51 143 c 2,18,-1
 7 37 l 1,19,20
 3 24 3 24 8 14 c 1,21,22
 15 6 15 6 25 5 c 0,0,1
160 103 m 1,23,-1
 103 160 l 1,24,-1
 368 425 l 1,25,-1
 425 368 l 1,26,-1
 160 103 l 1,23,-1
416 473 m 1,27,-1
 473 416 l 1,28,-1
 448 391 l 1,29,-1
 391 448 l 1,30,-1
 416 473 l 1,27,-1
81 131 m 2,31,32
 82 133 82 133 83 135 c 1,33,-1
 132 85 l 1,34,-1
 46 47 l 1,35,-1
 81 131 l 2,31,32
EndSplineSet
EndChar

StartChar: uniE052
Encoding: 57426 57426 85
Width: 512
Flags: W
LayerCount: 2
Fore
SplineSet
21 504 m 1,0,1
 2 500 2 500 0 480 c 1,2,-1
 0 32 l 2,3,4
 0 8 0 8 22 1 c 0,5,6
 28 0 28 0 32 0 c 2,7,-1
 480 0 l 1,8,9
 497 1 497 1 503 13 c 1,10,11
 505 29 505 29 496 39 c 2,12,-1
 39 496 l 2,13,14
 31 504 31 504 21 504 c 1,0,1
32 32 m 1,15,-1
 32 64 l 1,16,-1
 64 64 l 1,17,18
 79 66 79 66 80 80 c 1,19,20
 78 95 78 95 64 96 c 1,21,-1
 32 96 l 1,22,-1
 32 128 l 1,23,-1
 48 128 l 1,24,25
 63 130 63 130 64 144 c 1,26,27
 62 159 62 159 48 160 c 1,28,-1
 32 160 l 1,29,-1
 32 192 l 1,30,-1
 64 192 l 1,31,32
 79 194 79 194 80 208 c 1,33,34
 78 223 78 223 64 224 c 1,35,-1
 32 224 l 1,36,-1
 32 256 l 1,37,-1
 48 256 l 1,38,39
 63 258 63 258 64 272 c 1,40,41
 62 287 62 287 48 288 c 1,42,-1
 32 288 l 1,43,-1
 32 320 l 1,44,-1
 64 320 l 1,45,46
 79 322 79 322 80 336 c 1,47,48
 78 351 78 351 64 352 c 1,49,-1
 32 352 l 1,50,-1
 32 456 l 1,51,-1
 457 32 l 1,52,-1
 32 32 l 1,15,-1
128 64 m 2,53,-1
 320 64 l 1,54,55
 337 65 337 65 343 77 c 1,56,57
 345 93 345 93 336 103 c 2,58,-1
 135 304 l 2,59,60
 127 312 127 312 117 312 c 1,61,62
 98 308 98 308 96 288 c 1,63,-1
 96 96 l 2,64,65
 96 72 96 72 118 65 c 0,66,67
 124 64 124 64 128 64 c 2,53,-1
128 265 m 1,68,-1
 297 96 l 1,69,-1
 128 96 l 1,70,-1
 128 265 l 1,68,-1
444 141 m 1,71,-1
 477 132 l 2,72,73
 478 132 478 132 480.5 131.5 c 128,-1,74
 483 131 483 131 484 131 c 0,75,76
 496 132 496 132 503 141 c 0,77,78
 510 151 510 151 508 163 c 1,79,-1
 499 196 l 1,80,81
 496 213 496 213 480 231 c 1,82,-1
 215 496 l 2,83,84
 205 505 205 505 192 505 c 0,85,86
 178 504 178 504 169 496 c 2,87,-1
 144 471 l 2,88,89
 126 452 126 452 141 429 c 0,90,91
 143 427 143 427 144 425 c 2,92,-1
 409 160 l 1,93,94
 428 144 428 144 444 141 c 1,71,-1
468 189 m 2,95,-1
 474 166 l 1,96,-1
 451 172 l 2,97,98
 439 175 439 175 432 183 c 2,99,-1
 215 400 l 1,100,-1
 240 425 l 1,101,-1
 457 208 l 2,102,103
 465 201 465 201 468 189 c 2,95,-1
192 473 m 1,104,-1
 217 448 l 1,105,-1
 192 423 l 1,106,-1
 167 448 l 1,107,-1
 192 473 l 1,104,-1
EndSplineSet
EndChar

StartChar: uniE053
Encoding: 57427 57427 86
Width: 512
Flags: W
LayerCount: 2
Fore
SplineSet
256 512 m 0,0,1
 150 511 150 511 75 437 c 1,2,3
 0 361 0 361 0 256 c 0,4,5
 1 150 1 150 75 75 c 1,6,7
 151 0 151 0 256 0 c 0,8,9
 362 1 362 1 437 75 c 1,10,11
 512 151 512 151 512 256 c 0,12,13
 511 362 511 362 437 437 c 1,14,15
 361 512 361 512 256 512 c 0,0,1
414 98 m 1,16,17
 349 32 349 32 256 32 c 0,18,19
 162 33 162 33 98 98 c 1,20,21
 32 162 32 162 32 256 c 0,22,23
 33 350 33 350 98 414 c 1,24,25
 163 480 163 480 256 480 c 0,26,27
 350 479 350 479 414 414 c 1,28,29
 480 350 480 350 480 256 c 0,30,31
 479 162 479 162 414 98 c 1,16,17
400 272 m 1,32,-1
 272 272 l 1,33,-1
 272 400 l 1,34,35
 270 415 270 415 256 416 c 1,36,37
 241 414 241 414 240 400 c 1,38,-1
 240 272 l 1,39,-1
 112 272 l 1,40,41
 97 270 97 270 96 256 c 1,42,43
 98 241 98 241 112 240 c 1,44,-1
 240 240 l 1,45,-1
 240 112 l 1,46,47
 242 97 242 97 256 96 c 1,48,49
 271 98 271 98 272 112 c 1,50,-1
 272 240 l 1,51,-1
 400 240 l 1,52,53
 415 242 415 242 416 256 c 1,54,55
 414 271 414 271 400 272 c 1,32,-1
EndSplineSet
EndChar

StartChar: uniE054
Encoding: 57428 57428 87
Width: 512
Flags: W
LayerCount: 2
Fore
SplineSet
16 80 m 1,0,-1
 496 80 l 1,1,2
 511 82 511 82 512 96 c 1,3,-1
 512 144 l 1,4,5
 510 159 510 159 496 160 c 1,6,-1
 464 160 l 1,7,-1
 464 416 l 1,8,9
 462 431 462 431 448 432 c 1,10,-1
 64 432 l 1,11,12
 49 430 49 430 48 416 c 1,13,-1
 48 160 l 1,14,-1
 16 160 l 1,15,16
 1 158 1 158 0 144 c 1,17,-1
 0 96 l 1,18,19
 2 81 2 81 16 80 c 1,0,-1
80 400 m 1,20,-1
 432 400 l 1,21,-1
 432 160 l 1,22,-1
 80 160 l 1,23,-1
 80 400 l 1,20,-1
32 128 m 1,24,-1
 480 128 l 1,25,-1
 480 112 l 1,26,-1
 32 112 l 1,27,-1
 32 128 l 1,24,-1
245 379 m 1,28,29
 240 373 240 373 240 368 c 0,30,31
 241 362 241 362 245 357 c 1,32,33
 251 352 251 352 256 352 c 0,34,35
 262 353 262 353 267 357 c 1,36,37
 272 363 272 363 272 368 c 0,38,39
 271 374 271 374 267 379 c 1,40,41
 256 388 256 388 245 379 c 1,28,29
EndSplineSet
EndChar

StartChar: uniE055
Encoding: 57429 57429 88
Width: 512
Flags: W
LayerCount: 2
Fore
SplineSet
197 5 m 2,0,1
 203 0 203 0 208 0 c 0,2,3
 214 1 214 1 219 5 c 2,4,-1
 507 293 l 2,5,6
 512 299 512 299 512 304 c 2,7,-1
 512 496 l 1,8,9
 510 511 510 511 496 512 c 1,10,-1
 304 512 l 1,11,12
 298 511 298 511 293 507 c 2,13,-1
 5 219 l 2,14,15
 -6 208 -6 208 5 197 c 2,16,-1
 197 5 l 2,0,1
311 480 m 1,17,-1
 480 480 l 1,18,-1
 480 311 l 1,19,-1
 208 39 l 1,20,-1
 39 208 l 1,21,-1
 311 480 l 1,17,-1
376 312 m 0,22,23
 415 312 415 312 433 347 c 0,24,25
 440 361 440 361 440 376 c 0,26,27
 440 415 440 415 405 433 c 0,28,29
 391 440 391 440 376 440 c 0,30,31
 337 440 337 440 319 405 c 0,32,33
 312 391 312 391 312 376 c 0,34,35
 312 337 312 337 347 319 c 0,36,37
 361 312 361 312 376 312 c 0,22,23
376 408 m 0,38,39
 400 408 400 408 407 386 c 0,40,41
 408 380 408 380 408 376 c 0,42,43
 408 352 408 352 386 345 c 0,44,45
 380 344 380 344 376 344 c 0,46,47
 352 344 352 344 345 366 c 0,48,49
 344 372 344 372 344 376 c 0,50,51
 344 400 344 400 366 407 c 0,52,53
 372 408 372 408 376 408 c 0,38,39
EndSplineSet
EndChar

StartChar: uniE056
Encoding: 57430 57430 89
Width: 512
Flags: W
LayerCount: 2
Fore
SplineSet
16 80 m 1,0,-1
 112 80 l 1,1,-1
 112 16 l 1,2,3
 114 1 114 1 128 0 c 1,4,-1
 384 0 l 1,5,6
 399 2 399 2 400 16 c 1,7,-1
 400 80 l 1,8,-1
 496 80 l 1,9,10
 511 82 511 82 512 96 c 1,11,-1
 512 352 l 1,12,13
 510 367 510 367 496 368 c 1,14,-1
 400 368 l 1,15,-1
 400 496 l 1,16,17
 398 511 398 511 384 512 c 1,18,-1
 128 512 l 1,19,20
 113 510 113 510 112 496 c 1,21,-1
 112 368 l 1,22,-1
 16 368 l 1,23,24
 1 366 1 366 0 352 c 1,25,-1
 0 96 l 1,26,27
 2 81 2 81 16 80 c 1,0,-1
368 32 m 1,28,-1
 144 32 l 1,29,-1
 144 192 l 1,30,-1
 368 192 l 1,31,-1
 368 32 l 1,28,-1
144 480 m 1,32,-1
 368 480 l 1,33,-1
 368 368 l 1,34,-1
 144 368 l 1,35,-1
 144 480 l 1,32,-1
32 336 m 1,36,-1
 480 336 l 1,37,-1
 480 112 l 1,38,-1
 400 112 l 1,39,-1
 400 208 l 1,40,41
 398 223 398 223 384 224 c 1,42,-1
 128 224 l 1,43,44
 113 222 113 222 112 208 c 1,45,-1
 112 112 l 1,46,-1
 32 112 l 1,47,-1
 32 336 l 1,36,-1
91 307 m 1,48,49
 80 316 80 316 69 307 c 1,50,51
 64 301 64 301 64 296 c 0,52,53
 65 290 65 290 69 285 c 1,54,55
 75 280 75 280 80 280 c 0,56,57
 86 281 86 281 91 285 c 1,58,59
 96 291 96 291 96 296 c 0,60,61
 95 302 95 302 91 307 c 1,48,49
128 280 m 0,62,63
 134 281 134 281 139 285 c 1,64,65
 144 291 144 291 144 296 c 0,66,67
 143 302 143 302 139 307 c 1,68,69
 128 316 128 316 117 307 c 1,70,71
 112 301 112 301 112 296 c 0,72,73
 113 290 113 290 117 285 c 1,74,75
 123 280 123 280 128 280 c 0,62,63
336 160 m 1,76,-1
 176 160 l 1,77,78
 161 158 161 158 160 144 c 1,79,80
 162 129 162 129 176 128 c 1,81,-1
 336 128 l 1,82,83
 351 130 351 130 352 144 c 1,84,85
 350 159 350 159 336 160 c 1,76,-1
336 96 m 1,86,-1
 176 96 l 1,87,88
 161 94 161 94 160 80 c 1,89,90
 162 65 162 65 176 64 c 1,91,-1
 336 64 l 1,92,93
 351 66 351 66 352 80 c 1,94,95
 350 95 350 95 336 96 c 1,86,-1
EndSplineSet
EndChar

StartChar: uniE057
Encoding: 57431 57431 90
Width: 512
Flags: W
LayerCount: 2
Fore
SplineSet
256 176 m 0,0,1
 315 176 315 176 351 236 c 0,2,3
 376 277 376 277 376 328 c 0,4,5
 376 408 376 408 324 453 c 0,6,7
 293 480 293 480 256 480 c 0,8,9
 197 480 197 480 161 420 c 0,10,11
 136 379 136 379 136 328 c 0,12,13
 136 248 136 248 188 203 c 0,14,15
 219 176 219 176 256 176 c 0,0,1
256 448 m 0,16,17
 301 448 301 448 328 397 c 0,18,19
 344 365 344 365 344 328 c 0,20,21
 344 262 344 262 302 226 c 0,22,23
 280 208 280 208 256 208 c 0,24,25
 211 208 211 208 184 259 c 0,26,27
 168 291 168 291 168 328 c 0,28,29
 168 394 168 394 210 430 c 0,30,31
 232 448 232 448 256 448 c 0,16,17
33 149 m 2,32,-1
 1 53 l 2,33,34
 -1 45 -1 45 3 39 c 0,35,36
 8 33 8 33 16 32 c 1,37,-1
 496 32 l 1,38,39
 505 33 505 33 509 39 c 0,40,41
 513 46 513 46 511 53 c 2,42,-1
 479 149 l 2,43,44
 476 156 476 156 468 159 c 2,45,-1
 356 191 l 2,46,47
 350 192 350 192 345 190 c 2,48,-1
 256 146 l 1,49,-1
 167 190 l 2,50,51
 162 192 162 192 156 191 c 2,52,-1
 44 159 l 2,53,54
 35 156 35 156 33 149 c 2,32,-1
158 159 m 1,55,-1
 249 114 l 2,56,57
 256 110 256 110 263 114 c 2,58,-1
 354 159 l 1,59,-1
 451 131 l 1,60,-1
 474 64 l 1,61,-1
 38 64 l 1,62,-1
 61 131 l 1,63,-1
 158 159 l 1,55,-1
EndSplineSet
EndChar

StartChar: uniE058
Encoding: 57432 57432 91
Width: 512
Flags: W
LayerCount: 2
Fore
SplineSet
256 176 m 0,0,1
 316 176 316 176 355 234 c 0,2,3
 384 277 384 277 384 328 c 0,4,5
 384 403 384 403 331 450 c 0,6,7
 296 480 296 480 256 480 c 0,8,9
 196 480 196 480 157 422 c 0,10,11
 128 379 128 379 128 328 c 0,12,13
 128 253 128 253 181 206 c 0,14,15
 215 176 215 176 256 176 c 0,0,1
256 448 m 0,16,17
 305 448 305 448 334 397 c 0,18,19
 352 365 352 365 352 328 c 0,20,21
 352 264 352 264 308 228 c 0,22,23
 284 208 284 208 256 208 c 0,24,25
 207 208 207 208 178 259 c 0,26,27
 160 291 160 291 160 328 c 0,28,29
 160 392 160 392 204 428 c 0,30,31
 228 448 228 448 256 448 c 0,16,17
33 149 m 2,32,-1
 1 53 l 2,33,34
 -1 45 -1 45 3 39 c 0,35,36
 8 33 8 33 16 32 c 1,37,-1
 496 32 l 1,38,39
 505 33 505 33 509 39 c 0,40,41
 513 46 513 46 511 53 c 2,42,-1
 479 149 l 2,43,44
 476 156 476 156 468 159 c 2,45,-1
 356 191 l 2,46,47
 350 192 350 192 345 190 c 2,48,-1
 256 146 l 1,49,-1
 167 190 l 2,50,51
 162 192 162 192 156 191 c 2,52,-1
 44 159 l 2,53,54
 35 156 35 156 33 149 c 2,32,-1
158 159 m 1,55,-1
 249 114 l 2,56,57
 256 110 256 110 263 114 c 2,58,-1
 354 159 l 1,59,-1
 451 131 l 1,60,-1
 474 64 l 1,61,-1
 38 64 l 1,62,-1
 61 131 l 1,63,-1
 158 159 l 1,55,-1
496 464 m 1,64,-1
 464 464 l 1,65,-1
 464 496 l 1,66,67
 462 511 462 511 448 512 c 1,68,69
 433 510 433 510 432 496 c 1,70,-1
 432 464 l 1,71,-1
 400 464 l 1,72,73
 385 462 385 462 384 448 c 1,74,75
 386 433 386 433 400 432 c 1,76,-1
 432 432 l 1,77,-1
 432 400 l 1,78,79
 434 385 434 385 448 384 c 1,80,81
 463 386 463 386 464 400 c 1,82,-1
 464 432 l 1,83,-1
 496 432 l 1,84,85
 511 434 511 434 512 448 c 1,86,87
 510 463 510 463 496 464 c 1,64,-1
EndSplineSet
EndChar

StartChar: uniE059
Encoding: 57433 57433 92
Width: 512
Flags: W
LayerCount: 2
Fore
SplineSet
256 176 m 0,0,1
 316 176 316 176 355 234 c 0,2,3
 384 277 384 277 384 328 c 0,4,5
 384 403 384 403 331 450 c 0,6,7
 296 480 296 480 256 480 c 0,8,9
 196 480 196 480 157 422 c 0,10,11
 128 379 128 379 128 328 c 0,12,13
 128 253 128 253 181 206 c 0,14,15
 215 176 215 176 256 176 c 0,0,1
256 448 m 0,16,17
 305 448 305 448 334 397 c 0,18,19
 352 365 352 365 352 328 c 0,20,21
 352 264 352 264 308 228 c 0,22,23
 284 208 284 208 256 208 c 0,24,25
 207 208 207 208 178 259 c 0,26,27
 160 291 160 291 160 328 c 0,28,29
 160 392 160 392 204 428 c 0,30,31
 228 448 228 448 256 448 c 0,16,17
33 149 m 2,32,-1
 1 53 l 2,33,34
 -1 45 -1 45 3 39 c 0,35,36
 8 33 8 33 16 32 c 1,37,-1
 496 32 l 1,38,39
 505 33 505 33 509 39 c 0,40,41
 513 46 513 46 511 53 c 2,42,-1
 479 149 l 2,43,44
 476 156 476 156 468 159 c 2,45,-1
 356 191 l 2,46,47
 350 192 350 192 345 190 c 2,48,-1
 256 146 l 1,49,-1
 167 190 l 2,50,51
 162 192 162 192 156 191 c 2,52,-1
 44 159 l 2,53,54
 35 156 35 156 33 149 c 2,32,-1
158 159 m 1,55,-1
 249 114 l 2,56,57
 256 110 256 110 263 114 c 2,58,-1
 354 159 l 1,59,-1
 451 131 l 1,60,-1
 474 64 l 1,61,-1
 38 64 l 1,62,-1
 61 131 l 1,63,-1
 158 159 l 1,55,-1
389 389 m 0,64,65
 395 384 395 384 400 384 c 0,66,67
 406 385 406 385 411 389 c 2,68,-1
 440 417 l 1,69,-1
 469 389 l 2,70,71
 475 384 475 384 480 384 c 0,72,73
 486 385 486 385 491 389 c 0,74,75
 502 400 502 400 491 411 c 2,76,-1
 463 440 l 1,77,-1
 491 469 l 2,78,79
 502 480 502 480 491 491 c 128,-1,80
 480 502 480 502 469 491 c 2,81,-1
 440 463 l 1,82,-1
 411 491 l 2,83,84
 400 502 400 502 389 491 c 128,-1,85
 378 480 378 480 389 469 c 2,86,-1
 417 440 l 1,87,-1
 389 411 l 2,88,89
 378 400 378 400 389 389 c 0,64,65
EndSplineSet
EndChar

StartChar: uniE05A
Encoding: 57434 57434 93
Width: 512
Flags: W
LayerCount: 2
Fore
SplineSet
187 155 m 128,-1,1
 176 166 176 166 165 155 c 2,2,-1
 117 107 l 2,3,4
 106 96 106 96 117 85 c 0,5,6
 123 80 123 80 128 80 c 0,7,8
 134 81 134 81 139 85 c 2,9,-1
 187 133 l 2,10,0
 198 144 198 144 187 155 c 128,-1,1
373 155 m 2,11,-1
 309 91 l 2,12,13
 298 80 298 80 309 69 c 0,14,15
 315 64 315 64 320 64 c 0,16,17
 326 65 326 65 331 69 c 2,18,-1
 395 133 l 2,19,20
 406 144 406 144 395 155 c 128,-1,21
 384 166 384 166 373 155 c 2,11,-1
269 155 m 2,22,-1
 157 43 l 2,23,24
 146 32 146 32 157 21 c 0,25,26
 163 16 163 16 168 16 c 0,27,28
 174 17 174 17 179 21 c 2,29,-1
 291 133 l 2,30,31
 302 144 302 144 291 155 c 128,-1,32
 280 166 280 166 269 155 c 2,22,-1
447 335 m 1,33,34
 441 416 441 416 374 464 c 1,35,36
 327 496 327 496 272 496 c 0,37,38
 186 496 186 496 133 432 c 0,39,40
 109 403 109 403 99 368 c 1,41,-1
 96 368 l 2,42,43
 43 368 43 368 15 323 c 0,44,45
 0 299 0 299 0 272 c 0,46,47
 0 219 0 219 45 191 c 0,48,49
 69 176 69 176 96 176 c 2,50,-1
 432 176 l 2,51,52
 477 176 477 176 501 215 c 0,53,54
 512 234 512 234 512 256 c 0,55,56
 512 303 512 303 471 326 c 0,57,58
 459 332 459 332 447 335 c 1,33,34
432 208 m 2,59,-1
 96 208 l 2,60,61
 57 208 57 208 39 243 c 0,62,63
 32 257 32 257 32 272 c 0,64,65
 32 311 32 311 67 329 c 0,66,67
 81 336 81 336 96 336 c 2,68,-1
 112 336 l 1,69,70
 124 337 124 337 128 349 c 1,71,72
 140 415 140 415 202 447 c 0,73,74
 235 464 235 464 272 464 c 0,75,76
 343 464 343 464 387 407 c 1,77,78
 416 367 416 367 416 320 c 1,79,80
 418 305 418 305 432 304 c 1,81,82
 462 304 462 304 476 276 c 0,83,84
 480 266 480 266 480 256 c 0,85,86
 480 226 480 226 452 212 c 0,87,88
 442 208 442 208 432 208 c 2,59,-1
EndSplineSet
EndChar

StartChar: uniE05B
Encoding: 57435 57435 94
Width: 512
Flags: W
LayerCount: 2
Fore
SplineSet
240 496 m 1,0,1
 242 481 242 481 256 480 c 0,2,3
 350 479 350 479 414 414 c 1,4,5
 480 350 480 350 480 256 c 1,6,7
 479 164 479 164 416 99 c 1,8,-1
 416 144 l 1,9,10
 414 159 414 159 400 160 c 1,11,12
 385 158 385 158 384 144 c 1,13,-1
 384 48 l 1,14,-1
 480 48 l 1,15,16
 495 50 495 50 496 64 c 1,17,18
 494 79 494 79 480 80 c 1,19,-1
 442 80 l 1,20,21
 512 155 512 155 512 256 c 0,22,23
 511 362 511 362 437 437 c 1,24,25
 361 512 361 512 256 512 c 1,26,27
 241 510 241 510 240 496 c 1,0,1
75 75 m 1,28,29
 151 0 151 0 256 0 c 1,30,31
 271 2 271 2 272 16 c 1,32,33
 270 31 270 31 256 32 c 0,34,35
 162 33 162 33 98 98 c 1,36,37
 32 162 32 162 32 256 c 1,38,39
 33 348 33 348 96 413 c 1,40,-1
 96 368 l 1,41,42
 98 353 98 353 112 352 c 1,43,44
 127 354 127 354 128 368 c 1,45,-1
 128 464 l 1,46,-1
 32 464 l 1,47,48
 17 462 17 462 16 448 c 1,49,50
 18 433 18 433 32 432 c 1,51,-1
 70 432 l 1,52,53
 0 357 0 357 0 256 c 0,54,55
 1 150 1 150 75 75 c 1,28,29
EndSplineSet
EndChar

StartChar: uniE05C
Encoding: 57436 57436 95
Width: 512
Flags: W
LayerCount: 2
Fore
SplineSet
363 235 m 2,0,1
 352 246 352 246 341 235 c 2,2,-1
 328 223 l 1,3,-1
 303 248 l 1,4,-1
 359 304 l 1,5,-1
 384 304 l 1,6,7
 477 310 477 310 480 416 c 1,8,9
 479 425 479 425 472 430 c 0,10,11
 465 434 465 434 457 430 c 2,12,-1
 403 403 l 1,13,-1
 387 419 l 1,14,-1
 414 473 l 2,15,16
 418 481 418 481 414 488 c 1,17,18
 408 495 408 495 400 496 c 1,19,20
 290 493 290 493 288 400 c 1,21,-1
 288 375 l 1,22,-1
 232 319 l 1,23,-1
 143 408 l 1,24,-1
 155 421 l 2,25,26
 160 426 160 426 160 434 c 1,27,28
 158 441 158 441 152 446 c 1,29,-1
 72 494 l 2,30,31
 61 500 61 500 53 491 c 2,32,-1
 37 475 l 2,33,34
 29 467 29 467 34 456 c 1,35,-1
 82 376 l 1,36,37
 88 370 88 370 94 368 c 1,38,-1
 96 368 l 1,39,40
 102 369 102 369 107 373 c 2,41,-1
 120 385 l 1,42,-1
 209 296 l 1,43,-1
 21 107 l 2,44,45
 19 106 19 106 18 102 c 1,46,-1
 17 101 l 1,47,-1
 1 53 l 1,48,49
 -1 43 -1 43 5 37 c 2,50,-1
 21 21 l 2,51,52
 27 16 27 16 32 16 c 0,53,54
 36 16 36 16 37 17 c 2,55,-1
 85 33 l 1,56,57
 90 36 90 36 91 37 c 2,58,-1
 280 225 l 1,59,-1
 305 200 l 1,60,-1
 293 187 l 2,61,62
 282 176 282 176 293 165 c 2,63,-1
 437 21 l 2,64,65
 443 16 443 16 448 16 c 0,66,67
 454 17 454 17 459 21 c 2,68,-1
 507 69 l 2,69,70
 518 80 518 80 507 91 c 2,71,-1
 363 235 l 2,0,1
99 410 m 1,72,-1
 71 457 l 1,73,-1
 118 429 l 1,74,-1
 99 410 l 1,72,-1
71 62 m 1,75,-1
 36 50 l 1,76,-1
 34 52 l 1,77,-1
 46 87 l 1,78,-1
 315 357 l 2,79,80
 320 363 320 363 320 368 c 2,81,-1
 320 400 l 2,82,83
 320 453 320 453 371 462 c 0,84,85
 372 462 372 462 373 462 c 2,86,-1
 354 423 l 2,87,88
 350 413 350 413 357 405 c 2,89,-1
 389 373 l 2,90,91
 397 366 397 366 407 370 c 2,92,-1
 446 389 l 1,93,94
 437 336 437 336 384 336 c 2,95,-1
 352 336 l 1,96,97
 346 335 346 335 341 331 c 2,98,-1
 71 62 l 1,75,-1
448 55 m 1,99,-1
 327 176 l 1,100,-1
 352 201 l 1,101,-1
 473 80 l 1,102,-1
 448 55 l 1,99,-1
EndSplineSet
EndChar

StartChar: uniE05D
Encoding: 57437 57437 96
Width: 512
Flags: W
LayerCount: 2
Fore
SplineSet
16 192 m 1,0,-1
 68 192 l 1,1,-1
 78 164 l 1,2,-1
 37 123 l 2,3,4
 26 112 26 112 37 101 c 2,5,-1
 101 37 l 2,6,7
 112 26 112 26 123 37 c 2,8,-1
 164 78 l 1,9,-1
 192 68 l 1,10,-1
 192 16 l 1,11,12
 194 1 194 1 208 0 c 1,13,-1
 304 0 l 1,14,15
 319 2 319 2 320 16 c 1,16,-1
 320 68 l 1,17,-1
 348 78 l 1,18,-1
 389 37 l 2,19,20
 400 26 400 26 411 37 c 2,21,-1
 475 101 l 2,22,23
 486 112 486 112 475 123 c 2,24,-1
 434 164 l 1,25,-1
 444 192 l 1,26,-1
 496 192 l 1,27,28
 511 194 511 194 512 208 c 1,29,-1
 512 304 l 1,30,31
 510 319 510 319 496 320 c 1,32,-1
 444 320 l 1,33,-1
 434 348 l 1,34,-1
 475 389 l 2,35,36
 486 400 486 400 475 411 c 2,37,-1
 411 475 l 2,38,39
 400 486 400 486 389 475 c 2,40,-1
 348 434 l 1,41,-1
 320 444 l 1,42,-1
 320 496 l 1,43,44
 318 511 318 511 304 512 c 1,45,-1
 208 512 l 1,46,47
 193 510 193 510 192 496 c 1,48,-1
 192 444 l 1,49,-1
 164 434 l 1,50,-1
 123 475 l 2,51,52
 112 486 112 486 101 475 c 2,53,-1
 37 411 l 2,54,55
 26 400 26 400 37 389 c 2,56,-1
 78 348 l 1,57,-1
 68 320 l 1,58,-1
 16 320 l 1,59,60
 1 318 1 318 0 304 c 1,61,-1
 0 208 l 1,62,63
 2 193 2 193 16 192 c 1,0,-1
32 288 m 1,64,-1
 80 288 l 1,65,66
 91 289 91 289 95 299 c 2,67,-1
 111 347 l 1,68,69
 113 357 113 357 107 363 c 2,70,-1
 71 400 l 1,71,-1
 112 441 l 1,72,-1
 149 405 l 2,73,74
 156 398 156 398 165 401 c 2,75,-1
 213 417 l 2,76,77
 223 421 223 421 224 432 c 1,78,-1
 224 480 l 1,79,-1
 288 480 l 1,80,-1
 288 432 l 1,81,82
 289 421 289 421 299 417 c 2,83,-1
 347 401 l 1,84,85
 357 399 357 399 363 405 c 2,86,-1
 400 441 l 1,87,-1
 441 400 l 1,88,-1
 405 363 l 2,89,90
 398 356 398 356 401 347 c 2,91,-1
 417 299 l 2,92,93
 421 289 421 289 432 288 c 1,94,-1
 480 288 l 1,95,-1
 480 224 l 1,96,-1
 432 224 l 1,97,98
 421 223 421 223 417 213 c 2,99,-1
 401 165 l 1,100,101
 399 155 399 155 405 149 c 2,102,-1
 441 112 l 1,103,-1
 400 71 l 1,104,-1
 363 107 l 2,105,106
 356 114 356 114 347 111 c 2,107,-1
 299 95 l 2,108,109
 289 91 289 91 288 80 c 1,110,-1
 288 32 l 1,111,-1
 224 32 l 1,112,-1
 224 80 l 1,113,114
 223 91 223 91 213 95 c 2,115,-1
 165 111 l 1,116,117
 155 113 155 113 149 107 c 2,118,-1
 112 71 l 1,119,-1
 71 112 l 1,120,-1
 107 149 l 2,121,122
 114 156 114 156 111 165 c 2,123,-1
 95 213 l 2,124,125
 91 223 91 223 80 224 c 1,126,-1
 32 224 l 1,127,-1
 32 288 l 1,64,-1
256 192 m 0,128,129
 295 192 295 192 313 227 c 0,130,131
 320 241 320 241 320 256 c 0,132,133
 320 295 320 295 285 313 c 0,134,135
 271 320 271 320 256 320 c 0,136,137
 217 320 217 320 199 285 c 0,138,139
 192 271 192 271 192 256 c 0,140,141
 192 217 192 217 227 199 c 0,142,143
 241 192 241 192 256 192 c 0,128,129
256 288 m 0,144,145
 280 288 280 288 287 266 c 0,146,147
 288 260 288 260 288 256 c 0,148,149
 288 232 288 232 266 225 c 0,150,151
 260 224 260 224 256 224 c 0,152,153
 232 224 232 224 225 246 c 0,154,155
 224 252 224 252 224 256 c 0,156,157
 224 280 224 280 246 287 c 0,158,159
 252 288 252 288 256 288 c 0,144,145
EndSplineSet
EndChar

StartChar: uniE05E
Encoding: 57438 57438 97
Width: 512
Flags: W
LayerCount: 2
Fore
SplineSet
96 80 m 0,0,1
 142 81 142 81 172 118 c 1,2,-1
 305 69 l 1,3,4
 312 24 312 24 353 7 c 0,5,6
 368 0 368 0 384 0 c 0,7,8
 429 0 429 0 453 39 c 1,9,10
 464 59 464 59 464 80 c 0,11,12
 464 125 464 125 425 149 c 1,13,14
 405 160 405 160 384 160 c 0,15,16
 337 160 337 160 314 118 c 0,17,18
 309 110 309 110 307 102 c 1,19,-1
 187 146 l 1,20,21
 192 161 192 161 192 176 c 0,22,23
 191 207 191 207 175 230 c 1,24,-1
 323 319 l 1,25,26
 356 288 356 288 400 288 c 0,27,28
 460 288 460 288 493 337 c 0,29,30
 512 366 512 366 512 400 c 0,31,32
 512 460 512 460 463 493 c 0,33,34
 434 512 434 512 400 512 c 0,35,36
 340 512 340 512 307 463 c 0,37,38
 288 434 288 434 288 400 c 1,39,40
 289 369 289 369 303 344 c 1,41,-1
 152 254 l 1,42,43
 125 272 125 272 96 272 c 0,44,45
 43 272 43 272 15 227 c 0,46,47
 0 203 0 203 0 176 c 0,48,49
 0 123 0 123 45 95 c 0,50,51
 69 80 69 80 96 80 c 0,0,1
384 128 m 0,52,53
 414 128 414 128 428 100 c 0,54,55
 432 90 432 90 432 80 c 0,56,57
 432 50 432 50 404 36 c 0,58,59
 394 32 394 32 384 32 c 0,60,61
 354 32 354 32 340 60 c 0,62,63
 336 70 336 70 336 80 c 0,64,65
 336 110 336 110 364 124 c 0,66,67
 374 128 374 128 384 128 c 0,52,53
400 480 m 0,68,69
 445 480 445 480 469 441 c 1,70,71
 480 421 480 421 480 400 c 0,72,73
 480 355 480 355 441 331 c 1,74,75
 421 320 421 320 400 320 c 0,76,77
 355 320 355 320 331 359 c 1,78,79
 320 379 320 379 320 400 c 0,80,81
 320 445 320 445 359 469 c 1,82,83
 379 480 379 480 400 480 c 0,68,69
96 240 m 0,84,85
 135 240 135 240 153 205 c 0,86,87
 160 191 160 191 160 176 c 0,88,89
 160 137 160 137 125 119 c 0,90,91
 111 112 111 112 96 112 c 0,92,93
 57 112 57 112 39 147 c 0,94,95
 32 161 32 161 32 176 c 0,96,97
 32 215 32 215 67 233 c 0,98,99
 81 240 81 240 96 240 c 0,84,85
EndSplineSet
EndChar

StartChar: uniE05F
Encoding: 57439 57439 98
Width: 512
Flags: W
LayerCount: 2
Fore
SplineSet
248 0 m 0,0,1
 254 1 254 1 259 5 c 2,2,-1
 395 141 l 2,3,4
 400 147 400 147 400 152 c 2,5,-1
 400 496 l 1,6,7
 398 511 398 511 384 512 c 1,8,-1
 112 512 l 1,9,10
 97 510 97 510 96 496 c 1,11,-1
 96 152 l 1,12,13
 97 146 97 146 101 141 c 2,14,-1
 237 5 l 2,15,16
 243 0 243 0 248 0 c 0,0,1
128 480 m 1,17,-1
 368 480 l 1,18,-1
 368 159 l 1,19,-1
 248 39 l 1,20,-1
 128 159 l 1,21,-1
 128 480 l 1,17,-1
EndSplineSet
EndChar

StartChar: uniE060
Encoding: 57440 57440 99
Width: 512
Flags: W
LayerCount: 2
Fore
SplineSet
141 109 m 2,0,1
 147 104 147 104 152 104 c 2,2,-1
 496 104 l 1,3,4
 511 106 511 106 512 120 c 1,5,-1
 512 392 l 1,6,7
 510 407 510 407 496 408 c 1,8,-1
 152 408 l 1,9,10
 146 407 146 407 141 403 c 2,11,-1
 5 267 l 2,12,13
 -6 256 -6 256 5 245 c 2,14,-1
 141 109 l 2,0,1
159 376 m 1,15,-1
 480 376 l 1,16,-1
 480 136 l 1,17,-1
 159 136 l 1,18,-1
 39 256 l 1,19,-1
 159 376 l 1,15,-1
EndSplineSet
EndChar

StartChar: uniE061
Encoding: 57441 57441 100
Width: 512
Flags: W
LayerCount: 2
Fore
SplineSet
16 104 m 1,0,-1
 360 104 l 1,1,2
 366 105 366 105 371 109 c 2,3,-1
 507 245 l 2,4,5
 518 256 518 256 507 267 c 2,6,-1
 371 403 l 2,7,8
 365 408 365 408 360 408 c 2,9,-1
 16 408 l 1,10,11
 1 406 1 406 0 392 c 1,12,-1
 0 120 l 1,13,14
 2 105 2 105 16 104 c 1,0,-1
32 376 m 1,15,-1
 353 376 l 1,16,-1
 473 256 l 1,17,-1
 353 136 l 1,18,-1
 32 136 l 1,19,-1
 32 376 l 1,15,-1
EndSplineSet
EndChar

StartChar: uniE062
Encoding: 57442 57442 101
Width: 512
Flags: W
LayerCount: 2
Fore
SplineSet
384 0 m 1,0,1
 399 2 399 2 400 16 c 1,2,-1
 400 360 l 1,3,4
 399 366 399 366 395 371 c 2,5,-1
 259 507 l 2,6,7
 248 518 248 518 237 507 c 2,8,-1
 101 371 l 2,9,10
 96 365 96 365 96 360 c 2,11,-1
 96 16 l 1,12,13
 98 1 98 1 112 0 c 1,14,-1
 384 0 l 1,0,1
128 353 m 1,15,-1
 248 473 l 1,16,-1
 368 353 l 1,17,-1
 368 32 l 1,18,-1
 128 32 l 1,19,-1
 128 353 l 1,15,-1
EndSplineSet
EndChar

StartChar: uniE063
Encoding: 57443 57443 102
Width: 512
Flags: W
LayerCount: 2
Fore
SplineSet
0 432 m 1,0,1
 2 417 2 417 16 416 c 1,2,-1
 65 416 l 1,3,-1
 96 63 l 1,4,5
 96 24 96 24 131 7 c 0,6,7
 145 0 145 0 160 0 c 0,8,9
 200 0 200 0 217 35 c 0,10,11
 220 42 220 42 222 48 c 1,12,-1
 290 48 l 1,13,14
 299 13 299 13 334 3 c 0,15,16
 343 0 343 0 352 0 c 0,17,18
 391 0 391 0 409 35 c 0,19,20
 416 49 416 49 416 64 c 0,21,22
 416 103 416 103 381 121 c 0,23,24
 367 128 367 128 352 128 c 0,25,26
 312 128 312 128 295 93 c 0,27,28
 292 86 292 86 290 80 c 1,29,-1
 222 80 l 1,30,31
 213 115 213 115 178 125 c 0,32,33
 169 128 169 128 160 128 c 0,34,35
 139 127 139 127 123 116 c 1,36,-1
 119 168 l 1,37,-1
 120 168 l 1,38,-1
 121 168 l 1,39,-1
 449 184 l 2,40,41
 460 185 460 185 463 196 c 2,42,-1
 511 364 l 2,43,44
 513 371 513 371 509 378 c 1,45,46
 504 384 504 384 496 384 c 2,47,-1
 100 384 l 1,48,-1
 96 433 l 1,49,50
 93 447 93 447 80 448 c 1,51,-1
 16 448 l 1,52,53
 1 446 1 446 0 432 c 1,0,1
352 96 m 0,54,55
 376 96 376 96 383 74 c 0,56,57
 384 68 384 68 384 64 c 0,58,59
 384 40 384 40 362 33 c 0,60,61
 356 32 356 32 352 32 c 0,62,63
 328 32 328 32 321 54 c 0,64,65
 320 60 320 60 320 64 c 0,66,67
 320 88 320 88 342 95 c 0,68,69
 348 96 348 96 352 96 c 0,54,55
160 96 m 0,70,71
 184 96 184 96 191 74 c 0,72,73
 192 68 192 68 192 64 c 0,74,75
 192 40 192 40 170 33 c 0,76,77
 164 32 164 32 160 32 c 0,78,79
 136 32 136 32 129 54 c 0,80,81
 128 60 128 60 128 64 c 0,82,83
 128 88 128 88 150 95 c 0,84,85
 156 96 156 96 160 96 c 0,70,71
475 352 m 1,86,-1
 436 215 l 1,87,-1
 119 200 l 1,88,-1
 116 200 l 1,89,-1
 103 352 l 1,90,-1
 475 352 l 1,86,-1
EndSplineSet
EndChar

StartChar: uniE064
Encoding: 57444 57444 103
Width: 512
Flags: W
LayerCount: 2
Fore
SplineSet
0 432 m 1,0,1
 2 417 2 417 16 416 c 1,2,-1
 65 416 l 1,3,-1
 96 63 l 1,4,5
 96 24 96 24 131 7 c 0,6,7
 145 0 145 0 160 0 c 0,8,9
 200 0 200 0 217 35 c 0,10,11
 220 42 220 42 222 48 c 1,12,-1
 290 48 l 1,13,14
 299 13 299 13 334 3 c 0,15,16
 343 0 343 0 352 0 c 0,17,18
 391 0 391 0 409 35 c 0,19,20
 416 49 416 49 416 64 c 0,21,22
 416 103 416 103 381 121 c 0,23,24
 367 128 367 128 352 128 c 0,25,26
 312 128 312 128 295 93 c 0,27,28
 292 86 292 86 290 80 c 1,29,-1
 222 80 l 1,30,31
 213 115 213 115 178 125 c 0,32,33
 169 128 169 128 160 128 c 0,34,35
 139 127 139 127 123 116 c 1,36,-1
 119 168 l 1,37,-1
 120 168 l 1,38,-1
 121 168 l 1,39,-1
 449 184 l 2,40,41
 460 185 460 185 463 196 c 2,42,-1
 511 364 l 2,43,44
 513 371 513 371 509 378 c 1,45,46
 504 384 504 384 496 384 c 2,47,-1
 444 384 l 1,48,-1
 415 484 l 1,49,50
 410 495 410 495 400 496 c 1,51,-1
 288 496 l 1,52,53
 282 495 282 495 277 491 c 2,54,-1
 233 448 l 1,55,-1
 160 448 l 1,56,57
 148 447 148 447 144 436 c 1,58,-1
 132 384 l 1,59,-1
 100 384 l 1,60,-1
 96 433 l 1,61,62
 93 447 93 447 80 448 c 1,63,-1
 16 448 l 1,64,65
 1 446 1 446 0 432 c 1,0,1
352 96 m 0,66,67
 376 96 376 96 383 74 c 0,68,69
 384 68 384 68 384 64 c 0,70,71
 384 40 384 40 362 33 c 0,72,73
 356 32 356 32 352 32 c 0,74,75
 328 32 328 32 321 54 c 0,76,77
 320 60 320 60 320 64 c 0,78,79
 320 88 320 88 342 95 c 0,80,81
 348 96 348 96 352 96 c 0,66,67
160 96 m 0,82,83
 184 96 184 96 191 74 c 0,84,85
 192 68 192 68 192 64 c 0,86,87
 192 40 192 40 170 33 c 0,88,89
 164 32 164 32 160 32 c 0,90,91
 136 32 136 32 129 54 c 0,92,93
 128 60 128 60 128 64 c 0,94,95
 128 88 128 88 150 95 c 0,96,97
 156 96 156 96 160 96 c 0,82,83
295 464 m 1,98,-1
 388 464 l 1,99,-1
 411 384 l 1,100,-1
 268 384 l 1,101,-1
 258 427 l 1,102,-1
 295 464 l 1,98,-1
172 416 m 1,103,-1
 228 416 l 1,104,-1
 236 384 l 1,105,-1
 164 384 l 1,106,-1
 172 416 l 1,103,-1
432 352 m 1,107,-1
 432 352 l 1,108,-1
 475 352 l 1,109,-1
 436 215 l 1,110,-1
 119 200 l 1,111,-1
 116 200 l 1,112,-1
 103 352 l 1,113,-1
 432 352 l 1,107,-1
EndSplineSet
EndChar

StartChar: uniE065
Encoding: 57445 57445 104
Width: 512
Flags: W
LayerCount: 2
Fore
SplineSet
496 512 m 1,0,-1
 16 512 l 1,1,2
 1 510 1 510 0 496 c 1,3,-1
 0 16 l 1,4,5
 2 1 2 1 16 0 c 1,6,-1
 496 0 l 1,7,8
 511 2 511 2 512 16 c 1,9,-1
 512 496 l 1,10,11
 510 511 510 511 496 512 c 1,0,-1
480 32 m 1,12,-1
 32 32 l 1,13,-1
 32 480 l 1,14,-1
 480 480 l 1,15,-1
 480 32 l 1,12,-1
80 384 m 1,16,-1
 112 384 l 1,17,-1
 112 80 l 1,18,19
 114 65 114 65 128 64 c 1,20,21
 143 66 143 66 144 80 c 1,22,-1
 144 384 l 1,23,-1
 176 384 l 1,24,25
 191 386 191 386 192 400 c 1,26,27
 190 415 190 415 176 416 c 1,28,-1
 144 416 l 1,29,-1
 144 432 l 1,30,31
 142 447 142 447 128 448 c 1,32,33
 113 446 113 446 112 432 c 1,34,-1
 112 416 l 1,35,-1
 80 416 l 1,36,37
 65 414 65 414 64 400 c 1,38,39
 66 385 66 385 80 384 c 1,16,-1
336 96 m 1,40,-1
 368 96 l 1,41,-1
 368 80 l 1,42,43
 370 65 370 65 384 64 c 1,44,45
 399 66 399 66 400 80 c 1,46,-1
 400 96 l 1,47,-1
 432 96 l 1,48,49
 447 98 447 98 448 112 c 1,50,51
 446 127 446 127 432 128 c 1,52,-1
 400 128 l 1,53,-1
 400 432 l 1,54,55
 398 447 398 447 384 448 c 1,56,57
 369 446 369 446 368 432 c 1,58,-1
 368 128 l 1,59,-1
 336 128 l 1,60,61
 321 126 321 126 320 112 c 1,62,63
 322 97 322 97 336 96 c 1,40,-1
208 240 m 1,64,-1
 240 240 l 1,65,-1
 240 80 l 1,66,67
 242 65 242 65 256 64 c 1,68,69
 271 66 271 66 272 80 c 1,70,-1
 272 240 l 1,71,-1
 304 240 l 1,72,73
 319 242 319 242 320 256 c 1,74,75
 318 271 318 271 304 272 c 1,76,-1
 272 272 l 1,77,-1
 272 432 l 1,78,79
 270 447 270 447 256 448 c 1,80,81
 241 446 241 446 240 432 c 1,82,-1
 240 272 l 1,83,-1
 208 272 l 1,84,85
 193 270 193 270 192 256 c 1,86,87
 194 241 194 241 208 240 c 1,64,-1
EndSplineSet
EndChar

StartChar: uniE066
Encoding: 57446 57446 105
Width: 512
Flags: W
LayerCount: 2
Fore
SplineSet
384 512 m 1,0,-1
 128 512 l 1,1,2
 113 510 113 510 112 496 c 1,3,-1
 112 16 l 1,4,5
 114 1 114 1 128 0 c 1,6,-1
 384 0 l 1,7,8
 399 2 399 2 400 16 c 1,9,-1
 400 496 l 1,10,11
 398 511 398 511 384 512 c 1,0,-1
368 32 m 1,12,-1
 144 32 l 1,13,-1
 144 480 l 1,14,-1
 368 480 l 1,15,-1
 368 32 l 1,12,-1
264 96 m 1,16,-1
 248 96 l 1,17,18
 233 94 233 94 232 80 c 1,19,20
 234 65 234 65 248 64 c 1,21,-1
 264 64 l 1,22,23
 279 66 279 66 280 80 c 1,24,25
 278 95 278 95 264 96 c 1,16,-1
200 416 m 1,26,-1
 312 416 l 1,27,28
 327 418 327 418 328 432 c 1,29,30
 326 447 326 447 312 448 c 1,31,-1
 200 448 l 1,32,33
 185 446 185 446 184 432 c 1,34,35
 186 417 186 417 200 416 c 1,26,-1
EndSplineSet
EndChar

StartChar: uniE067
Encoding: 57447 57447 106
Width: 512
Flags: W
LayerCount: 2
Fore
SplineSet
494 480 m 2,0,-1
 256 448 l 1,1,-1
 18 480 l 1,2,3
 10 479 10 479 5 476 c 1,4,5
 0 470 0 470 0 464 c 2,6,-1
 0 80 l 1,7,8
 1 67 1 67 14 64 c 1,9,-1
 254 32 l 1,10,-1
 256 32 l 1,11,-1
 258 32 l 1,12,-1
 498 64 l 1,13,14
 511 67 511 67 512 80 c 1,15,-1
 512 464 l 1,16,17
 511 471 511 471 507 476 c 1,18,19
 501 480 501 480 494 480 c 2,0,-1
32 446 m 1,20,-1
 240 418 l 1,21,-1
 240 66 l 1,22,-1
 32 94 l 1,23,-1
 32 446 l 1,20,-1
480 94 m 1,24,-1
 272 66 l 1,25,-1
 272 418 l 1,26,-1
 480 446 l 1,27,-1
 480 94 l 1,24,-1
78 368 m 1,28,-1
 206 352 l 1,29,-1
 208 352 l 1,30,31
 221 353 221 353 224 366 c 1,32,33
 224 381 224 381 210 384 c 1,34,-1
 82 400 l 1,35,36
 67 400 67 400 64 386 c 1,37,38
 64 371 64 371 78 368 c 1,28,-1
210 304 m 1,39,-1
 82 320 l 1,40,41
 67 320 67 320 64 306 c 1,42,43
 64 291 64 291 78 288 c 1,44,-1
 206 272 l 1,45,-1
 208 272 l 1,46,47
 221 273 221 273 224 286 c 1,48,49
 224 301 224 301 210 304 c 1,39,-1
210 224 m 1,50,-1
 82 240 l 1,51,52
 67 240 67 240 64 226 c 1,53,54
 64 211 64 211 78 208 c 1,55,-1
 206 192 l 1,56,-1
 208 192 l 1,57,58
 221 193 221 193 224 206 c 1,59,60
 224 221 224 221 210 224 c 1,50,-1
210 144 m 1,61,-1
 82 160 l 1,62,63
 67 160 67 160 64 146 c 1,64,65
 64 131 64 131 78 128 c 1,66,-1
 206 112 l 1,67,-1
 208 112 l 1,68,69
 221 113 221 113 224 126 c 1,70,71
 224 141 224 141 210 144 c 1,61,-1
304 352 m 1,72,-1
 306 352 l 1,73,-1
 434 368 l 1,74,75
 448 371 448 371 448 386 c 1,76,77
 445 400 445 400 430 400 c 1,78,-1
 302 384 l 1,79,80
 288 381 288 381 288 366 c 1,81,82
 291 353 291 353 304 352 c 1,72,-1
304 272 m 1,83,-1
 306 272 l 1,84,-1
 434 288 l 1,85,86
 448 291 448 291 448 306 c 1,87,88
 445 320 445 320 430 320 c 1,89,-1
 302 304 l 1,90,91
 288 301 288 301 288 286 c 1,92,93
 291 273 291 273 304 272 c 1,83,-1
304 192 m 1,94,-1
 306 192 l 1,95,-1
 434 208 l 1,96,97
 448 211 448 211 448 226 c 1,98,99
 445 240 445 240 430 240 c 1,100,-1
 302 224 l 1,101,102
 288 221 288 221 288 206 c 1,103,104
 291 193 291 193 304 192 c 1,94,-1
430 160 m 1,105,-1
 302 144 l 1,106,107
 288 141 288 141 288 126 c 1,108,109
 291 113 291 113 304 112 c 1,110,-1
 306 112 l 1,111,-1
 434 128 l 1,112,113
 448 131 448 131 448 146 c 1,114,115
 445 160 445 160 430 160 c 1,105,-1
EndSplineSet
EndChar

StartChar: uniE068
Encoding: 57448 57448 107
Width: 512
Flags: W
LayerCount: 2
Fore
SplineSet
16 288 m 1,0,-1
 208 288 l 1,1,2
 223 290 223 290 224 304 c 1,3,-1
 224 496 l 1,4,5
 222 511 222 511 208 512 c 1,6,-1
 16 512 l 1,7,8
 1 510 1 510 0 496 c 1,9,-1
 0 304 l 1,10,11
 2 289 2 289 16 288 c 1,0,-1
32 480 m 1,12,-1
 192 480 l 1,13,-1
 192 320 l 1,14,-1
 32 320 l 1,15,-1
 32 480 l 1,12,-1
512 496 m 1,16,17
 510 511 510 511 496 512 c 1,18,-1
 304 512 l 1,19,20
 289 510 289 510 288 496 c 1,21,-1
 288 304 l 1,22,23
 290 289 290 289 304 288 c 1,24,-1
 496 288 l 1,25,26
 511 290 511 290 512 304 c 1,27,-1
 512 496 l 1,16,17
480 320 m 1,28,-1
 320 320 l 1,29,-1
 320 480 l 1,30,-1
 480 480 l 1,31,-1
 480 320 l 1,28,-1
16 0 m 1,32,-1
 216 0 l 1,33,34
 231 2 231 2 232 16 c 1,35,-1
 232 216 l 1,36,37
 230 231 230 231 216 232 c 1,38,-1
 16 232 l 1,39,40
 1 230 1 230 0 216 c 1,41,-1
 0 16 l 1,42,43
 2 1 2 1 16 0 c 1,32,-1
32 200 m 1,44,-1
 200 200 l 1,45,-1
 200 32 l 1,46,-1
 32 32 l 1,47,-1
 32 200 l 1,44,-1
496 224 m 1,48,-1
 304 224 l 1,49,50
 289 222 289 222 288 208 c 1,51,-1
 288 16 l 1,52,53
 290 1 290 1 304 0 c 1,54,-1
 496 0 l 1,55,56
 511 2 511 2 512 16 c 1,57,-1
 512 208 l 1,58,59
 510 223 510 223 496 224 c 1,48,-1
480 32 m 1,60,-1
 320 32 l 1,61,-1
 320 192 l 1,62,-1
 480 192 l 1,63,-1
 480 32 l 1,60,-1
EndSplineSet
EndChar

StartChar: uniE069
Encoding: 57449 57449 108
Width: 512
Flags: W
LayerCount: 2
Fore
SplineSet
331 125 m 2,0,1
 342 136 342 136 331 147 c 128,-1,2
 320 158 320 158 309 147 c 2,3,-1
 263 102 l 1,4,-1
 311 70 l 1,5,-1
 293 51 l 2,6,7
 282 40 282 40 293 29 c 0,8,9
 299 24 299 24 304 24 c 0,10,11
 310 25 310 25 315 29 c 2,12,-1
 361 74 l 1,13,-1
 313 106 l 1,14,-1
 331 125 l 2,0,1
203 125 m 2,15,16
 214 136 214 136 203 147 c 128,-1,17
 192 158 192 158 181 147 c 2,18,-1
 135 102 l 1,19,-1
 183 70 l 1,20,-1
 165 51 l 2,21,22
 154 40 154 40 165 29 c 0,23,24
 171 24 171 24 176 24 c 0,25,26
 182 25 182 25 187 29 c 2,27,-1
 233 74 l 1,28,-1
 185 106 l 1,29,-1
 203 125 l 2,15,16
447 327 m 1,30,31
 441 408 441 408 374 456 c 1,32,33
 327 488 327 488 272 488 c 0,34,35
 186 488 186 488 133 424 c 0,36,37
 109 395 109 395 99 360 c 1,38,-1
 96 360 l 2,39,40
 43 360 43 360 15 315 c 0,41,42
 0 291 0 291 0 264 c 0,43,44
 0 211 0 211 45 183 c 0,45,46
 69 168 69 168 96 168 c 2,47,-1
 432 168 l 2,48,49
 477 168 477 168 501 207 c 1,50,51
 512 227 512 227 512 248 c 0,52,53
 512 295 512 295 471 318 c 0,54,55
 459 324 459 324 447 327 c 1,30,31
432 200 m 2,56,-1
 96 200 l 2,57,58
 57 200 57 200 39 235 c 0,59,60
 32 249 32 249 32 264 c 0,61,62
 32 303 32 303 67 321 c 0,63,64
 81 328 81 328 96 328 c 2,65,-1
 112 328 l 1,66,67
 124 329 124 329 128 341 c 1,68,69
 140 407 140 407 202 439 c 0,70,71
 235 456 235 456 272 456 c 0,72,73
 343 456 343 456 387 399 c 1,74,75
 416 359 416 359 416 312 c 1,76,77
 418 297 418 297 432 296 c 1,78,79
 462 296 462 296 476 268 c 0,80,81
 480 258 480 258 480 248 c 0,82,83
 480 218 480 218 452 204 c 0,84,85
 442 200 442 200 432 200 c 2,56,-1
EndSplineSet
EndChar

StartChar: uniE06A
Encoding: 57450 57450 109
Width: 512
Flags: W
LayerCount: 2
Fore
SplineSet
256 400 m 0,0,1
 185 400 185 400 141 343 c 1,2,3
 112 303 112 303 112 256 c 0,4,5
 112 185 112 185 169 141 c 1,6,7
 209 112 209 112 256 112 c 0,8,9
 327 112 327 112 371 169 c 1,10,11
 400 209 400 209 400 256 c 0,12,13
 400 327 400 327 343 371 c 1,14,15
 303 400 303 400 256 400 c 0,0,1
256 144 m 0,16,17
 196 144 196 144 163 193 c 0,18,19
 144 222 144 222 144 256 c 0,20,21
 144 316 144 316 193 349 c 0,22,23
 222 368 222 368 256 368 c 0,24,25
 316 368 316 368 349 319 c 0,26,27
 368 290 368 290 368 256 c 0,28,29
 368 196 368 196 319 163 c 0,30,31
 290 144 290 144 256 144 c 0,16,17
240 496 m 1,32,-1
 240 432 l 1,33,34
 242 417 242 417 256 416 c 1,35,36
 271 418 271 418 272 432 c 1,37,-1
 272 496 l 1,38,39
 270 511 270 511 256 512 c 1,40,41
 241 510 241 510 240 496 c 1,32,-1
256 96 m 1,42,43
 241 94 241 94 240 80 c 1,44,-1
 240 16 l 1,45,46
 242 1 242 1 256 0 c 1,47,48
 271 2 271 2 272 16 c 1,49,-1
 272 80 l 1,50,51
 270 95 270 95 256 96 c 1,42,43
496 272 m 1,52,-1
 432 272 l 1,53,54
 417 270 417 270 416 256 c 1,55,56
 418 241 418 241 432 240 c 1,57,-1
 496 240 l 1,58,59
 511 242 511 242 512 256 c 1,60,61
 510 271 510 271 496 272 c 1,52,-1
96 256 m 1,62,63
 94 271 94 271 80 272 c 1,64,-1
 16 272 l 1,65,66
 1 270 1 270 0 256 c 1,67,68
 2 241 2 241 16 240 c 1,69,-1
 80 240 l 1,70,71
 95 242 95 242 96 256 c 1,62,63
405 427 m 2,72,-1
 373 395 l 2,73,74
 362 384 362 384 373 373 c 0,75,76
 379 368 379 368 384 368 c 0,77,78
 390 369 390 369 395 373 c 2,79,-1
 427 405 l 2,80,81
 438 416 438 416 427 427 c 128,-1,82
 416 438 416 438 405 427 c 2,72,-1
117 139 m 2,83,-1
 85 107 l 2,84,85
 74 96 74 96 85 85 c 0,86,87
 91 80 91 80 96 80 c 0,88,89
 102 81 102 81 107 85 c 2,90,-1
 139 117 l 2,91,92
 150 128 150 128 139 139 c 128,-1,93
 128 150 128 150 117 139 c 2,83,-1
395 139 m 2,94,95
 384 150 384 150 373 139 c 128,-1,96
 362 128 362 128 373 117 c 2,97,-1
 405 85 l 2,98,99
 411 80 411 80 416 80 c 0,100,101
 422 81 422 81 427 85 c 0,102,103
 438 96 438 96 427 107 c 2,104,-1
 395 139 l 2,94,95
85 427 m 128,-1,106
 74 416 74 416 85 405 c 2,107,-1
 117 373 l 2,108,109
 123 368 123 368 128 368 c 0,110,111
 134 369 134 369 139 373 c 0,112,113
 150 384 150 384 139 395 c 2,114,-1
 107 427 l 2,115,105
 96 438 96 438 85 427 c 128,-1,106
EndSplineSet
EndChar

StartChar: uniE06B
Encoding: 57451 57451 110
Width: 512
Flags: W
LayerCount: 2
Fore
SplineSet
448 16 m 1,0,-1
 448 496 l 1,1,2
 446 511 446 511 432 512 c 1,3,-1
 80 512 l 1,4,5
 65 510 65 510 64 496 c 1,6,-1
 64 16 l 1,7,8
 66 1 66 1 80 0 c 1,9,-1
 432 0 l 1,10,11
 447 2 447 2 448 16 c 1,0,-1
416 32 m 1,12,-1
 96 32 l 1,13,-1
 96 480 l 1,14,-1
 416 480 l 1,15,-1
 416 32 l 1,12,-1
245 91 m 1,16,17
 240 85 240 85 240 80 c 0,18,19
 241 74 241 74 245 69 c 1,20,21
 251 64 251 64 256 64 c 0,22,23
 262 65 262 65 267 69 c 1,24,25
 272 75 272 75 272 80 c 0,26,27
 271 86 271 86 267 91 c 1,28,29
 256 100 256 100 245 91 c 1,16,17
216 416 m 1,30,-1
 296 416 l 1,31,32
 311 418 311 418 312 432 c 1,33,34
 310 447 310 447 296 448 c 1,35,-1
 216 448 l 1,36,37
 201 446 201 446 200 432 c 1,38,39
 202 417 202 417 216 416 c 1,30,-1
EndSplineSet
EndChar

StartChar: uniE06C
Encoding: 57452 57452 111
Width: 512
Flags: W
LayerCount: 2
Fore
SplineSet
496 208 m 1,0,-1
 16 208 l 1,1,2
 1 206 1 206 0 192 c 1,3,4
 2 177 2 177 16 176 c 1,5,-1
 496 176 l 1,6,7
 511 178 511 178 512 192 c 1,8,9
 510 207 510 207 496 208 c 1,0,-1
496 272 m 1,10,-1
 16 272 l 1,11,12
 1 270 1 270 0 256 c 1,13,14
 2 241 2 241 16 240 c 1,15,-1
 496 240 l 1,16,17
 511 242 511 242 512 256 c 1,18,19
 510 271 510 271 496 272 c 1,10,-1
496 336 m 1,20,-1
 16 336 l 1,21,22
 1 334 1 334 0 320 c 1,23,24
 2 305 2 305 16 304 c 1,25,-1
 496 304 l 1,26,27
 511 306 511 306 512 320 c 1,28,29
 510 335 510 335 496 336 c 1,20,-1
EndSplineSet
EndChar

StartChar: uniE06D
Encoding: 57453 57453 112
Width: 512
Flags: W
LayerCount: 2
Fore
SplineSet
192 0 m 1,0,1
 207 2 207 2 208 16 c 1,2,-1
 208 496 l 1,3,4
 206 511 206 511 192 512 c 1,5,6
 177 510 177 510 176 496 c 1,7,-1
 176 16 l 1,8,9
 178 1 178 1 192 0 c 1,0,1
256 0 m 1,10,11
 271 2 271 2 272 16 c 1,12,-1
 272 496 l 1,13,14
 270 511 270 511 256 512 c 1,15,16
 241 510 241 510 240 496 c 1,17,-1
 240 16 l 1,18,19
 242 1 242 1 256 0 c 1,10,11
320 0 m 1,20,21
 335 2 335 2 336 16 c 1,22,-1
 336 496 l 1,23,24
 334 511 334 511 320 512 c 1,25,26
 305 510 305 510 304 496 c 1,27,-1
 304 16 l 1,28,29
 306 1 306 1 320 0 c 1,20,21
EndSplineSet
EndChar

StartChar: uniE06E
Encoding: 57454 57454 113
Width: 512
Flags: W
LayerCount: 2
Fore
SplineSet
5 181 m 2,0,-1
 47 138 l 1,1,2
 59 129 59 129 70 138 c 0,3,4
 85 152 85 152 104 152 c 0,5,6
 134 152 134 152 148 124 c 0,7,8
 152 114 152 114 152 104 c 0,9,10
 151 84 151 84 138 70 c 0,11,12
 133 64 133 64 133 59 c 0,13,14
 134 52 134 52 138 47 c 2,15,-1
 181 5 l 2,16,17
 187 0 187 0 192 0 c 0,18,19
 198 1 198 1 203 5 c 2,20,-1
 507 309 l 2,21,22
 512 315 512 315 512 320 c 0,23,24
 511 326 511 326 507 331 c 2,25,-1
 465 374 l 1,26,27
 453 383 453 383 442 374 c 0,28,29
 427 360 427 360 408 360 c 0,30,31
 378 360 378 360 364 388 c 0,32,33
 360 398 360 398 360 408 c 0,34,35
 361 428 361 428 374 442 c 0,36,37
 379 448 379 448 379 453 c 0,38,39
 378 460 378 460 374 465 c 2,40,-1
 331 507 l 2,41,42
 320 518 320 518 309 507 c 2,43,-1
 5 203 l 2,44,45
 0 197 0 197 0 192 c 0,46,47
 1 186 1 186 5 181 c 2,0,-1
208 361 m 1,48,-1
 221 349 l 2,49,50
 227 344 227 344 232 344 c 0,51,52
 238 345 238 345 243 349 c 0,53,54
 254 360 254 360 243 371 c 2,55,-1
 231 384 l 1,56,-1
 320 473 l 1,57,-1
 341 452 l 1,58,59
 328 430 328 430 328 408 c 0,60,61
 328 363 328 363 367 339 c 1,62,63
 387 328 387 328 408 328 c 0,64,65
 431 329 431 329 452 341 c 1,66,-1
 473 320 l 1,67,-1
 384 231 l 1,68,-1
 371 243 l 2,69,70
 360 254 360 254 349 243 c 128,-1,71
 338 232 338 232 349 221 c 2,72,-1
 361 208 l 1,73,-1
 192 39 l 1,74,-1
 171 60 l 1,75,76
 184 82 184 82 184 104 c 0,77,78
 184 149 184 149 145 173 c 1,79,80
 125 184 125 184 104 184 c 0,81,82
 81 183 81 183 60 171 c 1,83,-1
 39 192 l 1,84,-1
 208 361 l 1,48,-1
269 301 m 2,85,86
 275 296 275 296 280 296 c 0,87,88
 286 297 286 297 291 301 c 0,89,90
 302 312 302 312 291 323 c 2,91,-1
 275 339 l 2,92,93
 264 350 264 350 253 339 c 128,-1,94
 242 328 242 328 253 317 c 2,95,-1
 269 301 l 2,85,86
301 269 m 2,96,-1
 317 253 l 2,97,98
 323 248 323 248 328 248 c 0,99,100
 334 249 334 249 339 253 c 0,101,102
 350 264 350 264 339 275 c 2,103,-1
 323 291 l 2,104,105
 312 302 312 302 301 291 c 128,-1,106
 290 280 290 280 301 269 c 2,96,-1
EndSplineSet
EndChar

StartChar: uniE06F
Encoding: 57455 57455 114
Width: 512
Flags: W
LayerCount: 2
Fore
SplineSet
354 464 m 1,0,-1
 334 503 l 2,1,2
 330 511 330 511 320 512 c 1,3,-1
 192 512 l 1,4,5
 182 511 182 511 178 503 c 2,6,-1
 158 464 l 1,7,-1
 80 464 l 1,8,9
 65 462 65 462 64 448 c 1,10,-1
 64 16 l 1,11,12
 66 1 66 1 80 0 c 1,13,-1
 432 0 l 1,14,15
 447 2 447 2 448 16 c 1,16,-1
 448 448 l 1,17,18
 446 463 446 463 432 464 c 1,19,-1
 354 464 l 1,0,-1
202 480 m 1,20,-1
 310 480 l 1,21,-1
 342 416 l 1,22,-1
 170 416 l 1,23,-1
 202 480 l 1,20,-1
416 32 m 1,24,-1
 96 32 l 1,25,-1
 96 432 l 1,26,-1
 142 432 l 1,27,-1
 130 407 l 2,28,29
 126 399 126 399 130 392 c 1,30,31
 136 385 136 385 144 384 c 1,32,-1
 368 384 l 1,33,34
 383 386 383 386 384 400 c 0,35,36
 384 404 384 404 381 409 c 2,37,-1
 370 432 l 1,38,-1
 416 432 l 1,39,-1
 416 32 l 1,24,-1
368 336 m 1,40,-1
 224 336 l 1,41,42
 209 334 209 334 208 320 c 1,43,44
 210 305 210 305 224 304 c 1,45,-1
 368 304 l 1,46,47
 383 306 383 306 384 320 c 1,48,49
 382 335 382 335 368 336 c 1,40,-1
368 256 m 1,50,-1
 224 256 l 1,51,52
 209 254 209 254 208 240 c 1,53,54
 210 225 210 225 224 224 c 1,55,-1
 368 224 l 1,56,57
 383 226 383 226 384 240 c 1,58,59
 382 255 382 255 368 256 c 1,50,-1
368 176 m 1,60,-1
 224 176 l 1,61,62
 209 174 209 174 208 160 c 1,63,64
 210 145 210 145 224 144 c 1,65,-1
 368 144 l 1,66,67
 383 146 383 146 384 160 c 1,68,69
 382 175 382 175 368 176 c 1,60,-1
368 96 m 1,70,-1
 224 96 l 1,71,72
 209 94 209 94 208 80 c 1,73,74
 210 65 210 65 224 64 c 1,75,-1
 368 64 l 1,76,77
 383 66 383 66 384 80 c 1,78,79
 382 95 382 95 368 96 c 1,70,-1
160 336 m 1,80,-1
 144 336 l 1,81,82
 129 334 129 334 128 320 c 1,83,84
 130 305 130 305 144 304 c 1,85,-1
 160 304 l 1,86,87
 175 306 175 306 176 320 c 1,88,89
 174 335 174 335 160 336 c 1,80,-1
160 256 m 1,90,-1
 144 256 l 1,91,92
 129 254 129 254 128 240 c 1,93,94
 130 225 130 225 144 224 c 1,95,-1
 160 224 l 1,96,97
 175 226 175 226 176 240 c 1,98,99
 174 255 174 255 160 256 c 1,90,-1
160 176 m 1,100,-1
 144 176 l 1,101,102
 129 174 129 174 128 160 c 1,103,104
 130 145 130 145 144 144 c 1,105,-1
 160 144 l 1,106,107
 175 146 175 146 176 160 c 1,108,109
 174 175 174 175 160 176 c 1,100,-1
160 96 m 1,110,-1
 144 96 l 1,111,112
 129 94 129 94 128 80 c 1,113,114
 130 65 130 65 144 64 c 1,115,-1
 160 64 l 1,116,117
 175 66 175 66 176 80 c 1,118,119
 174 95 174 95 160 96 c 1,110,-1
EndSplineSet
EndChar

StartChar: uniE070
Encoding: 57456 57456 115
Width: 512
Flags: W
LayerCount: 2
Fore
SplineSet
178 503 m 2,0,-1
 158 464 l 1,1,-1
 80 464 l 1,2,3
 65 462 65 462 64 448 c 1,4,-1
 64 16 l 1,5,6
 66 1 66 1 80 0 c 1,7,-1
 432 0 l 1,8,9
 447 2 447 2 448 16 c 1,10,-1
 448 448 l 1,11,12
 446 463 446 463 432 464 c 1,13,-1
 354 464 l 1,14,-1
 334 503 l 2,15,16
 330 511 330 511 320 512 c 1,17,-1
 192 512 l 1,18,19
 182 511 182 511 178 503 c 2,0,-1
416 432 m 1,20,-1
 416 32 l 1,21,-1
 96 32 l 1,22,-1
 96 432 l 1,23,-1
 142 432 l 1,24,-1
 130 407 l 2,25,26
 126 399 126 399 130 392 c 1,27,28
 136 385 136 385 144 384 c 1,29,-1
 368 384 l 1,30,31
 383 386 383 386 384 400 c 0,32,33
 384 404 384 404 381 409 c 2,34,-1
 370 432 l 1,35,-1
 416 432 l 1,20,-1
310 480 m 1,36,-1
 342 416 l 1,37,-1
 170 416 l 1,38,-1
 202 480 l 1,39,-1
 310 480 l 1,36,-1
320 256 m 1,40,-1
 272 256 l 1,41,-1
 272 304 l 1,42,43
 270 319 270 319 256 320 c 1,44,45
 241 318 241 318 240 304 c 1,46,-1
 240 256 l 1,47,-1
 192 256 l 1,48,49
 177 254 177 254 176 240 c 1,50,51
 178 225 178 225 192 224 c 1,52,-1
 240 224 l 1,53,-1
 240 176 l 1,54,55
 242 161 242 161 256 160 c 1,56,57
 271 162 271 162 272 176 c 1,58,-1
 272 224 l 1,59,-1
 320 224 l 1,60,61
 335 226 335 226 336 240 c 1,62,63
 334 255 334 255 320 256 c 1,40,-1
EndSplineSet
EndChar

StartChar: uniE071
Encoding: 57457 57457 116
Width: 512
Flags: W
LayerCount: 2
Fore
SplineSet
432 0 m 1,0,1
 447 2 447 2 448 16 c 1,2,-1
 448 448 l 1,3,4
 446 463 446 463 432 464 c 1,5,-1
 354 464 l 1,6,-1
 334 503 l 2,7,8
 330 511 330 511 320 512 c 1,9,-1
 192 512 l 1,10,11
 182 511 182 511 178 503 c 2,12,-1
 158 464 l 1,13,-1
 80 464 l 1,14,15
 65 462 65 462 64 448 c 1,16,-1
 64 16 l 1,17,18
 66 1 66 1 80 0 c 1,19,-1
 432 0 l 1,0,1
202 480 m 1,20,-1
 310 480 l 1,21,-1
 342 416 l 1,22,-1
 170 416 l 1,23,-1
 202 480 l 1,20,-1
96 432 m 1,24,-1
 142 432 l 1,25,-1
 130 407 l 2,26,27
 126 399 126 399 130 392 c 1,28,29
 136 385 136 385 144 384 c 1,30,-1
 368 384 l 1,31,32
 383 386 383 386 384 400 c 0,33,34
 384 404 384 404 381 409 c 2,35,-1
 370 432 l 1,36,-1
 416 432 l 1,37,-1
 416 32 l 1,38,-1
 96 32 l 1,39,-1
 96 432 l 1,24,-1
309 283 m 2,40,-1
 240 215 l 1,41,-1
 203 251 l 2,42,43
 192 262 192 262 181 251 c 128,-1,44
 170 240 170 240 181 229 c 2,45,-1
 229 181 l 2,46,47
 235 176 235 176 240 176 c 0,48,49
 246 177 246 177 251 181 c 2,50,-1
 331 261 l 2,51,52
 342 272 342 272 331 283 c 128,-1,53
 320 294 320 294 309 283 c 2,40,-1
EndSplineSet
EndChar

StartChar: uniE072
Encoding: 57458 57458 117
Width: 512
Flags: W
LayerCount: 2
Fore
SplineSet
312 512 m 1,0,-1
 200 512 l 1,1,2
 185 510 185 510 184 496 c 1,3,-1
 184 448 l 1,4,-1
 80 448 l 1,5,6
 65 446 65 446 64 432 c 1,7,8
 66 417 66 417 80 416 c 1,9,-1
 96 416 l 1,10,-1
 96 16 l 1,11,12
 98 1 98 1 112 0 c 1,13,-1
 400 0 l 1,14,15
 415 2 415 2 416 16 c 1,16,-1
 416 416 l 1,17,-1
 432 416 l 1,18,19
 447 418 447 418 448 432 c 1,20,21
 446 447 446 447 432 448 c 1,22,-1
 328 448 l 1,23,-1
 328 496 l 1,24,25
 326 511 326 511 312 512 c 1,0,-1
384 416 m 1,26,-1
 384 32 l 1,27,-1
 128 32 l 1,28,-1
 128 416 l 1,29,-1
 384 416 l 1,26,-1
216 448 m 1,30,-1
 216 480 l 1,31,-1
 296 480 l 1,32,-1
 296 448 l 1,33,-1
 216 448 l 1,30,-1
208 64 m 1,34,35
 223 66 223 66 224 80 c 1,36,-1
 224 352 l 1,37,38
 222 367 222 367 208 368 c 1,39,40
 193 366 193 366 192 352 c 1,41,-1
 192 80 l 1,42,43
 194 65 194 65 208 64 c 1,34,35
304 64 m 1,44,45
 319 66 319 66 320 80 c 1,46,-1
 320 352 l 1,47,48
 318 367 318 367 304 368 c 1,49,50
 289 366 289 366 288 352 c 1,51,-1
 288 80 l 1,52,53
 290 65 290 65 304 64 c 1,44,45
EndSplineSet
EndChar

StartChar: uniE073
Encoding: 57459 57459 118
Width: 512
Flags: W
LayerCount: 2
Fore
SplineSet
496 480 m 1,0,-1
 336 480 l 1,1,2
 328 479 328 479 323 474 c 1,3,-1
 280 416 l 1,4,-1
 232 416 l 1,5,-1
 189 474 l 2,6,7
 184 480 184 480 176 480 c 2,8,-1
 16 480 l 1,9,10
 1 478 1 478 0 464 c 1,11,-1
 0 336 l 1,12,13
 2 321 2 321 16 320 c 1,14,-1
 96 320 l 1,15,-1
 96 48 l 1,16,17
 98 33 98 33 112 32 c 1,18,-1
 400 32 l 1,19,20
 415 34 415 34 416 48 c 1,21,-1
 416 320 l 1,22,-1
 496 320 l 1,23,24
 511 322 511 322 512 336 c 1,25,-1
 512 464 l 1,26,27
 510 479 510 479 496 480 c 1,0,-1
480 352 m 1,28,-1
 400 352 l 1,29,30
 385 350 385 350 384 336 c 1,31,-1
 384 64 l 1,32,-1
 128 64 l 1,33,-1
 128 336 l 1,34,35
 126 351 126 351 112 352 c 1,36,-1
 32 352 l 1,37,-1
 32 448 l 1,38,-1
 168 448 l 1,39,-1
 211 390 l 2,40,41
 216 384 216 384 224 384 c 2,42,-1
 288 384 l 1,43,44
 296 385 296 385 301 390 c 1,45,-1
 344 448 l 1,46,-1
 480 448 l 1,47,-1
 480 352 l 1,28,-1
EndSplineSet
EndChar

StartChar: uniE074
Encoding: 57460 57460 119
Width: 512
Flags: W
LayerCount: 2
Fore
SplineSet
496 448 m 1,0,-1
 16 448 l 1,1,2
 1 446 1 446 0 432 c 1,3,-1
 0 112 l 1,4,5
 2 97 2 97 16 96 c 1,6,-1
 240 96 l 1,7,-1
 240 32 l 1,8,-1
 176 32 l 1,9,10
 161 30 161 30 160 16 c 1,11,12
 162 1 162 1 176 0 c 1,13,-1
 336 0 l 1,14,15
 351 2 351 2 352 16 c 1,16,17
 350 31 350 31 336 32 c 1,18,-1
 272 32 l 1,19,-1
 272 96 l 1,20,-1
 496 96 l 1,21,22
 511 98 511 98 512 112 c 1,23,-1
 512 432 l 1,24,25
 510 447 510 447 496 448 c 1,0,-1
480 128 m 1,26,-1
 32 128 l 1,27,-1
 32 416 l 1,28,-1
 480 416 l 1,29,-1
 480 128 l 1,26,-1
EndSplineSet
EndChar

StartChar: uniE075
Encoding: 57461 57461 120
Width: 512
Flags: W
LayerCount: 2
Fore
SplineSet
256 512 m 0,0,1
 197 512 197 512 150 492.5 c 128,-1,2
 103 473 103 473 77 446.5 c 128,-1,3
 51 420 51 420 32.5 388 c 128,-1,4
 14 356 14 356 8 337.5 c 128,-1,5
 2 319 2 319 0 309 c 1,6,-1
 0 307 l 1,7,8
 -1 299 -1 299 4 294 c 1,9,10
 8 288 8 288 16 288 c 2,11,-1
 240 288 l 1,12,-1
 240 48 l 2,13,14
 240 18 240 18 268 4 c 0,15,16
 278 0 278 0 288 0 c 0,17,18
 318 0 318 0 332 28 c 0,19,20
 336 38 336 38 336 48 c 1,21,22
 334 63 334 63 320 64 c 1,23,24
 305 62 305 62 304 48 c 0,25,26
 302 33 302 33 288 32 c 1,27,28
 273 34 273 34 272 48 c 1,29,-1
 272 288 l 1,30,-1
 496 288 l 1,31,32
 511 290 511 290 512 304 c 0,33,34
 512 308 512 308 511 309 c 0,35,36
 496 382 496 382 443 438 c 0,37,38
 372 512 372 512 256 512 c 0,0,1
36 320 m 1,39,40
 67 420 67 420 153 460 c 1,41,42
 199 480 199 480 256 480 c 0,43,44
 400 480 400 480 461 359 c 0,45,46
 470 340 470 340 476 320 c 1,47,-1
 36 320 l 1,39,40
EndSplineSet
EndChar

StartChar: uniE076
Encoding: 57462 57462 121
Width: 512
Flags: W
LayerCount: 2
Fore
SplineSet
256 32 m 1,0,1
 271 34 271 34 272 48 c 1,2,-1
 272 265 l 1,3,-1
 309 229 l 2,4,5
 315 224 315 224 320 224 c 0,6,7
 326 225 326 225 331 229 c 0,8,9
 342 240 342 240 331 251 c 2,10,-1
 267 315 l 2,11,12
 256 326 256 326 245 315 c 2,13,-1
 181 251 l 2,14,15
 170 240 170 240 181 229 c 128,-1,16
 192 218 192 218 203 229 c 2,17,-1
 240 265 l 1,18,-1
 240 48 l 1,19,20
 242 33 242 33 256 32 c 1,0,1
16 160 m 1,21,-1
 192 160 l 1,22,23
 207 162 207 162 208 176 c 1,24,25
 206 191 206 191 192 192 c 1,26,-1
 32 192 l 1,27,-1
 32 448 l 1,28,-1
 480 448 l 1,29,-1
 480 192 l 1,30,-1
 320 192 l 1,31,32
 305 190 305 190 304 176 c 1,33,34
 306 161 306 161 320 160 c 1,35,-1
 496 160 l 1,36,37
 511 162 511 162 512 176 c 1,38,-1
 512 464 l 1,39,40
 510 479 510 479 496 480 c 1,41,-1
 16 480 l 1,42,43
 1 478 1 478 0 464 c 1,44,-1
 0 176 l 1,45,46
 2 161 2 161 16 160 c 1,21,-1
EndSplineSet
EndChar

StartChar: uniE077
Encoding: 57463 57463 122
Width: 512
Flags: W
LayerCount: 2
Fore
SplineSet
16 128 m 1,0,-1
 192 128 l 1,1,2
 207 130 207 130 208 144 c 1,3,4
 206 159 206 159 192 160 c 1,5,-1
 32 160 l 1,6,-1
 32 480 l 1,7,-1
 169 480 l 1,8,-1
 229 421 l 2,9,10
 235 416 235 416 240 416 c 2,11,-1
 480 416 l 1,12,-1
 480 160 l 1,13,-1
 320 160 l 1,14,15
 305 158 305 158 304 144 c 1,16,17
 306 129 306 129 320 128 c 1,18,-1
 496 128 l 1,19,20
 511 130 511 130 512 144 c 1,21,-1
 512 432 l 1,22,23
 510 447 510 447 496 448 c 1,24,-1
 247 448 l 1,25,-1
 187 507 l 2,26,27
 181 512 181 512 176 512 c 2,28,-1
 16 512 l 1,29,30
 1 510 1 510 0 496 c 1,31,-1
 0 144 l 1,32,33
 2 129 2 129 16 128 c 1,0,-1
256 0 m 1,34,35
 271 2 271 2 272 16 c 1,36,-1
 272 233 l 1,37,-1
 309 197 l 2,38,39
 315 192 315 192 320 192 c 0,40,41
 326 193 326 193 331 197 c 0,42,43
 342 208 342 208 331 219 c 2,44,-1
 267 283 l 2,45,46
 256 294 256 294 245 283 c 2,47,-1
 181 219 l 2,48,49
 170 208 170 208 181 197 c 128,-1,50
 192 186 192 186 203 197 c 2,51,-1
 240 233 l 1,52,-1
 240 16 l 1,53,54
 242 1 242 1 256 0 c 1,34,35
EndSplineSet
EndChar

StartChar: uniE078
Encoding: 57464 57464 123
Width: 512
Flags: W
LayerCount: 2
Fore
SplineSet
399 239 m 1,0,1
 431 267 431 267 432 304 c 1,2,3
 432 357 432 357 389 390 c 0,4,5
 364 408 364 408 336 408 c 0,6,7
 291 407 291 407 263 374 c 1,8,9
 243 376 243 376 232 376 c 0,10,11
 133 374 133 374 93 271 c 1,12,13
 30 266 30 266 8 222 c 0,14,15
 0 205 0 205 0 184 c 0,16,17
 0 135 0 135 46 114 c 0,18,19
 68 104 68 104 96 104 c 2,20,-1
 384 104 l 1,21,22
 446 108 446 108 448 168 c 1,23,24
 448 223 448 223 405 237 c 0,25,26
 402 238 402 238 399 239 c 1,0,1
336 376 m 0,27,28
 372 376 372 376 392 338 c 0,29,30
 400 321 400 321 400 304 c 0,31,32
 399 287 399 287 390 275 c 1,33,34
 365 340 365 340 299 365 c 1,35,36
 316 376 316 376 336 376 c 0,27,28
384 136 m 2,37,-1
 96 136 l 2,38,39
 41 136 41 136 33 174 c 0,40,41
 32 180 32 180 32 184 c 0,42,43
 33 217 33 217 65 232 c 0,44,45
 84 240 84 240 104 240 c 2,46,-1
 115 240 l 1,47,-1
 119 251 l 1,48,49
 158 340 158 340 232 344 c 1,50,51
 321 344 321 344 354 279 c 0,52,53
 367 253 367 253 368 223 c 2,54,-1
 369 208 l 1,55,-1
 384 208 l 1,56,57
 415 207 415 207 416 168 c 0,58,59
 416 142 416 142 403 138 c 0,60,61
 396 136 396 136 384 136 c 2,37,-1
496 328 m 1,62,-1
 464 328 l 1,63,64
 449 326 449 326 448 312 c 1,65,66
 450 297 450 297 464 296 c 1,67,-1
 496 296 l 1,68,69
 511 298 511 298 512 312 c 1,70,71
 510 327 510 327 496 328 c 1,62,-1
352 440 m 1,72,-1
 352 472 l 1,73,74
 350 487 350 487 336 488 c 1,75,76
 321 486 321 486 320 472 c 1,77,-1
 320 440 l 1,78,79
 322 425 322 425 336 424 c 1,80,81
 351 426 351 426 352 440 c 1,72,-1
435 405 m 2,82,-1
 459 429 l 2,83,84
 470 440 470 440 459 451 c 128,-1,85
 448 462 448 462 437 451 c 2,86,-1
 413 427 l 2,87,88
 402 416 402 416 413 405 c 0,89,90
 419 400 419 400 424 400 c 0,91,92
 430 401 430 401 435 405 c 2,82,-1
248 400 m 0,93,94
 254 401 254 401 259 405 c 0,95,96
 270 416 270 416 259 427 c 2,97,-1
 235 451 l 2,98,99
 224 462 224 462 213 451 c 128,-1,100
 202 440 202 440 213 429 c 2,101,-1
 237 405 l 2,102,103
 243 400 243 400 248 400 c 0,93,94
EndSplineSet
EndChar

StartChar: uniE079
Encoding: 57465 57465 124
Width: 512
Flags: W
LayerCount: 2
Fore
SplineSet
504 366 m 1,0,1
 495 370 495 370 488 366 c 2,2,-1
 384 301 l 1,3,-1
 384 352 l 1,4,5
 382 367 382 367 368 368 c 1,6,-1
 327 368 l 1,7,-1
 263 432 l 1,8,-1
 48 432 l 1,9,10
 33 430 33 430 32 416 c 1,11,12
 34 401 34 401 48 400 c 1,13,-1
 249 400 l 1,14,-1
 281 368 l 1,15,-1
 16 368 l 1,16,17
 1 366 1 366 0 352 c 1,18,-1
 0 96 l 1,19,20
 2 81 2 81 16 80 c 1,21,-1
 368 80 l 1,22,23
 383 82 383 82 384 96 c 1,24,-1
 384 147 l 1,25,-1
 488 82 l 2,26,27
 492 80 492 80 496 80 c 0,28,29
 499 80 499 80 504 82 c 1,30,31
 511 88 511 88 512 96 c 1,32,-1
 512 352 l 1,33,34
 511 361 511 361 504 366 c 1,0,1
480 125 m 1,35,-1
 376 190 l 2,36,37
 369 194 369 194 360 190 c 1,38,39
 353 184 353 184 352 176 c 1,40,-1
 352 112 l 1,41,-1
 32 112 l 1,42,-1
 32 336 l 1,43,-1
 352 336 l 1,44,-1
 352 272 l 1,45,46
 353 263 353 263 360 258 c 1,47,48
 369 254 369 254 376 258 c 2,49,-1
 480 323 l 1,50,-1
 480 125 l 1,35,-1
64 272 m 1,51,-1
 96 272 l 1,52,53
 111 274 111 274 112 288 c 1,54,55
 110 303 110 303 96 304 c 1,56,-1
 64 304 l 1,57,58
 49 302 49 302 48 288 c 1,59,60
 50 273 50 273 64 272 c 1,51,-1
192 240 m 1,61,-1
 64 240 l 1,62,63
 49 238 49 238 48 224 c 1,64,-1
 48 160 l 1,65,66
 50 145 50 145 64 144 c 1,67,-1
 192 144 l 1,68,69
 207 146 207 146 208 160 c 1,70,-1
 208 224 l 1,71,72
 206 239 206 239 192 240 c 1,61,-1
176 176 m 1,73,-1
 80 176 l 1,74,-1
 80 208 l 1,75,-1
 176 208 l 1,76,-1
 176 176 l 1,73,-1
EndSplineSet
EndChar

StartChar: uniE07A
Encoding: 57466 57466 125
Width: 512
Flags: W
LayerCount: 2
Fore
SplineSet
24 144 m 1,0,-1
 113 144 l 1,1,-1
 253 5 l 2,2,3
 259 0 259 0 264 0 c 0,4,5
 268 0 268 0 270 1 c 0,6,7
 279 7 279 7 280 16 c 1,8,-1
 280 496 l 1,9,10
 279 506 279 506 270 511 c 1,11,12
 259 514 259 514 253 507 c 2,13,-1
 113 368 l 1,14,-1
 24 368 l 1,15,16
 9 366 9 366 8 352 c 1,17,-1
 8 160 l 1,18,19
 10 145 10 145 24 144 c 1,0,-1
40 336 m 1,20,-1
 120 336 l 1,21,22
 126 337 126 337 131 341 c 2,23,-1
 248 457 l 1,24,-1
 248 55 l 1,25,-1
 131 171 l 2,26,27
 125 176 125 176 120 176 c 2,28,-1
 40 176 l 1,29,-1
 40 336 l 1,20,-1
328 192 m 1,30,31
 313 190 313 190 312 176 c 1,32,33
 314 161 314 161 328 160 c 1,34,35
 381 160 381 160 409 205 c 0,36,37
 424 229 424 229 424 256 c 0,38,39
 424 309 424 309 379 337 c 0,40,41
 355 352 355 352 328 352 c 1,42,43
 313 350 313 350 312 336 c 1,44,45
 314 321 314 321 328 320 c 1,46,47
 367 320 367 320 385 285 c 0,48,49
 392 271 392 271 392 256 c 0,50,51
 392 217 392 217 357 199 c 0,52,53
 343 192 343 192 328 192 c 1,30,31
328 80 m 1,54,55
 412 80 412 80 465 145 c 0,56,57
 504 194 504 194 504 256 c 0,58,59
 504 340 504 340 439 393 c 0,60,61
 390 432 390 432 328 432 c 1,62,63
 313 430 313 430 312 416 c 1,64,65
 314 401 314 401 328 400 c 1,66,67
 399 400 399 400 443 343 c 1,68,69
 472 303 472 303 472 256 c 0,70,71
 472 185 472 185 415 141 c 1,72,73
 375 112 375 112 328 112 c 1,74,75
 313 110 313 110 312 96 c 1,76,77
 314 81 314 81 328 80 c 1,54,55
EndSplineSet
EndChar

StartChar: uniE07B
Encoding: 57467 57467 126
Width: 512
Flags: W
LayerCount: 2
Fore
SplineSet
64 144 m 1,0,-1
 153 144 l 1,1,-1
 293 5 l 2,2,3
 299 0 299 0 304 0 c 0,4,5
 308 0 308 0 310 1 c 0,6,7
 319 7 319 7 320 16 c 1,8,-1
 320 496 l 1,9,10
 319 506 319 506 310 511 c 1,11,12
 299 514 299 514 293 507 c 2,13,-1
 153 368 l 1,14,-1
 64 368 l 1,15,16
 49 366 49 366 48 352 c 1,17,-1
 48 160 l 1,18,19
 50 145 50 145 64 144 c 1,0,-1
80 336 m 1,20,-1
 160 336 l 1,21,22
 166 337 166 337 171 341 c 2,23,-1
 288 457 l 1,24,-1
 288 55 l 1,25,-1
 171 171 l 2,26,27
 165 176 165 176 160 176 c 2,28,-1
 80 176 l 1,29,-1
 80 336 l 1,20,-1
368 192 m 1,30,31
 353 190 353 190 352 176 c 1,32,33
 354 161 354 161 368 160 c 1,34,35
 421 160 421 160 449 205 c 0,36,37
 464 229 464 229 464 256 c 0,38,39
 464 309 464 309 419 337 c 0,40,41
 395 352 395 352 368 352 c 1,42,43
 353 350 353 350 352 336 c 1,44,45
 354 321 354 321 368 320 c 1,46,47
 407 320 407 320 425 285 c 0,48,49
 432 271 432 271 432 256 c 0,50,51
 432 217 432 217 397 199 c 0,52,53
 383 192 383 192 368 192 c 1,30,31
EndSplineSet
EndChar

StartChar: uniE07C
Encoding: 57468 57468 127
Width: 512
Flags: W
LayerCount: 2
Fore
SplineSet
32 144 m 1,0,-1
 121 144 l 1,1,-1
 261 5 l 2,2,3
 267 0 267 0 272 0 c 0,4,5
 276 0 276 0 278 1 c 0,6,7
 287 7 287 7 288 16 c 1,8,-1
 288 496 l 1,9,10
 287 506 287 506 278 511 c 1,11,12
 267 514 267 514 261 507 c 2,13,-1
 121 368 l 1,14,-1
 32 368 l 1,15,16
 17 366 17 366 16 352 c 1,17,-1
 16 160 l 1,18,19
 18 145 18 145 32 144 c 1,0,-1
48 336 m 1,20,-1
 128 336 l 1,21,22
 134 337 134 337 139 341 c 2,23,-1
 256 457 l 1,24,-1
 256 55 l 1,25,-1
 139 171 l 2,26,27
 133 176 133 176 128 176 c 2,28,-1
 48 176 l 1,29,-1
 48 336 l 1,20,-1
325 173 m 0,30,31
 331 168 331 168 336 168 c 0,32,33
 342 169 342 169 347 173 c 2,34,-1
 408 233 l 1,35,-1
 469 173 l 2,36,37
 475 168 475 168 480 168 c 0,38,39
 486 169 486 169 491 173 c 0,40,41
 502 184 502 184 491 195 c 2,42,-1
 431 256 l 1,43,-1
 491 317 l 2,44,45
 502 328 502 328 491 339 c 128,-1,46
 480 350 480 350 469 339 c 2,47,-1
 408 279 l 1,48,-1
 347 339 l 2,49,50
 336 350 336 350 325 339 c 128,-1,51
 314 328 314 328 325 317 c 2,52,-1
 385 256 l 1,53,-1
 325 195 l 2,54,55
 314 184 314 184 325 173 c 0,30,31
EndSplineSet
EndChar

StartChar: uniE07D
Encoding: 57469 57469 128
Width: 512
Flags: W
LayerCount: 2
Fore
SplineSet
160 0 m 1,0,-1
 352 0 l 1,1,2
 367 2 367 2 368 16 c 1,3,-1
 368 120 l 1,4,5
 431 175 431 175 432 256 c 1,6,7
 431 338 431 338 368 392 c 1,8,-1
 368 496 l 1,9,10
 366 511 366 511 352 512 c 1,11,-1
 160 512 l 1,12,13
 145 510 145 510 144 496 c 1,14,-1
 144 392 l 1,15,16
 81 337 81 337 80 256 c 1,17,18
 81 174 81 174 144 120 c 1,19,-1
 144 16 l 1,20,21
 146 1 146 1 160 0 c 1,0,-1
336 32 m 1,22,-1
 176 32 l 1,23,-1
 176 99 l 1,24,25
 215 80 215 80 256 80 c 0,26,27
 298 80 298 80 336 99 c 1,28,-1
 336 32 l 1,22,-1
176 480 m 1,29,-1
 336 480 l 1,30,-1
 336 413 l 1,31,32
 297 432 297 432 256 432 c 0,33,34
 214 432 214 432 176 413 c 1,35,-1
 176 480 l 1,29,-1
112 256 m 0,36,37
 112 327 112 327 169 371 c 1,38,39
 209 400 209 400 256 400 c 0,40,41
 327 400 327 400 371 343 c 1,42,43
 400 303 400 303 400 256 c 0,44,45
 400 185 400 185 343 141 c 1,46,47
 303 112 303 112 256 112 c 0,48,49
 185 112 185 112 141 169 c 1,50,51
 112 209 112 209 112 256 c 0,36,37
249 242 m 2,52,-1
 313 210 l 2,53,54
 317 208 317 208 320 208 c 0,55,56
 330 209 330 209 334 217 c 1,57,58
 339 231 339 231 327 238 c 2,59,-1
 272 266 l 1,60,-1
 272 352 l 1,61,62
 270 367 270 367 256 368 c 1,63,64
 241 366 241 366 240 352 c 1,65,-1
 240 256 l 1,66,67
 241 246 241 246 249 242 c 2,52,-1
EndSplineSet
EndChar

StartChar: uniE07E
Encoding: 57470 57470 129
Width: 512
Flags: W
LayerCount: 2
Fore
SplineSet
160 160 m 1,0,1
 145 158 145 158 144 144 c 1,2,-1
 144 96 l 1,3,4
 146 81 146 81 160 80 c 1,5,6
 175 82 175 82 176 96 c 1,7,-1
 176 144 l 1,8,9
 174 159 174 159 160 160 c 1,0,1
288 160 m 1,10,11
 273 158 273 158 272 144 c 1,12,-1
 272 80 l 1,13,14
 274 65 274 65 288 64 c 1,15,16
 303 66 303 66 304 80 c 1,17,-1
 304 144 l 1,18,19
 302 159 302 159 288 160 c 1,10,11
224 160 m 1,20,21
 209 158 209 158 208 144 c 1,22,-1
 208 32 l 1,23,24
 210 17 210 17 224 16 c 1,25,26
 239 18 239 18 240 32 c 1,27,-1
 240 144 l 1,28,29
 238 159 238 159 224 160 c 1,20,21
352 160 m 1,30,31
 337 158 337 158 336 144 c 1,32,-1
 336 32 l 1,33,34
 338 17 338 17 352 16 c 1,35,36
 367 18 367 18 368 32 c 1,37,-1
 368 144 l 1,38,39
 366 159 366 159 352 160 c 1,30,31
447 335 m 1,40,41
 441 416 441 416 374 464 c 1,42,43
 327 496 327 496 272 496 c 0,44,45
 186 496 186 496 133 432 c 0,46,47
 109 403 109 403 99 368 c 1,48,-1
 96 368 l 2,49,50
 43 368 43 368 15 323 c 0,51,52
 0 299 0 299 0 272 c 0,53,54
 0 219 0 219 45 191 c 0,55,56
 69 176 69 176 96 176 c 2,57,-1
 432 176 l 2,58,59
 477 176 477 176 501 215 c 0,60,61
 512 234 512 234 512 256 c 0,62,63
 512 303 512 303 471 326 c 0,64,65
 459 332 459 332 447 335 c 1,40,41
432 208 m 2,66,-1
 96 208 l 2,67,68
 57 208 57 208 39 243 c 0,69,70
 32 257 32 257 32 272 c 0,71,72
 32 311 32 311 67 329 c 0,73,74
 81 336 81 336 96 336 c 2,75,-1
 112 336 l 1,76,77
 124 337 124 337 128 349 c 1,78,79
 140 415 140 415 202 447 c 0,80,81
 235 464 235 464 272 464 c 0,82,83
 343 464 343 464 387 407 c 1,84,85
 416 367 416 367 416 320 c 1,86,87
 418 305 418 305 432 304 c 1,88,89
 462 304 462 304 476 276 c 0,90,91
 480 266 480 266 480 256 c 0,92,93
 480 226 480 226 452 212 c 0,94,95
 442 208 442 208 432 208 c 2,66,-1
EndSplineSet
EndChar

StartChar: uniE07F
Encoding: 57471 57471 130
Width: 512
Flags: W
LayerCount: 2
Fore
SplineSet
496 472 m 1,0,-1
 16 472 l 1,1,2
 1 470 1 470 0 456 c 1,3,-1
 0 56 l 1,4,5
 2 41 2 41 16 40 c 1,6,-1
 496 40 l 1,7,8
 511 42 511 42 512 56 c 1,9,-1
 512 456 l 1,10,11
 510 471 510 471 496 472 c 1,0,-1
480 440 m 1,12,-1
 480 376 l 1,13,-1
 32 376 l 1,14,-1
 32 440 l 1,15,-1
 480 440 l 1,12,-1
32 72 m 1,16,-1
 32 344 l 1,17,-1
 480 344 l 1,18,-1
 480 72 l 1,19,-1
 32 72 l 1,16,-1
80 392 m 0,20,21
 86 393 86 393 91 397 c 1,22,23
 96 403 96 403 96 408 c 0,24,25
 95 414 95 414 91 419 c 1,26,27
 80 428 80 428 69 419 c 1,28,29
 64 413 64 413 64 408 c 0,30,31
 65 402 65 402 69 397 c 1,32,33
 75 392 75 392 80 392 c 0,20,21
128 392 m 0,34,35
 134 393 134 393 139 397 c 1,36,37
 144 403 144 403 144 408 c 0,38,39
 143 414 143 414 139 419 c 1,40,41
 128 428 128 428 117 419 c 1,42,43
 112 413 112 413 112 408 c 0,44,45
 113 402 113 402 117 397 c 1,46,47
 123 392 123 392 128 392 c 0,34,35
176 392 m 0,48,49
 182 393 182 393 187 397 c 1,50,51
 192 403 192 403 192 408 c 0,52,53
 191 414 191 414 187 419 c 1,54,55
 176 428 176 428 165 419 c 1,56,57
 160 413 160 413 160 408 c 0,58,59
 161 402 161 402 165 397 c 1,60,61
 171 392 171 392 176 392 c 0,48,49
248 312 m 1,62,-1
 80 312 l 1,63,64
 65 310 65 310 64 296 c 1,65,66
 66 281 66 281 80 280 c 1,67,-1
 248 280 l 1,68,69
 263 282 263 282 264 296 c 1,70,71
 262 311 262 311 248 312 c 1,62,-1
248 248 m 1,72,-1
 80 248 l 1,73,74
 65 246 65 246 64 232 c 1,75,76
 66 217 66 217 80 216 c 1,77,-1
 248 216 l 1,78,79
 263 218 263 218 264 232 c 1,80,81
 262 247 262 247 248 248 c 1,72,-1
248 184 m 1,82,-1
 80 184 l 1,83,84
 65 182 65 182 64 168 c 1,85,86
 66 153 66 153 80 152 c 1,87,-1
 248 152 l 1,88,89
 263 154 263 154 264 168 c 1,90,91
 262 183 262 183 248 184 c 1,82,-1
432 312 m 1,92,-1
 312 312 l 1,93,94
 297 310 297 310 296 296 c 1,95,-1
 296 168 l 1,96,97
 298 153 298 153 312 152 c 1,98,-1
 432 152 l 1,99,100
 447 154 447 154 448 168 c 1,101,-1
 448 296 l 1,102,103
 446 311 446 311 432 312 c 1,92,-1
416 184 m 1,104,-1
 328 184 l 1,105,-1
 328 280 l 1,106,-1
 416 280 l 1,107,-1
 416 184 l 1,104,-1
EndSplineSet
EndChar

StartChar: uniE080
Encoding: 57472 57472 131
Width: 512
Flags: W
LayerCount: 2
Fore
SplineSet
16 40 m 1,0,-1
 496 40 l 1,1,2
 511 42 511 42 512 56 c 1,3,-1
 512 456 l 1,4,5
 510 471 510 471 496 472 c 1,6,-1
 16 472 l 1,7,8
 1 470 1 470 0 456 c 1,9,-1
 0 56 l 1,10,11
 2 41 2 41 16 40 c 1,0,-1
32 72 m 1,12,-1
 32 344 l 1,13,-1
 480 344 l 1,14,-1
 480 72 l 1,15,-1
 32 72 l 1,12,-1
480 440 m 1,16,-1
 480 376 l 1,17,-1
 32 376 l 1,18,-1
 32 440 l 1,19,-1
 480 440 l 1,16,-1
80 392 m 0,20,21
 86 393 86 393 91 397 c 1,22,23
 96 403 96 403 96 408 c 0,24,25
 95 414 95 414 91 419 c 1,26,27
 80 428 80 428 69 419 c 1,28,29
 64 413 64 413 64 408 c 0,30,31
 65 402 65 402 69 397 c 1,32,33
 75 392 75 392 80 392 c 0,20,21
128 392 m 0,34,35
 134 393 134 393 139 397 c 1,36,37
 144 403 144 403 144 408 c 0,38,39
 143 414 143 414 139 419 c 1,40,41
 128 428 128 428 117 419 c 1,42,43
 112 413 112 413 112 408 c 0,44,45
 113 402 113 402 117 397 c 1,46,47
 123 392 123 392 128 392 c 0,34,35
176 392 m 0,48,49
 182 393 182 393 187 397 c 1,50,51
 192 403 192 403 192 408 c 0,52,53
 191 414 191 414 187 419 c 1,54,55
 176 428 176 428 165 419 c 1,56,57
 160 413 160 413 160 408 c 0,58,59
 161 402 161 402 165 397 c 1,60,61
 171 392 171 392 176 392 c 0,48,49
432 312 m 1,62,-1
 80 312 l 1,63,64
 65 310 65 310 64 296 c 1,65,66
 66 281 66 281 80 280 c 1,67,-1
 432 280 l 1,68,69
 447 282 447 282 448 296 c 1,70,71
 446 311 446 311 432 312 c 1,62,-1
432 248 m 1,72,-1
 80 248 l 1,73,74
 65 246 65 246 64 232 c 1,75,76
 66 217 66 217 80 216 c 1,77,-1
 432 216 l 1,78,79
 447 218 447 218 448 232 c 1,80,81
 446 247 446 247 432 248 c 1,72,-1
432 184 m 1,82,-1
 80 184 l 1,83,84
 65 182 65 182 64 168 c 1,85,86
 66 153 66 153 80 152 c 1,87,-1
 432 152 l 1,88,89
 447 154 447 154 448 168 c 1,90,91
 446 183 446 183 432 184 c 1,82,-1
EndSplineSet
EndChar

StartChar: uniE081
Encoding: 57473 57473 132
Width: 512
Flags: W
LayerCount: 2
Fore
SplineSet
368 512 m 1,0,-1
 304 512 l 1,1,2
 289 510 289 510 288 496 c 1,3,-1
 288 349 l 1,4,5
 257 338 257 338 256 304 c 1,6,-1
 256 16 l 1,7,8
 258 1 258 1 272 0 c 1,9,-1
 400 0 l 1,10,11
 415 2 415 2 416 16 c 1,12,-1
 416 304 l 1,13,14
 415 339 415 339 384 349 c 1,15,-1
 384 496 l 1,16,17
 382 511 382 511 368 512 c 1,0,-1
304 320 m 0,18,19
 319 322 319 322 320 336 c 1,20,-1
 320 480 l 1,21,-1
 352 480 l 1,22,-1
 352 336 l 1,23,24
 354 321 354 321 368 320 c 0,25,26
 383 318 383 318 384 304 c 1,27,-1
 384 240 l 1,28,-1
 288 240 l 1,29,-1
 288 304 l 1,30,31
 289 319 289 319 304 320 c 0,18,19
288 208 m 1,32,-1
 384 208 l 1,33,-1
 384 144 l 1,34,-1
 288 144 l 1,35,-1
 288 208 l 1,32,-1
288 32 m 1,36,-1
 288 112 l 1,37,-1
 384 112 l 1,38,-1
 384 32 l 1,39,-1
 288 32 l 1,36,-1
217 179 m 1,40,41
 223 185 223 185 224 192 c 1,42,-1
 224 320 l 1,43,44
 222 335 222 335 208 336 c 1,45,-1
 112 336 l 1,46,47
 97 334 97 334 96 320 c 1,48,-1
 96 192 l 1,49,50
 97 184 97 184 103 179 c 2,51,-1
 144 151 l 1,52,-1
 144 32 l 1,53,-1
 120 32 l 1,54,55
 105 30 105 30 104 16 c 1,56,57
 106 1 106 1 120 0 c 1,58,-1
 200 0 l 1,59,60
 215 2 215 2 216 16 c 1,61,62
 214 31 214 31 200 32 c 1,63,-1
 176 32 l 1,64,-1
 176 151 l 1,65,-1
 217 179 l 1,40,41
128 304 m 1,66,-1
 192 304 l 1,67,-1
 192 201 l 1,68,-1
 160 179 l 1,69,-1
 128 201 l 1,70,-1
 128 304 l 1,66,-1
EndSplineSet
EndChar

StartChar: uniE082
Encoding: 57474 57474 133
Width: 512
Flags: W
LayerCount: 2
Fore
SplineSet
496 448 m 1,0,-1
 432 448 l 1,1,-1
 432 464 l 1,2,3
 430 479 430 479 416 480 c 1,4,-1
 368 480 l 1,5,6
 353 478 353 478 352 464 c 1,7,-1
 352 448 l 1,8,-1
 160 448 l 1,9,-1
 160 464 l 1,10,11
 158 479 158 479 144 480 c 1,12,-1
 96 480 l 1,13,14
 81 478 81 478 80 464 c 1,15,-1
 80 448 l 1,16,-1
 16 448 l 1,17,18
 1 446 1 446 0 432 c 1,19,-1
 0 48 l 1,20,21
 2 33 2 33 16 32 c 1,22,-1
 496 32 l 1,23,24
 511 34 511 34 512 48 c 1,25,-1
 512 432 l 1,26,27
 510 447 510 447 496 448 c 1,0,-1
384 448 m 1,28,-1
 400 448 l 1,29,-1
 400 416 l 1,30,-1
 384 416 l 1,31,-1
 384 448 l 1,28,-1
112 448 m 1,32,-1
 128 448 l 1,33,-1
 128 416 l 1,34,-1
 112 416 l 1,35,-1
 112 448 l 1,32,-1
480 64 m 1,36,-1
 32 64 l 1,37,-1
 32 416 l 1,38,-1
 80 416 l 1,39,-1
 80 400 l 1,40,41
 82 385 82 385 96 384 c 1,42,-1
 144 384 l 1,43,44
 159 386 159 386 160 400 c 1,45,-1
 160 416 l 1,46,-1
 352 416 l 1,47,-1
 352 400 l 1,48,49
 354 385 354 385 368 384 c 1,50,-1
 416 384 l 1,51,52
 431 386 431 386 432 400 c 1,53,-1
 432 416 l 1,54,-1
 480 416 l 1,55,-1
 480 64 l 1,36,-1
160 320 m 1,56,-1
 96 320 l 1,57,58
 81 318 81 318 80 304 c 1,59,-1
 80 240 l 1,60,61
 82 225 82 225 96 224 c 1,62,-1
 160 224 l 1,63,64
 175 226 175 226 176 240 c 1,65,-1
 176 304 l 1,66,67
 174 319 174 319 160 320 c 1,56,-1
144 256 m 1,68,-1
 112 256 l 1,69,-1
 112 288 l 1,70,-1
 144 288 l 1,71,-1
 144 256 l 1,68,-1
288 320 m 1,72,-1
 224 320 l 1,73,74
 209 318 209 318 208 304 c 1,75,-1
 208 240 l 1,76,77
 210 225 210 225 224 224 c 1,78,-1
 288 224 l 1,79,80
 303 226 303 226 304 240 c 1,81,-1
 304 304 l 1,82,83
 302 319 302 319 288 320 c 1,72,-1
272 256 m 1,84,-1
 240 256 l 1,85,-1
 240 288 l 1,86,-1
 272 288 l 1,87,-1
 272 256 l 1,84,-1
416 320 m 1,88,-1
 352 320 l 1,89,90
 337 318 337 318 336 304 c 1,91,-1
 336 240 l 1,92,93
 338 225 338 225 352 224 c 1,94,-1
 416 224 l 1,95,96
 431 226 431 226 432 240 c 1,97,-1
 432 304 l 1,98,99
 430 319 430 319 416 320 c 1,88,-1
400 256 m 1,100,-1
 368 256 l 1,101,-1
 368 288 l 1,102,-1
 400 288 l 1,103,-1
 400 256 l 1,100,-1
160 192 m 1,104,-1
 96 192 l 1,105,106
 81 190 81 190 80 176 c 1,107,-1
 80 112 l 1,108,109
 82 97 82 97 96 96 c 1,110,-1
 160 96 l 1,111,112
 175 98 175 98 176 112 c 1,113,-1
 176 176 l 1,114,115
 174 191 174 191 160 192 c 1,104,-1
144 128 m 1,116,-1
 112 128 l 1,117,-1
 112 160 l 1,118,-1
 144 160 l 1,119,-1
 144 128 l 1,116,-1
288 192 m 1,120,-1
 224 192 l 1,121,122
 209 190 209 190 208 176 c 1,123,-1
 208 112 l 1,124,125
 210 97 210 97 224 96 c 1,126,-1
 288 96 l 1,127,128
 303 98 303 98 304 112 c 1,129,-1
 304 176 l 1,130,131
 302 191 302 191 288 192 c 1,120,-1
272 128 m 1,132,-1
 240 128 l 1,133,-1
 240 160 l 1,134,-1
 272 160 l 1,135,-1
 272 128 l 1,132,-1
416 192 m 1,136,-1
 352 192 l 1,137,138
 337 190 337 190 336 176 c 1,139,-1
 336 112 l 1,140,141
 338 97 338 97 352 96 c 1,142,-1
 416 96 l 1,143,144
 431 98 431 98 432 112 c 1,145,-1
 432 176 l 1,146,147
 430 191 430 191 416 192 c 1,136,-1
400 128 m 1,148,-1
 368 128 l 1,149,-1
 368 160 l 1,150,-1
 400 160 l 1,151,-1
 400 128 l 1,148,-1
EndSplineSet
EndChar

StartChar: uniE083
Encoding: 57475 57475 134
Width: 512
Flags: W
LayerCount: 2
Fore
SplineSet
464 256 m 0,0,1
 464 351 464 351 392 414 c 1,2,3
 333 464 333 464 256 464 c 0,4,5
 161 464 161 464 98 392 c 1,6,7
 48 333 48 333 48 256 c 0,8,9
 48 160 48 160 121 97 c 1,10,11
 138 84 138 84 155 74 c 1,12,-1
 109 27 l 2,13,14
 98 16 98 16 109 5 c 0,15,16
 115 0 115 0 120 0 c 0,17,18
 126 1 126 1 131 5 c 2,19,-1
 187 60 l 1,20,21
 219 48 219 48 256 48 c 0,22,23
 294 48 294 48 325 60 c 1,24,-1
 381 5 l 2,25,26
 387 0 387 0 392 0 c 0,27,28
 398 1 398 1 403 5 c 0,29,30
 414 16 414 16 403 27 c 2,31,-1
 357 74 l 1,32,33
 436 118 436 118 458 205 c 0,34,35
 464 231 464 231 464 256 c 0,0,1
329 96 m 1,36,37
 321 95 321 95 317 91 c 1,38,-1
 316 91 l 1,39,40
 286 80 286 80 256 80 c 0,41,42
 225 80 225 80 196 91 c 1,43,-1
 195 91 l 1,44,45
 190 96 190 96 183 96 c 1,46,47
 112 129 112 129 88 203 c 0,48,49
 80 229 80 229 80 256 c 0,50,51
 80 340 80 340 145 393 c 0,52,53
 194 432 194 432 256 432 c 0,54,55
 340 432 340 432 393 367 c 0,56,57
 432 318 432 318 432 256 c 0,58,59
 432 172 432 172 366 119 c 0,60,61
 348 105 348 105 329 96 c 1,36,37
327 238 m 2,62,-1
 272 266 l 1,63,-1
 272 352 l 1,64,65
 270 367 270 367 256 368 c 1,66,67
 241 366 241 366 240 352 c 1,68,-1
 240 256 l 1,69,70
 241 246 241 246 249 242 c 2,71,-1
 313 210 l 2,72,73
 317 208 317 208 320 208 c 0,74,75
 330 209 330 209 334 217 c 1,76,77
 339 231 339 231 327 238 c 2,62,-1
143 485 m 0,78,79
 140 493 140 493 131 496 c 1,80,-1
 51 512 l 2,81,82
 42 513 42 513 37 507 c 2,83,-1
 5 475 l 2,84,85
 -1 469 -1 469 0 461 c 2,86,-1
 16 381 l 1,87,88
 19 372 19 372 27 369 c 0,89,90
 30 368 30 368 32 368 c 0,91,92
 38 369 38 369 43 373 c 2,93,-1
 139 469 l 1,94,95
 145 477 145 477 143 485 c 0,78,79
42 416 m 1,96,-1
 33 459 l 1,97,-1
 53 479 l 1,98,-1
 96 470 l 1,99,-1
 42 416 l 1,96,-1
480 368 m 0,100,101
 484 368 484 368 485 369 c 0,102,103
 493 372 493 372 496 381 c 1,104,-1
 512 461 l 2,105,106
 513 470 513 470 507 475 c 2,107,-1
 475 507 l 2,108,109
 469 513 469 513 461 512 c 2,110,-1
 381 496 l 1,111,112
 372 493 372 493 369 485 c 1,113,114
 367 476 367 476 373 469 c 2,115,-1
 469 373 l 2,116,117
 475 368 475 368 480 368 c 0,100,101
459 479 m 1,118,-1
 479 459 l 1,119,-1
 470 416 l 1,120,-1
 416 470 l 1,121,-1
 459 479 l 1,118,-1
EndSplineSet
EndChar

StartChar: uniE084
Encoding: 57476 57476 135
Width: 512
Flags: W
LayerCount: 2
Fore
SplineSet
496 400 m 1,0,-1
 247 400 l 1,1,-1
 187 459 l 2,2,3
 181 464 181 464 176 464 c 2,4,-1
 16 464 l 1,5,6
 1 462 1 462 0 448 c 1,7,-1
 0 96 l 1,8,9
 2 81 2 81 16 80 c 1,10,-1
 496 80 l 1,11,12
 511 82 511 82 512 96 c 1,13,-1
 512 384 l 1,14,15
 510 399 510 399 496 400 c 1,0,-1
480 112 m 1,16,-1
 32 112 l 1,17,-1
 32 432 l 1,18,-1
 169 432 l 1,19,-1
 229 373 l 2,20,21
 235 368 235 368 240 368 c 2,22,-1
 480 368 l 1,23,-1
 480 112 l 1,16,-1
240 256 m 1,24,-1
 176 256 l 1,25,26
 161 254 161 254 160 240 c 1,27,28
 162 225 162 225 176 224 c 1,29,-1
 240 224 l 1,30,-1
 240 160 l 1,31,32
 242 145 242 145 256 144 c 1,33,34
 271 146 271 146 272 160 c 1,35,-1
 272 224 l 1,36,-1
 336 224 l 1,37,38
 351 226 351 226 352 240 c 1,39,40
 350 255 350 255 336 256 c 1,41,-1
 272 256 l 1,42,-1
 272 320 l 1,43,44
 270 335 270 335 256 336 c 1,45,46
 241 334 241 334 240 320 c 1,47,-1
 240 256 l 1,24,-1
EndSplineSet
EndChar

StartChar: uniE085
Encoding: 57477 57477 136
Width: 512
Flags: W
LayerCount: 2
Fore
SplineSet
256 512 m 0,0,1
 150 511 150 511 75 437 c 1,2,3
 0 361 0 361 0 256 c 0,4,5
 1 150 1 150 75 75 c 1,6,7
 151 0 151 0 256 0 c 0,8,9
 362 1 362 1 437 75 c 1,10,11
 512 151 512 151 512 256 c 0,12,13
 511 362 511 362 437 437 c 1,14,15
 361 512 361 512 256 512 c 0,0,1
414 98 m 1,16,17
 349 32 349 32 256 32 c 0,18,19
 162 33 162 33 98 98 c 1,20,21
 32 162 32 162 32 256 c 0,22,23
 33 350 33 350 98 414 c 1,24,25
 163 480 163 480 256 480 c 0,26,27
 350 479 350 479 414 414 c 1,28,29
 480 350 480 350 480 256 c 0,30,31
 479 162 479 162 414 98 c 1,16,17
256 448 m 0,32,33
 176 447 176 447 120 392 c 1,34,35
 64 334 64 334 64 256 c 1,36,37
 66 241 66 241 80 240 c 1,38,39
 95 242 95 242 96 256 c 0,40,41
 97 322 97 322 143 369 c 1,42,43
 191 416 191 416 256 416 c 0,44,45
 322 415 322 415 369 369 c 1,46,47
 416 321 416 321 416 256 c 1,48,49
 418 241 418 241 432 240 c 1,50,51
 447 242 447 242 448 256 c 1,52,53
 447 335 447 335 392 392 c 1,54,55
 335 448 335 448 256 448 c 0,32,33
256 264 m 0,56,57
 252 264 252 264 250 263 c 1,58,-1
 204 315 l 1,59,60
 193 325 193 325 181 316 c 1,61,62
 171 305 171 305 180 293 c 1,63,-1
 226 242 l 1,64,65
 224 236 224 236 224 232 c 0,66,67
 225 218 225 218 233 209 c 1,68,69
 244 200 244 200 256 200 c 0,70,71
 270 201 270 201 279 209 c 1,72,73
 297 228 297 228 282 251 c 0,74,75
 280 253 280 253 279 255 c 0,76,77
 269 264 269 264 256 264 c 0,56,57
EndSplineSet
EndChar

StartChar: uniE086
Encoding: 57478 57478 137
Width: 512
Flags: W
LayerCount: 2
Fore
SplineSet
104 0 m 2,0,-1
 408 0 l 2,1,2
 432 0 432 0 439 22 c 0,3,4
 440 28 440 28 440 32 c 2,5,-1
 440 480 l 2,6,7
 440 504 440 504 418 511 c 0,8,9
 412 512 412 512 408 512 c 2,10,-1
 104 512 l 2,11,12
 80 512 80 512 73 490 c 0,13,14
 72 484 72 484 72 480 c 2,15,-1
 72 432 l 1,16,-1
 56 432 l 1,17,18
 41 430 41 430 40 416 c 1,19,20
 42 401 42 401 56 400 c 1,21,-1
 72 400 l 1,22,-1
 72 368 l 1,23,-1
 56 368 l 1,24,25
 41 366 41 366 40 352 c 1,26,27
 42 337 42 337 56 336 c 1,28,-1
 72 336 l 1,29,-1
 72 304 l 1,30,-1
 56 304 l 1,31,32
 41 302 41 302 40 288 c 1,33,34
 42 273 42 273 56 272 c 1,35,-1
 72 272 l 1,36,-1
 72 240 l 1,37,-1
 56 240 l 1,38,39
 41 238 41 238 40 224 c 1,40,41
 42 209 42 209 56 208 c 1,42,-1
 72 208 l 1,43,-1
 72 176 l 1,44,-1
 56 176 l 1,45,46
 41 174 41 174 40 160 c 1,47,48
 42 145 42 145 56 144 c 1,49,-1
 72 144 l 1,50,-1
 72 112 l 1,51,-1
 56 112 l 1,52,53
 41 110 41 110 40 96 c 1,54,55
 42 81 42 81 56 80 c 1,56,-1
 72 80 l 1,57,-1
 72 32 l 2,58,59
 72 8 72 8 94 1 c 0,60,61
 100 0 100 0 104 0 c 2,0,-1
408 32 m 1,62,-1
 344 32 l 1,63,-1
 344 480 l 1,64,-1
 408 480 l 1,65,-1
 408 32 l 1,62,-1
104 144 m 1,66,-1
 120 144 l 1,67,68
 135 146 135 146 136 160 c 1,69,70
 134 175 134 175 120 176 c 1,71,-1
 104 176 l 1,72,-1
 104 208 l 1,73,-1
 120 208 l 1,74,75
 135 210 135 210 136 224 c 1,76,77
 134 239 134 239 120 240 c 1,78,-1
 104 240 l 1,79,-1
 104 272 l 1,80,-1
 120 272 l 1,81,82
 135 274 135 274 136 288 c 1,83,84
 134 303 134 303 120 304 c 1,85,-1
 104 304 l 1,86,-1
 104 336 l 1,87,-1
 120 336 l 1,88,89
 135 338 135 338 136 352 c 1,90,91
 134 367 134 367 120 368 c 1,92,-1
 104 368 l 1,93,-1
 104 400 l 1,94,-1
 120 400 l 1,95,96
 135 402 135 402 136 416 c 1,97,98
 134 431 134 431 120 432 c 1,99,-1
 104 432 l 1,100,-1
 104 480 l 1,101,-1
 312 480 l 1,102,-1
 312 32 l 1,103,-1
 104 32 l 1,104,-1
 104 80 l 1,105,-1
 120 80 l 1,106,107
 135 82 135 82 136 96 c 1,108,109
 134 111 134 111 120 112 c 1,110,-1
 104 112 l 1,111,-1
 104 144 l 1,66,-1
EndSplineSet
EndChar

StartChar: uniE087
Encoding: 57479 57479 138
Width: 512
Flags: W
LayerCount: 2
Fore
SplineSet
308 403 m 1,0,1
 296 412 296 412 285 404 c 1,2,-1
 141 268 l 2,3,4
 137 263 137 263 136 256 c 1,5,6
 137 249 137 249 141 244 c 2,7,-1
 285 108 l 2,8,9
 290 104 290 104 296 104 c 0,10,11
 302 105 302 105 308 109 c 1,12,13
 317 120 317 120 307 132 c 1,14,-1
 175 256 l 1,15,-1
 307 380 l 1,16,17
 316 392 316 392 308 403 c 1,0,1
256 512 m 0,18,19
 150 511 150 511 75 437 c 1,20,21
 0 361 0 361 0 256 c 0,22,23
 1 150 1 150 75 75 c 1,24,25
 151 0 151 0 256 0 c 0,26,27
 362 1 362 1 437 75 c 1,28,29
 512 151 512 151 512 256 c 0,30,31
 511 362 511 362 437 437 c 1,32,33
 361 512 361 512 256 512 c 0,18,19
414 98 m 1,34,35
 349 32 349 32 256 32 c 0,36,37
 162 33 162 33 98 98 c 1,38,39
 32 162 32 162 32 256 c 0,40,41
 33 350 33 350 98 414 c 1,42,43
 163 480 163 480 256 480 c 0,44,45
 350 479 350 479 414 414 c 1,46,47
 480 350 480 350 480 256 c 0,48,49
 479 162 479 162 414 98 c 1,34,35
EndSplineSet
EndChar

StartChar: uniE088
Encoding: 57480 57480 139
Width: 512
Flags: W
LayerCount: 2
Fore
SplineSet
380 307 m 1,0,-1
 256 175 l 1,1,-1
 132 307 l 1,2,3
 120 316 120 316 109 308 c 1,4,5
 100 296 100 296 108 285 c 1,6,-1
 244 141 l 2,7,8
 249 137 249 137 256 136 c 1,9,10
 263 137 263 137 268 141 c 2,11,-1
 404 285 l 1,12,13
 413 296 413 296 403 308 c 1,14,15
 392 317 392 317 380 307 c 1,0,-1
256 512 m 0,16,17
 150 511 150 511 75 437 c 1,18,19
 0 361 0 361 0 256 c 0,20,21
 1 150 1 150 75 75 c 1,22,23
 151 0 151 0 256 0 c 0,24,25
 362 1 362 1 437 75 c 1,26,27
 512 151 512 151 512 256 c 0,28,29
 511 362 511 362 437 437 c 1,30,31
 361 512 361 512 256 512 c 0,16,17
414 98 m 1,32,33
 349 32 349 32 256 32 c 0,34,35
 162 33 162 33 98 98 c 1,36,37
 32 162 32 162 32 256 c 0,38,39
 33 350 33 350 98 414 c 1,40,41
 163 480 163 480 256 480 c 0,42,43
 350 479 350 479 414 414 c 1,44,45
 480 350 480 350 480 256 c 0,46,47
 479 162 479 162 414 98 c 1,32,33
EndSplineSet
EndChar

StartChar: uniE089
Encoding: 57481 57481 140
Width: 512
Flags: W
LayerCount: 2
Fore
SplineSet
0 152 m 1,0,1
 2 137 2 137 16 136 c 1,2,-1
 480 136 l 1,3,4
 495 138 495 138 496 152 c 1,5,-1
 496 184 l 1,6,-1
 512 184 l 1,7,-1
 512 312 l 1,8,-1
 496 312 l 1,9,-1
 496 344 l 1,10,11
 494 359 494 359 480 360 c 1,12,-1
 16 360 l 1,13,14
 1 358 1 358 0 344 c 1,15,-1
 0 152 l 1,0,1
32 328 m 1,16,-1
 464 328 l 1,17,-1
 464 168 l 1,18,-1
 32 168 l 1,19,-1
 32 328 l 1,16,-1
80 312 m 1,20,21
 65 310 65 310 64 296 c 1,22,-1
 64 200 l 1,23,24
 66 185 66 185 80 184 c 1,25,26
 95 186 95 186 96 200 c 1,27,-1
 96 296 l 1,28,29
 94 311 94 311 80 312 c 1,20,21
128 312 m 1,30,31
 113 310 113 310 112 296 c 1,32,-1
 112 200 l 1,33,34
 114 185 114 185 128 184 c 1,35,36
 143 186 143 186 144 200 c 1,37,-1
 144 296 l 1,38,39
 142 311 142 311 128 312 c 1,30,31
EndSplineSet
EndChar

StartChar: uniE08A
Encoding: 57482 57482 141
Width: 512
Flags: W
LayerCount: 2
Fore
SplineSet
496 384 m 1,0,-1
 360 384 l 1,1,-1
 360 432 l 1,2,3
 358 447 358 447 344 448 c 1,4,-1
 168 448 l 1,5,6
 153 446 153 446 152 432 c 1,7,-1
 152 384 l 1,8,-1
 16 384 l 1,9,10
 1 382 1 382 0 368 c 1,11,-1
 0 80 l 1,12,13
 2 65 2 65 16 64 c 1,14,-1
 496 64 l 1,15,16
 511 66 511 66 512 80 c 1,17,-1
 512 368 l 1,18,19
 510 383 510 383 496 384 c 1,0,-1
184 416 m 1,20,-1
 328 416 l 1,21,-1
 328 384 l 1,22,-1
 184 384 l 1,23,-1
 184 416 l 1,20,-1
480 96 m 1,24,-1
 32 96 l 1,25,-1
 32 352 l 1,26,-1
 480 352 l 1,27,-1
 480 96 l 1,24,-1
EndSplineSet
EndChar

